<svg width="30" height="30" viewBox="0 0 30 30" fill="none" xmlns="http://www.w3.org/2000/svg">
<path fill-rule="evenodd" clip-rule="evenodd" d="M15 30C16.9698 30 18.9204 29.612 20.7403 28.8582C22.5601 28.1044 24.2137 26.9995 25.6066 25.6066C26.9995 24.2137 28.1044 22.5601 28.8582 20.7403C29.612 18.9204 30 16.9698 30 15C30 13.0302 29.612 11.0796 28.8582 9.25975C28.1044 7.43986 26.9995 5.78628 25.6066 4.3934C24.2137 3.00052 22.5601 1.89563 20.7403 1.14181C18.9204 0.387986 16.9698 -2.93527e-08 15 0C11.0218 5.92805e-08 7.20644 1.58035 4.3934 4.3934C1.58035 7.20644 0 11.0218 0 15C0 18.9782 1.58035 22.7936 4.3934 25.6066C7.20644 28.4196 11.0218 30 15 30ZM13.8217 8.82167C14.1344 8.50915 14.5585 8.33367 15.0006 8.33383C15.4427 8.33399 15.8667 8.50977 16.1792 8.8225C16.4917 9.13523 16.6672 9.55931 16.667 10.0014C16.6668 10.4435 16.4911 10.8675 16.1783 11.18L14.0233 13.3333H20C20.442 13.3333 20.8659 13.5089 21.1785 13.8215C21.4911 14.134 21.6667 14.558 21.6667 15C21.6667 15.442 21.4911 15.8659 21.1785 16.1785C20.8659 16.4911 20.442 16.6667 20 16.6667H14.025L16.1783 18.8217C16.4819 19.136 16.6499 19.557 16.6461 19.994C16.6423 20.431 16.467 20.849 16.158 21.158C15.849 21.467 15.431 21.6423 14.994 21.6461C14.557 21.6499 14.136 21.4819 13.8217 21.1783L8.82167 16.1783C8.66671 16.0235 8.54377 15.8397 8.4599 15.6374C8.37603 15.4351 8.33285 15.2182 8.33285 14.9992C8.33285 14.7801 8.37603 14.5633 8.4599 14.3609C8.54377 14.1586 8.66671 13.9748 8.82167 13.82L13.8217 8.82V8.82167Z" fill="#A1A1A1"/>
</svg>
