<svg width="22" height="24" viewBox="0 0 22 24" fill="none" xmlns="http://www.w3.org/2000/svg">
<path d="M3.41667 10.667C3.41667 4.86699 8.25 3.41699 10.6667 3.41699C16.4667 3.41699 17.9167 8.25033 17.9167 10.667V15.5003L20.3333 17.917H1L3.41667 15.5003V10.667Z" fill="#FAFAF9"/>
<path d="M10.6667 3.41667C8.25 3.41667 3.41667 4.86667 3.41667 10.6667V15.5L1 17.9167H20.3333L17.9167 15.5V10.6667C17.9167 8.25 16.4667 3.41667 10.6667 3.41667ZM10.6667 3.41667V1M7.04167 19.125C7.04167 20.3333 7.76667 22.75 10.6667 22.75C13.5667 22.75 14.2917 20.3333 14.2917 19.125" stroke="#FAFAFA" stroke-width="2" stroke-linecap="round" stroke-linejoin="round"/>
</svg>
