<svg width="15" height="15" viewBox="0 0 15 15" fill="none" xmlns="http://www.w3.org/2000/svg">
<path fill-rule="evenodd" clip-rule="evenodd" d="M7.10594 1.33343C7.2044 1.27189 7.31817 1.23926 7.43428 1.23926C7.55039 1.23926 7.66416 1.27189 7.76262 1.33343L12.0398 4.00663L7.43428 6.71577L2.82881 4.00663L7.10594 1.33343ZM1.8636 4.87643C1.86023 4.90294 1.85857 4.92963 1.85864 4.95635V9.91247C1.85864 10.0175 1.88537 10.1209 1.93631 10.2128C1.98724 10.3047 2.06072 10.3821 2.14982 10.4378L6.81477 13.3533V7.78877L1.8636 4.87643ZM8.0538 13.3533L12.7187 10.4378C12.8078 10.3821 12.8813 10.3047 12.9323 10.2128C12.9832 10.1209 13.0099 10.0175 13.0099 9.91247V4.95635C13.0099 4.9295 13.0083 4.90287 13.005 4.87643L8.0538 7.78815V13.3533Z" fill="#00BBA7"/>
</svg>
