<svg width="20" height="20" viewBox="0 0 20 20" fill="none" xmlns="http://www.w3.org/2000/svg">
<path d="M14.9997 12.5H5.83301L4.58301 5H17.4997L14.9997 12.5Z" fill="#7D39EB"/>
<path d="M2.5 2.50098H4.16667L4.58333 5.00098M4.58333 5.00098L5.83333 12.501H15L17.5 5.00098H4.58333Z" stroke="#7D39EB" stroke-width="1.76707" stroke-linecap="round" stroke-linejoin="round"/>
<path d="M6.66659 17.5007C7.12682 17.5007 7.49992 17.1276 7.49992 16.6673C7.49992 16.2071 7.12682 15.834 6.66659 15.834C6.20635 15.834 5.83325 16.2071 5.83325 16.6673C5.83325 17.1276 6.20635 17.5007 6.66659 17.5007Z" stroke="#7D39EB" stroke-width="1.76707" stroke-linecap="round" stroke-linejoin="round"/>
<path d="M14.1666 17.5007C14.6268 17.5007 14.9999 17.1276 14.9999 16.6673C14.9999 16.2071 14.6268 15.834 14.1666 15.834C13.7063 15.834 13.3333 16.2071 13.3333 16.6673C13.3333 17.1276 13.7063 17.5007 14.1666 17.5007Z" stroke="#7D39EB" stroke-width="1.76707" stroke-linecap="round" stroke-linejoin="round"/>
</svg>
