<svg width="20" height="20" viewBox="0 0 20 20" fill="none" xmlns="http://www.w3.org/2000/svg">
<path d="M14.9998 12.5H5.83313L4.58313 5H17.4998L14.9998 12.5Z" fill="#F8FAFC"/>
<path d="M2.50012 2.50098H4.16679L4.58346 5.00098M4.58346 5.00098L5.83346 12.501H15.0001L17.5001 5.00098H4.58346Z" stroke="#F8FAFC" stroke-width="1.76707" stroke-linecap="round" stroke-linejoin="round"/>
<path d="M6.66671 17.5007C7.12694 17.5007 7.50004 17.1276 7.50004 16.6673C7.50004 16.2071 7.12694 15.834 6.66671 15.834C6.20647 15.834 5.83337 16.2071 5.83337 16.6673C5.83337 17.1276 6.20647 17.5007 6.66671 17.5007Z" stroke="#F8FAFC" stroke-width="1.76707" stroke-linecap="round" stroke-linejoin="round"/>
<path d="M14.1667 17.5007C14.6269 17.5007 15 17.1276 15 16.6673C15 16.2071 14.6269 15.834 14.1667 15.834C13.7065 15.834 13.3334 16.2071 13.3334 16.6673C13.3334 17.1276 13.7065 17.5007 14.1667 17.5007Z" stroke="#F8FAFC" stroke-width="1.76707" stroke-linecap="round" stroke-linejoin="round"/>
</svg>
