<svg width="24" height="24" viewBox="0 0 24 24" fill="none" xmlns="http://www.w3.org/2000/svg">
<path d="M19.125 15.5H5.83337L4.02087 4.625H22.75L19.125 15.5Z" fill="#FAFAFA"/>
<path d="M1 1H3.41667L4.02083 4.625M4.02083 4.625L5.83333 15.5H19.125L22.75 4.625H4.02083Z" stroke="#FAFAFA" stroke-width="2" stroke-linecap="round" stroke-linejoin="round"/>
<path d="M7.04171 22.7497C7.70905 22.7497 8.25004 22.2087 8.25004 21.5413C8.25004 20.874 7.70905 20.333 7.04171 20.333C6.37436 20.333 5.83337 20.874 5.83337 21.5413C5.83337 22.2087 6.37436 22.7497 7.04171 22.7497Z" stroke="#FAFAFA" stroke-width="2" stroke-linecap="round" stroke-linejoin="round"/>
<path d="M17.9167 22.7497C18.5841 22.7497 19.125 22.2087 19.125 21.5413C19.125 20.874 18.5841 20.333 17.9167 20.333C17.2494 20.333 16.7084 20.874 16.7084 21.5413C16.7084 22.2087 17.2494 22.7497 17.9167 22.7497Z" stroke="#FAFAFA" stroke-width="2" stroke-linecap="round" stroke-linejoin="round"/>
</svg>
