<svg width="29" height="29" viewBox="0 0 29 29" fill="none" xmlns="http://www.w3.org/2000/svg">
<path d="M21.75 18.125H8.45837L6.64587 7.25H25.375L21.75 18.125Z" fill="#C6FF33"/>
<path d="M3.625 3.625H6.04167L6.64583 7.25M6.64583 7.25L8.45833 18.125H21.75L25.375 7.25H6.64583Z" stroke="black" stroke-width="2" stroke-linecap="round" stroke-linejoin="round"/>
<path d="M9.66671 25.3747C10.3341 25.3747 10.875 24.8337 10.875 24.1663C10.875 23.499 10.3341 22.958 9.66671 22.958C8.99936 22.958 8.45837 23.499 8.45837 24.1663C8.45837 24.8337 8.99936 25.3747 9.66671 25.3747Z" stroke="black" stroke-width="2" stroke-linecap="round" stroke-linejoin="round"/>
<path d="M20.5417 25.3747C21.2091 25.3747 21.75 24.8337 21.75 24.1663C21.75 23.499 21.2091 22.958 20.5417 22.958C19.8744 22.958 19.3334 23.499 19.3334 24.1663C19.3334 24.8337 19.8744 25.3747 20.5417 25.3747Z" stroke="black" stroke-width="2" stroke-linecap="round" stroke-linejoin="round"/>
</svg>
