<svg width="20" height="20" viewBox="0 0 20 20" fill="none" xmlns="http://www.w3.org/2000/svg">
<path d="M2.5 7.5V14.1667C2.5 14.6087 2.67559 15.0326 2.98816 15.3452C3.30072 15.6577 3.72464 15.8333 4.16667 15.8333H15.8333C16.2754 15.8333 16.6993 15.6577 17.0118 15.3452C17.3244 15.0326 17.5 14.6087 17.5 14.1667V7.5M2.5 7.5V5.83333C2.5 5.39131 2.67559 4.96738 2.98816 4.65482C3.30072 4.34226 3.72464 4.16667 4.16667 4.16667H15.8333C16.2754 4.16667 16.6993 4.34226 17.0118 4.65482C17.3244 4.96738 17.5 5.39131 17.5 5.83333V7.5M2.5 7.5H17.5M5.83333 10.8333H10" stroke="#D7C2F9" stroke-width="2" stroke-linecap="round" stroke-linejoin="round"/>
</svg>
