<svg width="20" height="20" viewBox="0 0 20 20" fill="none" xmlns="http://www.w3.org/2000/svg">
<path d="M7.4987 5.83203C7.4987 5.16899 7.76209 4.53311 8.23093 4.06426C8.69977 3.59542 9.33566 3.33203 9.9987 3.33203C10.6617 3.33203 11.2976 3.59542 11.7665 4.06426C12.2353 4.53311 12.4987 5.16899 12.4987 5.83203M7.4987 5.83203H12.4987M7.4987 5.83203H4.9987M12.4987 5.83203H14.9987M4.9987 5.83203H3.33203M4.9987 5.83203V14.9987C4.9987 15.4407 5.17429 15.8646 5.48685 16.1772C5.79941 16.4898 6.22334 16.6654 6.66536 16.6654H13.332C13.7741 16.6654 14.198 16.4898 14.5105 16.1772C14.8231 15.8646 14.9987 15.4407 14.9987 14.9987V5.83203M14.9987 5.83203H16.6654" stroke="#E7000B" stroke-width="2" stroke-linecap="round" stroke-linejoin="round"/>
</svg>
