<svg width="20" height="20" viewBox="0 0 20 20" fill="none" xmlns="http://www.w3.org/2000/svg">
<path d="M10 18.3333C14.6025 18.3333 18.3334 14.6025 18.3334 10C18.3334 5.3975 14.6025 1.66667 10 1.66667C5.39752 1.66667 1.66669 5.3975 1.66669 10C1.66669 14.6025 5.39752 18.3333 10 18.3333Z" stroke="#D7C2F9" stroke-width="2" stroke-linecap="round" stroke-linejoin="round"/>
<path d="M12.5 6.66667H10M10 6.66667H9.16667C8.72464 6.66667 8.30072 6.84226 7.98816 7.15482C7.6756 7.46738 7.5 7.89131 7.5 8.33333C7.5 8.77536 7.6756 9.19928 7.98816 9.51184C8.30072 9.8244 8.72464 10 9.16667 10H10.8333C11.2754 10 11.6993 10.1756 12.0118 10.4882C12.3244 10.8007 12.5 11.2246 12.5 11.6667C12.5 12.1087 12.3244 12.5326 12.0118 12.8452C11.6993 13.1577 11.2754 13.3333 10.8333 13.3333H10M10 6.66667V5M7.5 13.3333H10M10 13.3333V15" stroke="#D7C2F9" stroke-width="2" stroke-linecap="round" stroke-linejoin="round"/>
</svg>
