<svg width="24" height="24" viewBox="0 0 24 24" fill="none" xmlns="http://www.w3.org/2000/svg">
<path fill-rule="evenodd" clip-rule="evenodd" d="M12 21C13.1819 21 14.3522 20.7672 15.4442 20.3149C16.5361 19.8626 17.5282 19.1997 18.364 18.364C19.1997 17.5282 19.8626 16.5361 20.3149 15.4442C20.7672 14.3522 21 13.1819 21 12C21 10.8181 20.7672 9.64778 20.3149 8.55585C19.8626 7.46392 19.1997 6.47177 18.364 5.63604C17.5282 4.80031 16.5361 4.13738 15.4442 3.68508C14.3522 3.23279 13.1819 3 12 3C9.61305 3 7.32387 3.94821 5.63604 5.63604C3.94821 7.32387 3 9.61305 3 12C3 14.3869 3.94821 16.6761 5.63604 18.364C7.32387 20.0518 9.61305 21 12 21ZM9.707 10.293C9.61475 10.1975 9.50441 10.1213 9.3824 10.0689C9.2604 10.0165 9.12918 9.9889 8.9964 9.98775C8.86362 9.9866 8.73194 10.0119 8.60905 10.0622C8.48615 10.1125 8.3745 10.1867 8.28061 10.2806C8.18671 10.3745 8.11246 10.4861 8.06218 10.609C8.0119 10.7319 7.9866 10.8636 7.98775 10.9964C7.9889 11.1292 8.01649 11.2604 8.0689 11.3824C8.12131 11.5044 8.19749 11.6148 8.293 11.707L11.293 14.707C11.4805 14.8945 11.7348 14.9998 12 14.9998C12.2652 14.9998 12.5195 14.8945 12.707 14.707L15.707 11.707C15.8892 11.5184 15.99 11.2658 15.9877 11.0036C15.9854 10.7414 15.8802 10.4906 15.6948 10.3052C15.5094 10.1198 15.2586 10.0146 14.9964 10.0123C14.7342 10.01 14.4816 10.1108 14.293 10.293L12 12.586L9.707 10.293Z" fill="#525252"/>
</svg>
