<svg width="17" height="17" viewBox="0 0 17 17" fill="none" xmlns="http://www.w3.org/2000/svg">
<path d="M5.66667 4.95833C5.66667 5.14619 5.59204 5.32636 5.4592 5.4592C5.32636 5.59204 5.14619 5.66667 4.95833 5.66667H4.25C4.06214 5.66667 3.88197 5.74129 3.74913 5.87413C3.61629 6.00697 3.54167 6.18714 3.54167 6.375V12.75C3.54167 12.9379 3.61629 13.118 3.74913 13.2509C3.88197 13.3837 4.06214 13.4583 4.25 13.4583H10.625C10.8129 13.4583 10.993 13.3837 11.1259 13.2509C11.2587 13.118 11.3333 12.9379 11.3333 12.75V12.0417C11.3333 11.8538 11.408 11.6736 11.5408 11.5408C11.6736 11.408 11.8538 11.3333 12.0417 11.3333C12.2295 11.3333 12.4097 11.408 12.5425 11.5408C12.6754 11.6736 12.75 11.8538 12.75 12.0417V12.75C12.75 13.3136 12.5261 13.8541 12.1276 14.2526C11.7291 14.6511 11.1886 14.875 10.625 14.875H4.25C3.68641 14.875 3.14591 14.6511 2.7474 14.2526C2.34888 13.8541 2.125 13.3136 2.125 12.75V6.375C2.125 5.81141 2.34888 5.27091 2.7474 4.8724C3.14591 4.47388 3.68641 4.25 4.25 4.25H4.95833C5.14619 4.25 5.32636 4.32463 5.4592 4.45747C5.59204 4.5903 5.66667 4.77047 5.66667 4.95833Z" fill="#7D39EB"/>
<path d="M10.3401 3.54681L13.4511 6.65781L9.0028 11.1224C8.93702 11.1884 8.85886 11.2408 8.7728 11.2765C8.68674 11.3123 8.59448 11.3307 8.5013 11.3307H6.3763C6.18844 11.3307 6.00827 11.2561 5.87543 11.1232C5.7426 10.9904 5.66797 10.8102 5.66797 10.6224V8.49735C5.66799 8.40417 5.68639 8.31191 5.72213 8.22585C5.75786 8.1398 5.81023 8.06164 5.87622 7.99585L10.3401 3.54681ZM14.9415 2.05719C15.3321 2.44759 15.5612 2.97098 15.5828 3.52286C15.6045 4.07474 15.4172 4.61448 15.0583 5.03431L14.9422 5.16181L14.4513 5.65339L11.3438 2.54594L11.8361 2.05719C12.2479 1.6454 12.8064 1.41406 13.3888 1.41406C13.9712 1.41406 14.5297 1.6454 14.9415 2.05719Z" fill="#7D39EB"/>
</svg>
