<svg width="24" height="24" viewBox="0 0 24 24" fill="none" xmlns="http://www.w3.org/2000/svg">
<path d="M12.001 5C5.69398 5 2.63398 10.683 2.09098 11.808C2.06195 11.8678 2.04688 11.9335 2.04688 12C2.04688 12.0665 2.06195 12.1322 2.09098 12.192C2.63298 13.317 5.69298 19 12.001 19C18.309 19 21.368 13.317 21.911 12.192C21.94 12.1322 21.9551 12.0665 21.9551 12C21.9551 11.9335 21.94 11.8678 21.911 11.808C21.369 10.683 18.309 5 12.001 5Z" stroke="black" stroke-width="2" stroke-linecap="round" stroke-linejoin="round"/>
<path d="M12 15C13.6569 15 15 13.6569 15 12C15 10.3431 13.6569 9 12 9C10.3431 9 9 10.3431 9 12C9 13.6569 10.3431 15 12 15Z" stroke="black" stroke-width="2" stroke-linecap="round" stroke-linejoin="round"/>
</svg>
