<svg width="24" height="24" viewBox="0 0 24 24" fill="none" xmlns="http://www.w3.org/2000/svg">
<path d="M6.99951 6.362C8.51182 5.46296 10.2402 4.99216 11.9995 5C18.3065 5 21.3665 10.683 21.9095 11.808C21.9695 11.931 21.9695 12.069 21.9095 12.193C21.5575 12.921 20.1535 15.555 17.4995 17.324M13.9995 18.8C13.3413 18.9337 12.6712 19.0007 11.9995 19C5.69251 19 2.63251 13.317 2.08951 12.192C2.06017 12.1319 2.04492 12.0659 2.04492 11.999C2.04492 11.9321 2.06017 11.8661 2.08951 11.806C2.30851 11.354 2.92951 10.174 3.99951 8.921M9.99951 9.764C10.571 9.2531 11.3165 8.98037 12.0828 9.00182C12.8491 9.02326 13.5781 9.33725 14.1202 9.87932C14.6623 10.4214 14.9762 11.1504 14.9977 11.9167C15.0191 12.683 14.7464 13.4285 14.2355 14M2.99951 3L20.9995 21" stroke="black" stroke-width="2" stroke-linecap="round" stroke-linejoin="round"/>
</svg>
