<svg width="24" height="22" viewBox="0 0 24 22" fill="none" xmlns="http://www.w3.org/2000/svg">
<path d="M15.5 20.3333C11.6333 20.3333 10.6667 17.1107 10.6667 15.5H1V17.9167C1 18.5576 1.25461 19.1723 1.70783 19.6255C2.16104 20.0787 2.77573 20.3333 3.41667 20.3333H15.5ZM15.5 20.3333C16.4614 20.3333 17.3834 19.9514 18.0633 19.2716C18.7431 18.5918 19.125 17.6697 19.125 16.7083V8.25M19.125 8.25H20.3333C20.9743 8.25 21.589 7.99539 22.0422 7.54217C22.4954 7.08896 22.75 6.47427 22.75 5.83333V3.41667C22.75 2.77573 22.4954 2.16104 22.0422 1.70783C21.589 1.25461 20.9743 1 20.3333 1H19.125M19.125 8.25V1M19.125 1H5.83333C5.19239 1 4.5777 1.25461 4.12449 1.70783C3.67128 2.16104 3.41667 2.77573 3.41667 3.41667V15.5M14.2917 5.83333H8.25M10.6667 10.6667H8.25" stroke="#737373" stroke-width="2" stroke-linecap="round" stroke-linejoin="round"/>
</svg>
