<svg width="24" height="22" viewBox="0 0 24 22" fill="none" xmlns="http://www.w3.org/2000/svg">
<path d="M14.2917 5.83301H8.25M10.6667 10.6663H8.25" stroke="#FAFAFA" stroke-width="2" stroke-linecap="round" stroke-linejoin="round"/>
<path d="M1 15.5H10.6667C10.6667 17.1107 11.6333 20.3333 15.5 20.3333C16.4614 20.3333 17.3834 19.9514 18.0633 19.2716C18.7431 18.5918 19.125 17.6697 19.125 16.7083V1H20.3333C20.9743 1 21.589 1.25461 22.0422 1.70783C22.4954 2.16104 22.75 2.77573 22.75 3.41667V5.83333C22.75 6.47427 22.4954 7.08896 22.0422 7.54217C21.589 7.99539 20.9743 8.25 20.3333 8.25H19.125V16.7083C19.125 17.6697 18.7431 18.5918 18.0633 19.2716C17.3834 19.9514 16.4614 20.3333 15.5 20.3333H3.41667C2.77573 20.3333 2.16104 20.0787 1.70783 19.6255C1.25461 19.1723 1 18.5576 1 17.9167V15.5Z" fill="#FAFAFA"/>
<path d="M15.5 20.3333C11.6333 20.3333 10.6667 17.1107 10.6667 15.5H1V17.9167C1 18.5576 1.25461 19.1723 1.70783 19.6255C2.16104 20.0787 2.77573 20.3333 3.41667 20.3333H15.5ZM15.5 20.3333C16.4614 20.3333 17.3834 19.9514 18.0633 19.2716C18.7431 18.5918 19.125 17.6697 19.125 16.7083V8.25M19.125 8.25H20.3333C20.9743 8.25 21.589 7.99539 22.0422 7.54217C22.4954 7.08896 22.75 6.47427 22.75 5.83333V3.41667C22.75 2.77573 22.4954 2.16104 22.0422 1.70783C21.589 1.25461 20.9743 1 20.3333 1H19.125M19.125 8.25V1M19.125 1H5.83333C5.19239 1 4.5777 1.25461 4.12449 1.70783C3.67128 2.16104 3.41667 2.77573 3.41667 3.41667V14.8958" stroke="#FAFAFA" stroke-width="2" stroke-linecap="round" stroke-linejoin="round"/>
</svg>
