<svg width="29" height="29" viewBox="0 0 29 29" fill="none" xmlns="http://www.w3.org/2000/svg">
<path d="M16.9167 9.66602H10.875M13.2917 14.4993H10.875" stroke="black" stroke-width="2" stroke-linecap="round" stroke-linejoin="round"/>
<path d="M3.625 19.333H13.2917C13.2917 20.9437 14.2583 24.1663 18.125 24.1663C19.0864 24.1663 20.0084 23.7844 20.6883 23.1046C21.3681 22.4248 21.75 21.5028 21.75 20.5413V4.83301H22.9583C23.5993 4.83301 24.214 5.08762 24.6672 5.54083C25.1204 5.99405 25.375 6.60873 25.375 7.24967V9.66634C25.375 10.3073 25.1204 10.922 24.6672 11.3752C24.214 11.8284 23.5993 12.083 22.9583 12.083H21.75V20.5413C21.75 21.5028 21.3681 22.4248 20.6883 23.1046C20.0084 23.7844 19.0864 24.1663 18.125 24.1663H6.04167C5.40073 24.1663 4.78604 23.9117 4.33283 23.4585C3.87961 23.0053 3.625 22.3906 3.625 21.7497V19.333Z" fill="#90A1B9"/>
<path d="M18.125 24.1663C14.2583 24.1663 13.2917 20.9437 13.2917 19.333H3.625V21.7497C3.625 22.3906 3.87961 23.0053 4.33283 23.4585C4.78604 23.9117 5.40073 24.1663 6.04167 24.1663H18.125ZM18.125 24.1663C19.0864 24.1663 20.0084 23.7844 20.6883 23.1046C21.3681 22.4248 21.75 21.5028 21.75 20.5413V12.083M21.75 12.083H22.9583C23.5993 12.083 24.214 11.8284 24.6672 11.3752C25.1204 10.922 25.375 10.3073 25.375 9.66634V7.24967C25.375 6.60873 25.1204 5.99405 24.6672 5.54083C24.214 5.08762 23.5993 4.83301 22.9583 4.83301H21.75M21.75 12.083V4.83301M21.75 4.83301H8.45833C7.81739 4.83301 7.2027 5.08762 6.74949 5.54083C6.29628 5.99405 6.04167 6.60873 6.04167 7.24967V18.7288" stroke="black" stroke-width="2" stroke-linecap="round" stroke-linejoin="round"/>
</svg>
