<svg width="20" height="20" viewBox="0 0 20 20" fill="none" xmlns="http://www.w3.org/2000/svg">
<path d="M6.66665 10.8333V13.3333M9.99998 8.33332V13.3333M13.3333 12.5V13.3333M16.6666 15.8333V8.74999C16.6666 8.62062 16.6365 8.49302 16.5787 8.37731C16.5208 8.2616 16.4368 8.16095 16.3333 8.08332L10.5 3.70832C10.3557 3.60014 10.1803 3.54166 9.99998 3.54166C9.81967 3.54166 9.64423 3.60014 9.49998 3.70832L3.66665 8.08332C3.56315 8.16095 3.47915 8.2616 3.42129 8.37731C3.36343 8.49302 3.33331 8.62062 3.33331 8.74999V15.8333C3.33331 16.0543 3.42111 16.2663 3.57739 16.4226C3.73367 16.5789 3.94563 16.6667 4.16665 16.6667H15.8333C16.0543 16.6667 16.2663 16.5789 16.4226 16.4226C16.5788 16.2663 16.6666 16.0543 16.6666 15.8333Z" stroke="#C6FF33" stroke-width="2" stroke-linecap="round" stroke-linejoin="round"/>
</svg>
