<svg width="20" height="20" viewBox="0 0 20 20" fill="none" xmlns="http://www.w3.org/2000/svg">
<path d="M15.8334 10L12.5 6.66667M15.8334 10L12.5 13.3333M15.8334 10H7.50002M11.6667 17.5C10.6818 17.5 9.7065 17.306 8.79656 16.9291C7.88662 16.5522 7.05983 15.9997 6.36339 15.3033C5.66695 14.6069 5.1145 13.7801 4.73759 12.8701C4.36068 11.9602 4.16669 10.9849 4.16669 10C4.16669 9.01509 4.36068 8.03982 4.73759 7.12987C5.1145 6.21993 5.66695 5.39314 6.36339 4.6967C7.05983 4.00026 7.88662 3.44781 8.79656 3.0709C9.7065 2.69399 10.6818 2.5 11.6667 2.5" stroke="#D7C2F9" stroke-width="2" stroke-linecap="round" stroke-linejoin="round"/>
</svg>
