<svg width="15" height="15" viewBox="0 0 15 15" fill="none" xmlns="http://www.w3.org/2000/svg">
<path d="M9.375 10L11.875 7.5L9.375 5M11.875 7.5H5.625M8.75 13.125C8.01131 13.125 7.27986 12.9795 6.59741 12.6968C5.91495 12.4141 5.29485 11.9998 4.77252 11.4775C4.25019 10.9551 3.83586 10.3351 3.55318 9.65259C3.27049 8.97014 3.125 8.23869 3.125 7.5C3.125 6.76131 3.27049 6.02986 3.55318 5.34741C3.83586 4.66495 4.25019 4.04485 4.77252 3.52252C5.29485 3.00019 5.91495 2.58586 6.59741 2.30318C7.27986 2.02049 8.01131 1.875 8.75 1.875" stroke="#737373" stroke-width="2" stroke-linecap="round" stroke-linejoin="round"/>
</svg>
