<svg width="11" height="14" viewBox="0 0 11 14" fill="none" xmlns="http://www.w3.org/2000/svg">
<path d="M7.25 9.125L9.75 6.625L7.25 4.125M9.75 6.625H3.5M6.625 12.25C5.88631 12.25 5.15486 12.1045 4.47241 11.8218C3.78995 11.5391 3.16985 11.1248 2.64752 10.6025C2.12519 10.0801 1.71086 9.46005 1.42818 8.77759C1.14549 8.09514 1 7.36369 1 6.625C1 5.88631 1.14549 5.15486 1.42818 4.47241C1.71086 3.78995 2.12519 3.16985 2.64752 2.64752C3.16985 2.12519 3.78995 1.71086 4.47241 1.42818C5.15486 1.14549 5.88631 1 6.625 1" stroke="#FB2C36" stroke-width="2" stroke-linecap="round" stroke-linejoin="round"/>
</svg>
