<svg width="21" height="21" viewBox="0 0 21 21" fill="none" xmlns="http://www.w3.org/2000/svg">
<path d="M5.88962 7.57321L9.04541 10.0978C9.34392 10.3368 9.71493 10.4671 10.0973 10.4671C10.4797 10.4671 10.8508 10.3368 11.1493 10.0978L14.3051 7.57321M17.6712 14.3056V5.89012C17.6712 5.44374 17.4939 5.01564 17.1783 4.7C16.8626 4.38436 16.4345 4.20703 15.9882 4.20703H4.20653C3.76014 4.20703 3.33204 4.38436 3.0164 4.7C2.70076 5.01564 2.52344 5.44374 2.52344 5.89012V14.3056C2.52344 14.7519 2.70076 15.18 3.0164 15.4957C3.33204 15.8113 3.76014 15.9887 4.20653 15.9887H15.9882C16.4345 15.9887 16.8626 15.8113 17.1783 15.4957C17.4939 15.18 17.6712 14.7519 17.6712 14.3056Z" stroke="#5928A7" stroke-width="2" stroke-linecap="round" stroke-linejoin="round"/>
</svg>
