<svg width="20" height="20" viewBox="0 0 20 20" fill="none" xmlns="http://www.w3.org/2000/svg">
<path d="M10 13.3333H15.8333C16.2754 13.3333 16.6993 13.1577 17.0118 12.8452C17.3244 12.5326 17.5 12.1087 17.5 11.6667V5C17.5 4.55798 17.3244 4.13405 17.0118 3.82149C16.6993 3.50893 16.2754 3.33334 15.8333 3.33334H4.16667C3.72464 3.33334 3.30072 3.50893 2.98816 3.82149C2.67559 4.13405 2.5 4.55798 2.5 5V11.6667C2.5 12.1087 2.67559 12.5326 2.98816 12.8452C3.30072 13.1577 3.72464 13.3333 4.16667 13.3333H10ZM10 13.3333V16.6667M10 16.6667H13.3333M10 16.6667H6.66667" stroke="#D7C2F9" stroke-width="2" stroke-linecap="round" stroke-linejoin="round"/>
</svg>
