<svg width="20" height="20" viewBox="0 0 20 20" fill="none" xmlns="http://www.w3.org/2000/svg">
<path d="M9.16797 4.16797H17.5013M9.16797 7.5013H13.3346" stroke="#C10007" stroke-width="2" stroke-linecap="round" stroke-linejoin="round"/>
<path d="M5 4.16797H3.33333C2.8731 4.16797 2.5 4.54106 2.5 5.0013V6.66797C2.5 7.12821 2.8731 7.5013 3.33333 7.5013H5C5.46024 7.5013 5.83333 7.12821 5.83333 6.66797V5.0013C5.83333 4.54106 5.46024 4.16797 5 4.16797Z" fill="#C10007" stroke="#C10007" stroke-width="2" stroke-linecap="round" stroke-linejoin="round"/>
<path d="M9.16797 12.5H17.5013ZM9.16797 15.8333H13.3346Z" fill="#C10007"/>
<path d="M9.16797 12.5H17.5013M9.16797 15.8333H13.3346" stroke="#C10007" stroke-width="2" stroke-linecap="round" stroke-linejoin="round"/>
<path d="M5 12.5H3.33333C2.8731 12.5 2.5 12.8731 2.5 13.3333V15C2.5 15.4602 2.8731 15.8333 3.33333 15.8333H5C5.46024 15.8333 5.83333 15.4602 5.83333 15V13.3333C5.83333 12.8731 5.46024 12.5 5 12.5Z" stroke="#C10007" stroke-width="2" stroke-linecap="round" stroke-linejoin="round"/>
</svg>
