<svg width="18" height="18" viewBox="0 0 18 18" fill="none" xmlns="http://www.w3.org/2000/svg">
<path fill-rule="evenodd" clip-rule="evenodd" d="M9 18C10.1819 18 11.3522 17.7672 12.4442 17.3149C13.5361 16.8626 14.5282 16.1997 15.364 15.364C16.1997 14.5282 16.8626 13.5361 17.3149 12.4442C17.7672 11.3522 18 10.1819 18 9C18 7.8181 17.7672 6.64778 17.3149 5.55585C16.8626 4.46392 16.1997 3.47177 15.364 2.63604C14.5282 1.80031 13.5361 1.13738 12.4442 0.685084C11.3522 0.232792 10.1819 -1.76116e-08 9 0C6.61305 3.55683e-08 4.32387 0.948211 2.63604 2.63604C0.948212 4.32387 0 6.61305 0 9C0 11.3869 0.948212 13.6761 2.63604 15.364C4.32387 17.0518 6.61305 18 9 18ZM6.707 10.707C6.5184 10.8892 6.2658 10.99 6.0036 10.9877C5.7414 10.9854 5.49059 10.8802 5.30518 10.6948C5.11977 10.5094 5.0146 10.2586 5.01233 9.9964C5.01005 9.7342 5.11084 9.4816 5.293 9.293L8.293 6.293C8.48053 6.10553 8.73484 6.00021 9 6.00021C9.26516 6.00021 9.51947 6.10553 9.707 6.293L12.707 9.293C12.8892 9.4816 12.99 9.7342 12.9877 9.9964C12.9854 10.2586 12.8802 10.5094 12.6948 10.6948C12.5094 10.8802 12.2586 10.9854 11.9964 10.9877C11.7342 10.99 11.4816 10.8892 11.293 10.707L9 8.414L6.707 10.707Z" fill="#525252"/>
</svg>
