<svg width="21" height="21" viewBox="0 0 21 21" fill="none" xmlns="http://www.w3.org/2000/svg">
<path d="M5.88962 2.52344H4.20653C3.76014 2.52344 3.33204 2.70076 3.0164 3.0164C2.70076 3.33204 2.52344 3.76014 2.52344 4.20653V5.88962M2.52344 14.3051V15.9882C2.52344 16.4345 2.70076 16.8626 3.0164 17.1783C3.33204 17.4939 3.76014 17.6712 4.20653 17.6712H5.88962M14.3051 17.6712H15.9882C16.4345 17.6712 16.8626 17.4939 17.1783 17.1783C17.4939 16.8626 17.6712 16.4345 17.6712 15.9882V14.3051M17.6712 5.88962V4.20653C17.6712 3.76014 17.4939 3.33204 17.1783 3.0164C16.8626 2.70076 16.4345 2.52344 15.9882 2.52344H14.3051" stroke="#5928A7" stroke-width="2" stroke-linecap="round" stroke-linejoin="round"/>
<path d="M10.0989 10.0961C11.4932 10.0961 12.6235 8.96583 12.6235 7.57151C12.6235 6.17719 11.4932 5.04688 10.0989 5.04688C8.70454 5.04688 7.57422 6.17719 7.57422 7.57151C7.57422 8.96583 8.70454 10.0961 10.0989 10.0961Z" stroke="black" stroke-width="2" stroke-linecap="round" stroke-linejoin="round"/>
<path d="M14.3061 13.4638C14.3061 11.604 12.4219 10.0977 10.0983 10.0977C7.77484 10.0977 5.89062 11.604 5.89062 13.4638" stroke="black" stroke-width="2" stroke-linecap="round" stroke-linejoin="round"/>
</svg>
