<svg width="20" height="20" viewBox="0 0 20 20" fill="none" xmlns="http://www.w3.org/2000/svg">
<path d="M11.6667 17.5H8.33336L7.87419 15.4333C7.32778 15.2196 6.81676 14.9246 6.35836 14.5583L4.33836 15.1942L2.67169 12.3075L4.23169 10.8758C4.14369 10.2958 4.14369 9.70585 4.23169 9.12583L2.67169 7.69333L4.33836 4.80667L6.35836 5.4425C6.81696 5.07589 7.32827 4.78062 7.87502 4.56667L8.33336 2.5H11.6667L12.1259 4.56667C12.6723 4.78044 13.1833 5.07543 13.6417 5.44167L15.6617 4.80583L17.3284 7.6925L15.7684 9.12417C15.8564 9.70418 15.8564 10.2942 15.7684 10.8742L17.3284 12.3058L15.6617 15.1925L13.6417 14.5567C13.1834 14.9235 12.6724 15.219 12.1259 15.4333L11.6667 17.5Z" stroke="#D7C2F9" stroke-width="2" stroke-linecap="round" stroke-linejoin="round"/>
<path d="M10 12.5C11.3807 12.5 12.5 11.3807 12.5 10C12.5 8.61929 11.3807 7.5 10 7.5C8.61929 7.5 7.5 8.61929 7.5 10C7.5 11.3807 8.61929 12.5 10 12.5Z" stroke="#D7C2F9" stroke-width="2"/>
</svg>
