<svg width="944" height="387" viewBox="0 0 944 387" fill="none" xmlns="http://www.w3.org/2000/svg">
<g clip-path="url(#clip0_360_3466)">
<rect width="943.202" height="386.959" fill="#171717"/>
<ellipse cx="454.849" cy="125.671" rx="6.65041" ry="6.64999" fill="#C6FF33"/>
<ellipse cx="470.683" cy="162.281" rx="5.38366" ry="5.38333" fill="#C6FF33"/>
<ellipse cx="439.015" cy="162.281" rx="5.38366" ry="5.38333" fill="#C6FF33"/>
<path fill-rule="evenodd" clip-rule="evenodd" d="M438.983 80.8945C450.019 80.8948 458.966 89.8406 458.966 100.876C458.966 109.911 452.968 117.544 444.736 120.015C444.579 119.514 444.417 119.012 444.247 118.51C439.359 104.109 430.326 93.4361 421.758 90.7432C425.233 84.8494 431.646 80.8945 438.983 80.8945Z" fill="#C6FF33"/>
<path fill-rule="evenodd" clip-rule="evenodd" d="M416.347 92.0176C420.312 92.5108 424.481 94.8654 428.377 98.6367C428.413 98.6721 428.45 98.7076 428.486 98.7432C430.015 100.236 431.501 101.946 432.915 103.849C432.935 103.876 432.955 103.903 432.976 103.931C433.263 104.319 433.546 104.715 433.827 105.118C433.856 105.159 433.885 105.2 433.913 105.241C434.361 105.889 434.8 106.556 435.23 107.242C435.253 107.278 435.275 107.314 435.298 107.35C435.725 108.035 436.144 108.739 436.552 109.46C436.585 109.519 436.617 109.578 436.65 109.637C436.752 109.818 436.854 109.999 436.954 110.183C436.999 110.265 437.043 110.348 437.088 110.431C437.169 110.58 437.249 110.73 437.329 110.881C437.377 110.971 437.424 111.06 437.472 111.15C437.559 111.317 437.645 111.485 437.731 111.653C437.773 111.734 437.815 111.814 437.855 111.895C438.098 112.373 438.334 112.859 438.567 113.351C438.628 113.479 438.689 113.608 438.749 113.737C438.796 113.837 438.842 113.937 438.889 114.038C438.962 114.198 439.035 114.36 439.107 114.521C439.155 114.627 439.201 114.732 439.248 114.838C439.297 114.949 439.348 115.061 439.396 115.173C439.468 115.337 439.538 115.502 439.608 115.667C439.798 116.113 439.984 116.563 440.166 117.018C440.238 117.199 440.311 117.38 440.382 117.562C440.419 117.658 440.456 117.754 440.493 117.851C440.565 118.037 440.635 118.224 440.705 118.412C440.744 118.515 440.782 118.618 440.82 118.721C440.862 118.834 440.903 118.948 440.944 119.062C441.098 119.487 441.251 119.915 441.397 120.348C441.597 120.935 441.784 121.523 441.965 122.109C442.034 122.332 442.103 122.553 442.169 122.775C442.237 123.004 442.301 123.232 442.366 123.46C442.416 123.633 442.467 123.806 442.515 123.979C442.572 124.186 442.626 124.392 442.681 124.598C442.735 124.803 442.791 125.007 442.844 125.212C442.886 125.378 442.927 125.545 442.968 125.711C443.024 125.937 443.08 126.162 443.133 126.388C443.186 126.611 443.235 126.834 443.285 127.057C443.326 127.239 443.367 127.421 443.406 127.603C443.45 127.805 443.492 128.007 443.533 128.209C443.573 128.404 443.613 128.598 443.651 128.792C443.696 129.018 443.737 129.244 443.778 129.47C443.807 129.625 443.836 129.779 443.863 129.934C443.903 130.16 443.94 130.386 443.977 130.611C444.007 130.795 444.037 130.979 444.065 131.162C444.095 131.352 444.122 131.541 444.149 131.73C444.178 131.929 444.206 132.127 444.232 132.324C444.26 132.531 444.286 132.737 444.312 132.943C444.331 133.099 444.35 133.255 444.368 133.41C444.393 133.628 444.416 133.844 444.438 134.061C444.457 134.244 444.474 134.428 444.491 134.61C444.509 134.804 444.526 134.996 444.542 135.188C444.558 135.381 444.572 135.573 444.586 135.765C444.598 135.941 444.61 136.117 444.621 136.292C444.633 136.488 444.644 136.684 444.653 136.879C444.663 137.064 444.672 137.249 444.679 137.433C444.686 137.614 444.69 137.795 444.695 137.975C444.7 138.156 444.706 138.336 444.709 138.516C444.712 138.706 444.713 138.895 444.714 139.084C444.715 139.243 444.717 139.402 444.716 139.561C444.715 139.748 444.712 139.936 444.709 140.122C444.706 140.293 444.704 140.464 444.699 140.634C444.694 140.832 444.686 141.029 444.678 141.225C444.671 141.384 444.664 141.542 444.656 141.7C444.646 141.898 444.633 142.096 444.62 142.292C444.61 142.44 444.602 142.588 444.591 142.735C444.578 142.904 444.562 143.072 444.547 143.239C444.531 143.424 444.516 143.608 444.497 143.791C444.483 143.933 444.465 144.074 444.449 144.215C444.429 144.391 444.41 144.567 444.388 144.742C444.362 144.941 444.334 145.139 444.306 145.335C444.287 145.462 444.271 145.588 444.252 145.714C444.236 145.82 444.216 145.925 444.199 146.03C444.162 146.255 444.126 146.478 444.085 146.699C443.971 147.318 443.843 147.923 443.699 148.513C443.569 149.047 443.425 149.569 443.271 150.078C443.251 150.142 443.232 150.205 443.212 150.269C443.051 150.784 442.877 151.285 442.691 151.771C442.678 151.805 442.666 151.839 442.653 151.873C442.571 152.086 442.485 152.295 442.397 152.502C442.368 152.572 442.339 152.643 442.309 152.713C442.289 152.759 442.268 152.806 442.248 152.852C442.211 152.936 442.172 153.021 442.134 153.104C442.119 153.137 442.104 153.17 442.089 153.203C442.068 153.249 442.047 153.295 442.025 153.341L442.023 153.34C441.873 153.66 441.718 153.973 441.555 154.276C435.769 151.936 430.729 148.139 426.89 143.341C422.93 138.529 419.431 132.24 416.977 125.011C412.638 112.231 412.678 99.7936 416.347 92.0176Z" fill="#C6FF33"/>
<path fill-rule="evenodd" clip-rule="evenodd" d="M503.776 76.6533C513.872 76.6534 522.998 80.8026 529.545 87.4863C528.198 87.318 526.827 87.2295 525.438 87.2295C507.133 87.23 492.172 102.256 491.136 121.198C491.094 125.303 490.367 129.243 489.062 132.91C487.5 132.407 485.891 132.008 484.244 131.72C485.891 132.008 487.5 132.407 489.062 132.91C489.046 132.955 489.029 132.999 489.013 133.044C489.028 133 489.046 132.957 489.062 132.913H489.062C489.005 133.076 488.942 133.237 488.882 133.398C488.857 133.466 488.832 133.533 488.807 133.601C488.744 133.767 488.68 133.932 488.614 134.097C488.589 134.16 488.564 134.222 488.539 134.285C488.31 134.855 488.066 135.416 487.809 135.971C487.779 136.034 487.75 136.098 487.721 136.161C487.641 136.33 487.56 136.498 487.478 136.665C487.459 136.703 487.441 136.742 487.422 136.78C487.139 137.353 486.84 137.917 486.528 138.472C486.507 138.51 486.486 138.549 486.464 138.587C486.368 138.755 486.271 138.923 486.173 139.09C486.141 139.144 486.108 139.199 486.076 139.253C485.773 139.762 485.457 140.264 485.13 140.757C485.086 140.823 485.042 140.89 484.997 140.956C484.897 141.105 484.795 141.253 484.692 141.4C484.648 141.463 484.604 141.526 484.56 141.589C484.228 142.058 483.886 142.52 483.533 142.973C483.477 143.045 483.42 143.118 483.362 143.19C483.263 143.316 483.164 143.441 483.063 143.564C482.995 143.648 482.925 143.731 482.856 143.814C482.687 144.019 482.515 144.222 482.341 144.423C482.254 144.524 482.167 144.625 482.078 144.725C481.99 144.824 481.901 144.923 481.812 145.021C481.727 145.115 481.642 145.207 481.557 145.299C481.454 145.409 481.353 145.521 481.249 145.63C481.121 145.765 480.991 145.898 480.861 146.031C480.772 146.123 480.682 146.213 480.592 146.304C480.453 146.443 480.314 146.581 480.173 146.718C480.083 146.805 479.992 146.891 479.901 146.978C479.792 147.082 479.68 147.185 479.569 147.288C479.483 147.368 479.397 147.448 479.311 147.527C479.226 147.604 479.141 147.68 479.056 147.756C478.857 147.933 478.656 148.108 478.453 148.28C478.344 148.373 478.235 148.466 478.125 148.558C478.032 148.635 477.938 148.711 477.845 148.787C477.718 148.89 477.591 148.993 477.463 149.095C477.382 149.159 477.302 149.223 477.221 149.286C477.017 149.445 476.812 149.602 476.605 149.756C476.524 149.817 476.441 149.876 476.359 149.936C476.218 150.039 476.076 150.142 475.934 150.243C475.846 150.305 475.758 150.367 475.67 150.429C475.528 150.528 475.385 150.627 475.241 150.724C475.156 150.781 475.07 150.839 474.984 150.896C474.767 151.04 474.548 151.182 474.328 151.321C474.243 151.375 474.157 151.428 474.071 151.481C473.919 151.576 473.765 151.67 473.611 151.763C473.526 151.814 473.441 151.865 473.355 151.915C473.145 152.039 472.934 152.161 472.721 152.281C472.695 152.296 472.669 152.311 472.644 152.325C472.402 152.46 472.157 152.592 471.912 152.722C471.847 152.756 471.782 152.789 471.717 152.823C471.529 152.921 471.34 153.019 471.15 153.113C471.068 153.154 470.985 153.196 470.902 153.236C470.422 153.472 469.935 153.696 469.442 153.91C469.399 153.929 469.357 153.95 469.313 153.969L469.312 153.967C469.316 153.965 469.319 153.963 469.322 153.962C464.951 155.845 460.133 156.89 455.07 156.89C451.211 156.89 447.493 156.28 444.007 155.158C446.971 146.825 452.912 139.903 460.551 135.673L460.953 135.339C462.942 133.65 464.599 131.626 465.832 129.275C467.642 125.825 468.358 122.022 468.109 118.124C467.844 116.361 467.706 114.557 467.706 112.72C467.706 104.488 470.466 96.9021 475.107 90.832H475.108C481.7 82.2139 492.088 76.6535 503.776 76.6533ZM481.509 131.349C482.005 131.397 482.498 131.454 482.988 131.522C482.498 131.455 482.005 131.397 481.509 131.349Z" fill="#C6FF33"/>
<path d="M153.989 248.664V182.665H182.557C188.465 182.665 193.557 183.639 197.831 185.588C202.105 187.473 205.405 190.208 207.731 193.791C210.056 197.373 211.219 201.648 211.219 206.613C211.219 211.516 210.056 215.759 207.731 219.342C205.405 222.862 202.105 225.564 197.831 227.45C193.557 229.336 188.465 230.279 182.557 230.279H162.474L169.263 223.584V248.664H153.989ZM195.945 248.664L179.445 224.716H195.757L212.445 248.664H195.945ZM169.263 225.282L162.474 218.116H181.708C186.423 218.116 189.942 217.11 192.268 215.099C194.594 213.025 195.757 210.196 195.757 206.613C195.757 202.968 194.594 200.139 192.268 198.128C189.942 196.116 186.423 195.11 181.708 195.11H162.474L169.263 187.851V225.282ZM247.458 249.418C241.675 249.418 236.584 248.287 232.184 246.024C227.847 243.761 224.484 240.681 222.095 236.784C219.707 232.824 218.512 228.33 218.512 223.302C218.512 218.21 219.675 213.716 222.001 209.819C224.389 205.859 227.627 202.779 231.712 200.579C235.798 198.316 240.418 197.185 245.572 197.185C250.538 197.185 255 198.253 258.96 200.39C262.983 202.465 266.157 205.482 268.483 209.442C270.809 213.339 271.972 218.022 271.972 223.49C271.972 224.056 271.94 224.716 271.877 225.47C271.815 226.162 271.752 226.821 271.689 227.45H230.486V218.87H263.957L258.3 221.416C258.3 218.776 257.766 216.482 256.698 214.533C255.629 212.585 254.152 211.076 252.266 210.007C250.381 208.876 248.181 208.31 245.666 208.31C243.152 208.31 240.921 208.876 238.972 210.007C237.086 211.076 235.609 212.616 234.541 214.627C233.472 216.576 232.938 218.902 232.938 221.604V223.867C232.938 226.633 233.535 229.084 234.729 231.221C235.986 233.296 237.715 234.899 239.915 236.03C242.178 237.099 244.818 237.633 247.835 237.633C250.538 237.633 252.895 237.224 254.906 236.407C256.98 235.59 258.866 234.364 260.563 232.73L268.389 241.216C266.063 243.856 263.14 245.898 259.62 247.344C256.1 248.727 252.046 249.418 247.458 249.418ZM293.927 238.293L294.304 220.379L317.969 197.939H335.506L312.784 221.039L305.147 227.261L293.927 238.293ZM281.764 248.664V178.705H296.472V248.664H281.764ZM319.572 248.664L302.412 227.356L311.652 215.947L337.392 248.664H319.572ZM374.2 248.664V238.764L373.257 236.596V218.87C373.257 215.727 372.282 213.276 370.334 211.516C368.448 209.756 365.525 208.876 361.565 208.876C358.863 208.876 356.191 209.316 353.551 210.196C350.974 211.013 348.774 212.145 346.951 213.59L341.671 203.313C344.437 201.365 347.768 199.856 351.666 198.788C355.563 197.719 359.523 197.185 363.545 197.185C371.277 197.185 377.28 199.008 381.554 202.653C385.828 206.299 387.965 211.987 387.965 219.719V248.664H374.2ZM358.737 249.418C354.777 249.418 351.383 248.758 348.554 247.438C345.726 246.056 343.557 244.201 342.049 241.876C340.54 239.55 339.786 236.941 339.786 234.05C339.786 231.033 340.509 228.393 341.954 226.13C343.463 223.867 345.82 222.107 349.026 220.85C352.231 219.53 356.411 218.87 361.565 218.87H375.048V227.45H363.168C359.711 227.45 357.323 228.016 356.003 229.147C354.746 230.279 354.117 231.693 354.117 233.39C354.117 235.276 354.84 236.784 356.286 237.916C357.794 238.984 359.837 239.518 362.414 239.518C364.865 239.518 367.065 238.953 369.014 237.821C370.962 236.627 372.377 234.899 373.257 232.636L375.52 239.424C374.451 242.693 372.502 245.176 369.674 246.873C366.845 248.57 363.2 249.418 358.737 249.418ZM431.259 249.418C426.985 249.418 423.245 248.475 420.039 246.59C416.834 244.704 414.32 241.844 412.497 238.01C410.737 234.113 409.857 229.21 409.857 223.302C409.857 217.33 410.705 212.427 412.402 208.593C414.1 204.759 416.551 201.899 419.757 200.013C422.962 198.128 426.797 197.185 431.259 197.185C436.036 197.185 440.311 198.285 444.082 200.485C447.916 202.622 450.933 205.639 453.133 209.536C455.396 213.433 456.528 218.022 456.528 223.302C456.528 228.644 455.396 233.264 453.133 237.161C450.933 241.058 447.916 244.076 444.082 246.213C440.311 248.35 436.036 249.418 431.259 249.418ZM401.277 266.955V197.939H415.325V208.31L415.042 223.396L415.985 238.387V266.955H401.277ZM428.714 237.35C431.165 237.35 433.334 236.784 435.219 235.653C437.168 234.521 438.708 232.919 439.839 230.844C441.033 228.707 441.631 226.193 441.631 223.302C441.631 220.347 441.033 217.833 439.839 215.759C438.708 213.685 437.168 212.082 435.219 210.95C433.334 209.819 431.165 209.253 428.714 209.253C426.262 209.253 424.062 209.819 422.114 210.95C420.165 212.082 418.625 213.685 417.494 215.759C416.362 217.833 415.797 220.347 415.797 223.302C415.797 226.193 416.362 228.707 417.494 230.844C418.625 232.919 420.165 234.521 422.114 235.653C424.062 236.784 426.262 237.35 428.714 237.35ZM483.439 249.418C479.102 249.418 474.922 248.915 470.899 247.91C466.939 246.841 463.797 245.521 461.471 243.95L466.374 233.39C468.699 234.836 471.434 236.03 474.576 236.973C477.782 237.853 480.925 238.293 484.005 238.293C487.399 238.293 489.788 237.884 491.17 237.067C492.616 236.25 493.339 235.119 493.339 233.673C493.339 232.479 492.773 231.599 491.642 231.033C490.573 230.404 489.128 229.933 487.305 229.619C485.482 229.304 483.471 228.99 481.271 228.676C479.133 228.361 476.965 227.953 474.765 227.45C472.565 226.884 470.554 226.067 468.731 224.999C466.908 223.93 465.431 222.484 464.299 220.662C463.231 218.839 462.697 216.482 462.697 213.59C462.697 210.385 463.608 207.556 465.431 205.105C467.316 202.653 470.019 200.736 473.539 199.353C477.059 197.908 481.271 197.185 486.173 197.185C489.63 197.185 493.15 197.562 496.733 198.316C500.316 199.07 503.302 200.17 505.69 201.616L500.787 212.082C498.336 210.636 495.853 209.662 493.339 209.159C490.888 208.593 488.499 208.31 486.173 208.31C482.905 208.31 480.516 208.75 479.008 209.63C477.499 210.51 476.745 211.642 476.745 213.025C476.745 214.282 477.279 215.225 478.348 215.853C479.479 216.482 480.956 216.984 482.779 217.362C484.602 217.739 486.582 218.084 488.719 218.399C490.919 218.65 493.119 219.059 495.319 219.624C497.519 220.19 499.499 221.007 501.259 222.076C503.082 223.082 504.559 224.496 505.69 226.319C506.822 228.079 507.387 230.404 507.387 233.296C507.387 236.439 506.445 239.236 504.559 241.687C502.673 244.076 499.939 245.961 496.356 247.344C492.836 248.727 488.531 249.418 483.439 249.418ZM565.886 249.795C560.607 249.795 555.547 249.104 550.707 247.721C545.867 246.276 541.97 244.421 539.015 242.158L544.201 230.656C547.03 232.667 550.361 234.333 554.195 235.653C558.092 236.91 562.021 237.538 565.981 237.538C568.998 237.538 571.418 237.256 573.241 236.69C575.126 236.061 576.509 235.213 577.389 234.144C578.269 233.076 578.709 231.85 578.709 230.467C578.709 228.707 578.018 227.324 576.635 226.319C575.252 225.25 573.429 224.402 571.166 223.773C568.904 223.082 566.389 222.453 563.624 221.887C560.921 221.259 558.187 220.504 555.421 219.624C552.718 218.744 550.235 217.613 547.972 216.23C545.71 214.847 543.855 213.025 542.41 210.762C541.027 208.499 540.335 205.607 540.335 202.088C540.335 198.316 541.341 194.89 543.352 191.811C545.427 188.668 548.507 186.185 552.592 184.362C556.741 182.476 561.927 181.534 568.149 181.534C572.298 181.534 576.383 182.036 580.406 183.042C584.429 183.985 587.98 185.431 591.06 187.379L586.346 198.976C583.266 197.216 580.186 195.928 577.106 195.11C574.026 194.231 571.009 193.791 568.055 193.791C565.101 193.791 562.681 194.136 560.795 194.828C558.909 195.519 557.558 196.43 556.741 197.562C555.924 198.63 555.515 199.888 555.515 201.333C555.515 203.03 556.207 204.413 557.589 205.482C558.972 206.487 560.795 207.305 563.058 207.933C565.321 208.562 567.804 209.19 570.506 209.819C573.272 210.447 576.006 211.17 578.709 211.987C581.475 212.805 583.989 213.905 586.252 215.287C588.515 216.67 590.338 218.493 591.72 220.756C593.166 223.019 593.889 225.879 593.889 229.336C593.889 233.044 592.852 236.439 590.778 239.518C588.703 242.598 585.592 245.081 581.443 246.967C577.358 248.853 572.172 249.795 565.886 249.795ZM624.031 249.418C618.06 249.418 613.409 247.91 610.077 244.893C606.746 241.813 605.08 237.256 605.08 231.221V186.719H619.788V231.033C619.788 233.17 620.354 234.836 621.486 236.03C622.617 237.161 624.157 237.727 626.106 237.727C628.431 237.727 630.411 237.099 632.045 235.841L636.005 246.213C634.497 247.281 632.674 248.098 630.537 248.664C628.463 249.167 626.294 249.418 624.031 249.418ZM597.254 210.385V199.07H632.423V210.385H597.254ZM666.833 249.418C661.428 249.418 656.619 248.287 652.408 246.024C648.259 243.761 644.959 240.681 642.508 236.784C640.12 232.824 638.925 228.33 638.925 223.302C638.925 218.21 640.12 213.716 642.508 209.819C644.959 205.859 648.259 202.779 652.408 200.579C656.619 198.316 661.428 197.185 666.833 197.185C672.176 197.185 676.953 198.316 681.165 200.579C685.376 202.779 688.676 205.827 691.065 209.725C693.453 213.622 694.647 218.147 694.647 223.302C694.647 228.33 693.453 232.824 691.065 236.784C688.676 240.681 685.376 243.761 681.165 246.024C676.953 248.287 672.176 249.418 666.833 249.418ZM666.833 237.35C669.285 237.35 671.485 236.784 673.433 235.653C675.382 234.521 676.922 232.919 678.053 230.844C679.185 228.707 679.75 226.193 679.75 223.302C679.75 220.347 679.185 217.833 678.053 215.759C676.922 213.685 675.382 212.082 673.433 210.95C671.485 209.819 669.285 209.253 666.833 209.253C664.382 209.253 662.182 209.819 660.234 210.95C658.285 212.082 656.714 213.685 655.519 215.759C654.388 217.833 653.822 220.347 653.822 223.302C653.822 226.193 654.388 228.707 655.519 230.844C656.714 232.919 658.285 234.521 660.234 235.653C662.182 236.784 664.382 237.35 666.833 237.35ZM704.479 248.664V197.939H718.527V212.27L716.547 208.122C718.056 204.539 720.476 201.836 723.807 200.013C727.138 198.128 731.193 197.185 735.97 197.185V210.762C735.341 210.699 734.775 210.667 734.273 210.667C733.77 210.605 733.235 210.573 732.67 210.573C728.647 210.573 725.378 211.736 722.864 214.062C720.413 216.324 719.187 219.876 719.187 224.716V248.664H704.479ZM769.521 249.418C763.738 249.418 758.647 248.287 754.247 246.024C749.91 243.761 746.547 240.681 744.159 236.784C741.77 232.824 740.576 228.33 740.576 223.302C740.576 218.21 741.739 213.716 744.064 209.819C746.453 205.859 749.69 202.779 753.776 200.579C757.861 198.316 762.481 197.185 767.635 197.185C772.601 197.185 777.064 198.253 781.024 200.39C785.047 202.465 788.221 205.482 790.546 209.442C792.872 213.339 794.035 218.022 794.035 223.49C794.035 224.056 794.004 224.716 793.941 225.47C793.878 226.162 793.815 226.821 793.752 227.45H752.55V218.87H786.021L780.364 221.416C780.364 218.776 779.829 216.482 778.761 214.533C777.692 212.585 776.215 211.076 774.33 210.007C772.444 208.876 770.244 208.31 767.73 208.31C765.215 208.31 762.984 208.876 761.035 210.007C759.15 211.076 757.673 212.616 756.604 214.627C755.535 216.576 755.001 218.902 755.001 221.604V223.867C755.001 226.633 755.598 229.084 756.793 231.221C758.05 233.296 759.778 234.899 761.978 236.03C764.241 237.099 766.881 237.633 769.898 237.633C772.601 237.633 774.958 237.224 776.969 236.407C779.044 235.59 780.929 234.364 782.627 232.73L790.452 241.216C788.126 243.856 785.204 245.898 781.684 247.344C778.164 248.727 774.11 249.418 769.521 249.418Z" fill="#C6FF33"/>
<path d="M216.545 303.306V289.556H222.713C224.297 289.556 225.515 289.877 226.366 290.518C227.217 291.147 227.643 292.011 227.643 293.111C227.643 293.858 227.473 294.486 227.132 294.997C226.805 295.508 226.36 295.9 225.797 296.175C225.233 296.45 224.625 296.588 223.97 296.588L224.323 295.999C225.109 295.999 225.803 296.136 226.406 296.411C227.008 296.686 227.486 297.092 227.839 297.629C228.193 298.153 228.37 298.808 228.37 299.593C228.37 300.772 227.925 301.688 227.034 302.343C226.157 302.985 224.847 303.306 223.106 303.306H216.545ZM218.509 301.715H223.027C224.114 301.715 224.945 301.531 225.522 301.165C226.098 300.798 226.386 300.222 226.386 299.436C226.386 298.637 226.098 298.055 225.522 297.688C224.945 297.321 224.114 297.138 223.027 297.138H218.332V295.547H222.536C223.531 295.547 224.304 295.364 224.854 294.997C225.404 294.63 225.679 294.08 225.679 293.347C225.679 292.614 225.404 292.064 224.854 291.697C224.304 291.33 223.531 291.147 222.536 291.147H218.509V301.715ZM235.772 303.424C234.659 303.424 233.677 303.194 232.825 302.736C231.987 302.278 231.333 301.649 230.861 300.85C230.403 300.052 230.174 299.135 230.174 298.1C230.174 297.066 230.396 296.149 230.842 295.35C231.3 294.552 231.922 293.93 232.708 293.484C233.506 293.026 234.403 292.797 235.399 292.797C236.407 292.797 237.297 293.019 238.07 293.465C238.843 293.91 239.445 294.539 239.877 295.35C240.322 296.149 240.545 297.086 240.545 298.159C240.545 298.238 240.538 298.33 240.525 298.434C240.525 298.539 240.519 298.637 240.506 298.729H231.647V297.374H239.524L238.757 297.845C238.771 297.177 238.633 296.581 238.345 296.058C238.057 295.534 237.657 295.128 237.147 294.84C236.649 294.539 236.066 294.388 235.399 294.388C234.744 294.388 234.161 294.539 233.65 294.84C233.14 295.128 232.74 295.54 232.452 296.077C232.164 296.601 232.02 297.203 232.02 297.884V298.199C232.02 298.893 232.177 299.515 232.491 300.065C232.819 300.602 233.271 301.021 233.847 301.322C234.423 301.623 235.084 301.774 235.831 301.774C236.446 301.774 237.003 301.669 237.5 301.459C238.011 301.25 238.456 300.935 238.836 300.516L239.877 301.734C239.406 302.284 238.816 302.703 238.109 302.991C237.415 303.279 236.636 303.424 235.772 303.424ZM243.163 303.306V292.895H244.971V295.724L244.794 295.016C245.082 294.296 245.566 293.746 246.247 293.367C246.928 292.987 247.766 292.797 248.762 292.797V294.624C248.683 294.611 248.604 294.604 248.526 294.604C248.46 294.604 248.395 294.604 248.329 294.604C247.321 294.604 246.522 294.905 245.933 295.508C245.344 296.11 245.049 296.981 245.049 298.12V303.306H243.163ZM252.618 300.791L252.657 298.375L258.648 292.895H260.927L256.33 297.413L255.309 298.277L252.618 300.791ZM251.086 303.306V288.731H252.971V303.306H251.086ZM259.041 303.306L254.955 298.238L256.173 296.725L261.359 303.306H259.041ZM269.46 303.306V301.106L269.362 300.693V296.941C269.362 296.143 269.126 295.527 268.655 295.095C268.197 294.65 267.503 294.427 266.573 294.427C265.957 294.427 265.355 294.532 264.766 294.741C264.176 294.938 263.679 295.206 263.273 295.547L262.487 294.133C263.024 293.7 263.666 293.373 264.412 293.15C265.172 292.915 265.964 292.797 266.789 292.797C268.216 292.797 269.316 293.144 270.089 293.838C270.861 294.532 271.248 295.593 271.248 297.02V303.306H269.46ZM266.042 303.424C265.27 303.424 264.589 303.293 264 303.031C263.423 302.769 262.978 302.409 262.664 301.95C262.35 301.479 262.192 300.949 262.192 300.359C262.192 299.796 262.323 299.285 262.585 298.827C262.86 298.369 263.299 298.002 263.901 297.727C264.517 297.452 265.342 297.315 266.376 297.315H269.676V298.67H266.455C265.512 298.67 264.877 298.827 264.55 299.141C264.222 299.456 264.059 299.835 264.059 300.281C264.059 300.791 264.261 301.204 264.667 301.518C265.073 301.819 265.636 301.97 266.357 301.97C267.064 301.97 267.679 301.813 268.203 301.499C268.74 301.184 269.126 300.726 269.362 300.124L269.735 301.42C269.486 302.035 269.048 302.527 268.419 302.893C267.791 303.247 266.998 303.424 266.042 303.424ZM274.737 303.306V292.895H276.544V295.724L276.368 295.016C276.656 294.296 277.14 293.746 277.821 293.367C278.502 292.987 279.34 292.797 280.335 292.797V294.624C280.257 294.611 280.178 294.604 280.1 294.604C280.034 294.604 279.969 294.604 279.903 294.604C278.895 294.604 278.096 294.905 277.507 295.508C276.918 296.11 276.623 296.981 276.623 298.12V303.306H274.737ZM283.533 307.234C283.036 307.234 282.551 307.149 282.08 306.979C281.608 306.822 281.202 306.586 280.862 306.272L281.667 304.857C281.929 305.106 282.217 305.296 282.532 305.427C282.846 305.558 283.18 305.623 283.533 305.623C283.992 305.623 284.371 305.506 284.673 305.27C284.974 305.034 285.255 304.615 285.517 304.013L286.165 302.579L286.362 302.343L290.448 292.895H292.294L287.246 304.347C286.945 305.08 286.604 305.656 286.224 306.075C285.858 306.494 285.452 306.789 285.007 306.959C284.561 307.143 284.07 307.234 283.533 307.234ZM286.008 303.64L281.255 292.895H283.219L287.265 302.166L286.008 303.64ZM300.19 303.306V301.106L300.092 300.693V296.941C300.092 296.143 299.856 295.527 299.385 295.095C298.926 294.65 298.232 294.427 297.303 294.427C296.687 294.427 296.085 294.532 295.496 294.741C294.906 294.938 294.409 295.206 294.003 295.547L293.217 294.133C293.754 293.7 294.396 293.373 295.142 293.15C295.902 292.915 296.694 292.797 297.519 292.797C298.946 292.797 300.046 293.144 300.819 293.838C301.591 294.532 301.978 295.593 301.978 297.02V303.306H300.19ZM296.772 303.424C296 303.424 295.319 303.293 294.729 303.031C294.153 302.769 293.708 302.409 293.394 301.95C293.08 301.479 292.922 300.949 292.922 300.359C292.922 299.796 293.053 299.285 293.315 298.827C293.59 298.369 294.029 298.002 294.631 297.727C295.247 297.452 296.072 297.315 297.106 297.315H300.406V298.67H297.185C296.242 298.67 295.607 298.827 295.279 299.141C294.952 299.456 294.788 299.835 294.788 300.281C294.788 300.791 294.991 301.204 295.397 301.518C295.803 301.819 296.366 301.97 297.087 301.97C297.794 301.97 298.409 301.813 298.933 301.499C299.47 301.184 299.856 300.726 300.092 300.124L300.465 301.42C300.216 302.035 299.778 302.527 299.149 302.893C298.521 303.247 297.728 303.424 296.772 303.424ZM304.721 306.213L305.703 302.245L305.958 303.384C305.579 303.384 305.258 303.266 304.996 303.031C304.747 302.795 304.623 302.474 304.623 302.068C304.623 301.675 304.747 301.354 304.996 301.106C305.258 300.857 305.572 300.732 305.939 300.732C306.318 300.732 306.626 300.863 306.862 301.125C307.098 301.374 307.215 301.688 307.215 302.068C307.215 302.199 307.202 302.33 307.176 302.461C307.163 302.579 307.13 302.723 307.078 302.893C307.039 303.05 306.973 303.247 306.882 303.482L305.958 306.213H304.721ZM320.712 303.424C319.822 303.424 319.016 303.227 318.296 302.834C317.589 302.428 317.026 301.832 316.607 301.047C316.201 300.261 315.998 299.279 315.998 298.1C315.998 296.922 316.207 295.94 316.627 295.154C317.059 294.368 317.628 293.779 318.335 293.386C319.056 292.993 319.848 292.797 320.712 292.797C321.734 292.797 322.637 293.019 323.423 293.465C324.209 293.91 324.831 294.532 325.289 295.331C325.747 296.116 325.976 297.04 325.976 298.1C325.976 299.161 325.747 300.091 325.289 300.89C324.831 301.688 324.209 302.31 323.423 302.756C322.637 303.201 321.734 303.424 320.712 303.424ZM315.193 303.306V288.731H317.078V295.665L316.882 298.081L317 300.497V303.306H315.193ZM320.555 301.774C321.223 301.774 321.819 301.623 322.343 301.322C322.879 301.021 323.298 300.595 323.6 300.045C323.914 299.482 324.071 298.834 324.071 298.1C324.071 297.354 323.914 296.712 323.6 296.175C323.298 295.625 322.879 295.2 322.343 294.899C321.819 294.597 321.223 294.447 320.555 294.447C319.9 294.447 319.304 294.597 318.768 294.899C318.244 295.2 317.825 295.625 317.51 296.175C317.209 296.712 317.059 297.354 317.059 298.1C317.059 298.834 317.209 299.482 317.51 300.045C317.825 300.595 318.244 301.021 318.768 301.322C319.304 301.623 319.9 301.774 320.555 301.774ZM333.217 303.424C332.104 303.424 331.122 303.194 330.271 302.736C329.433 302.278 328.778 301.649 328.307 300.85C327.848 300.052 327.619 299.135 327.619 298.1C327.619 297.066 327.842 296.149 328.287 295.35C328.746 294.552 329.368 293.93 330.153 293.484C330.952 293.026 331.849 292.797 332.844 292.797C333.853 292.797 334.743 293.019 335.516 293.465C336.288 293.91 336.891 294.539 337.323 295.35C337.768 296.149 337.991 297.086 337.991 298.159C337.991 298.238 337.984 298.33 337.971 298.434C337.971 298.539 337.964 298.637 337.951 298.729H329.093V297.374H336.969L336.203 297.845C336.216 297.177 336.079 296.581 335.791 296.058C335.503 295.534 335.103 295.128 334.592 294.84C334.095 294.539 333.512 294.388 332.844 294.388C332.19 294.388 331.607 294.539 331.096 294.84C330.585 295.128 330.186 295.54 329.898 296.077C329.61 296.601 329.466 297.203 329.466 297.884V298.199C329.466 298.893 329.623 299.515 329.937 300.065C330.265 300.602 330.716 301.021 331.292 301.322C331.869 301.623 332.53 301.774 333.276 301.774C333.892 301.774 334.448 301.669 334.946 301.459C335.457 301.25 335.902 300.935 336.282 300.516L337.323 301.734C336.851 302.284 336.262 302.703 335.555 302.991C334.861 303.279 334.082 303.424 333.217 303.424ZM340.609 303.306V292.895H342.416V295.724L342.239 295.016C342.527 294.296 343.012 293.746 343.693 293.367C344.374 292.987 345.212 292.797 346.207 292.797V294.624C346.129 294.611 346.05 294.604 345.971 294.604C345.906 294.604 345.841 294.604 345.775 294.604C344.767 294.604 343.968 294.905 343.379 295.508C342.789 296.11 342.495 296.981 342.495 298.12V303.306H340.609ZM350.063 300.791L350.103 298.375L356.094 292.895H358.372L353.776 297.413L352.755 298.277L350.063 300.791ZM348.531 303.306V288.731H350.417V303.306H348.531ZM356.487 303.306L352.401 298.238L353.619 296.725L358.804 303.306H356.487ZM364.672 303.424C363.625 303.424 362.695 303.194 361.883 302.736C361.071 302.278 360.429 301.649 359.958 300.85C359.487 300.038 359.251 299.122 359.251 298.1C359.251 297.066 359.487 296.149 359.958 295.35C360.429 294.552 361.071 293.93 361.883 293.484C362.695 293.026 363.625 292.797 364.672 292.797C365.707 292.797 366.63 293.026 367.442 293.484C368.267 293.93 368.908 294.552 369.367 295.35C369.838 296.136 370.074 297.053 370.074 298.1C370.074 299.135 369.838 300.052 369.367 300.85C368.908 301.649 368.267 302.278 367.442 302.736C366.63 303.194 365.707 303.424 364.672 303.424ZM364.672 301.774C365.34 301.774 365.936 301.623 366.46 301.322C366.997 301.021 367.416 300.595 367.717 300.045C368.018 299.482 368.169 298.834 368.169 298.1C368.169 297.354 368.018 296.712 367.717 296.175C367.416 295.625 366.997 295.2 366.46 294.899C365.936 294.597 365.34 294.447 364.672 294.447C364.004 294.447 363.409 294.597 362.885 294.899C362.361 295.2 361.942 295.625 361.628 296.175C361.313 296.712 361.156 297.354 361.156 298.1C361.156 298.834 361.313 299.482 361.628 300.045C361.942 300.595 362.361 301.021 362.885 301.322C363.409 301.623 364.004 301.774 364.672 301.774ZM372.682 303.306V288.731H374.567V303.306H372.682ZM384.63 303.306V301.106L384.532 300.693V296.941C384.532 296.143 384.296 295.527 383.825 295.095C383.367 294.65 382.673 294.427 381.743 294.427C381.127 294.427 380.525 294.532 379.936 294.741C379.346 294.938 378.849 295.206 378.443 295.547L377.657 294.133C378.194 293.7 378.836 293.373 379.582 293.15C380.342 292.915 381.134 292.797 381.959 292.797C383.386 292.797 384.486 293.144 385.259 293.838C386.031 294.532 386.418 295.593 386.418 297.02V303.306H384.63ZM381.212 303.424C380.44 303.424 379.759 303.293 379.17 303.031C378.593 302.769 378.148 302.409 377.834 301.95C377.52 301.479 377.363 300.949 377.363 300.359C377.363 299.796 377.493 299.285 377.755 298.827C378.03 298.369 378.469 298.002 379.071 297.727C379.687 297.452 380.512 297.315 381.546 297.315H384.846V298.67H381.625C380.682 298.67 380.047 298.827 379.72 299.141C379.392 299.456 379.229 299.835 379.229 300.281C379.229 300.791 379.432 301.204 379.837 301.518C380.243 301.819 380.807 301.97 381.527 301.97C382.234 301.97 382.849 301.813 383.373 301.499C383.91 301.184 384.296 300.726 384.532 300.124L384.905 301.42C384.656 302.035 384.218 302.527 383.589 302.893C382.961 303.247 382.168 303.424 381.212 303.424ZM395.427 303.424C394.537 303.424 393.731 303.227 393.011 302.834C392.304 302.428 391.741 301.832 391.322 301.047C390.916 300.261 390.713 299.279 390.713 298.1C390.713 296.922 390.922 295.94 391.341 295.154C391.773 294.368 392.343 293.779 393.05 293.386C393.77 292.993 394.563 292.797 395.427 292.797C396.448 292.797 397.352 293.019 398.138 293.465C398.923 293.91 399.545 294.532 400.004 295.331C400.462 296.116 400.691 297.04 400.691 298.1C400.691 299.161 400.462 300.091 400.004 300.89C399.545 301.688 398.923 302.31 398.138 302.756C397.352 303.201 396.448 303.424 395.427 303.424ZM389.907 303.306V288.731H391.793V295.665L391.597 298.081L391.715 300.497V303.306H389.907ZM395.27 301.774C395.938 301.774 396.534 301.623 397.057 301.322C397.594 301.021 398.013 300.595 398.314 300.045C398.629 299.482 398.786 298.834 398.786 298.1C398.786 297.354 398.629 296.712 398.314 296.175C398.013 295.625 397.594 295.2 397.057 294.899C396.534 294.597 395.938 294.447 395.27 294.447C394.615 294.447 394.019 294.597 393.482 294.899C392.959 295.2 392.54 295.625 392.225 296.175C391.924 296.712 391.773 297.354 391.773 298.1C391.773 298.834 391.924 299.482 392.225 300.045C392.54 300.595 392.959 301.021 393.482 301.322C394.019 301.623 394.615 301.774 395.27 301.774ZM407.755 303.424C406.708 303.424 405.778 303.194 404.966 302.736C404.154 302.278 403.513 301.649 403.041 300.85C402.57 300.038 402.334 299.122 402.334 298.1C402.334 297.066 402.57 296.149 403.041 295.35C403.513 294.552 404.154 293.93 404.966 293.484C405.778 293.026 406.708 292.797 407.755 292.797C408.79 292.797 409.713 293.026 410.525 293.484C411.35 293.93 411.992 294.552 412.45 295.35C412.921 296.136 413.157 297.053 413.157 298.1C413.157 299.135 412.921 300.052 412.45 300.85C411.992 301.649 411.35 302.278 410.525 302.736C409.713 303.194 408.79 303.424 407.755 303.424ZM407.755 301.774C408.423 301.774 409.019 301.623 409.543 301.322C410.08 301.021 410.499 300.595 410.8 300.045C411.101 299.482 411.252 298.834 411.252 298.1C411.252 297.354 411.101 296.712 410.8 296.175C410.499 295.625 410.08 295.2 409.543 294.899C409.019 294.597 408.423 294.447 407.755 294.447C407.088 294.447 406.492 294.597 405.968 294.899C405.444 295.2 405.025 295.625 404.711 296.175C404.397 296.712 404.239 297.354 404.239 298.1C404.239 298.834 404.397 299.482 404.711 300.045C405.025 300.595 405.444 301.021 405.968 301.322C406.492 301.623 407.088 301.774 407.755 301.774ZM415.765 303.306V292.895H417.572V295.724L417.395 295.016C417.683 294.296 418.168 293.746 418.849 293.367C419.53 292.987 420.368 292.797 421.363 292.797V294.624C421.285 294.611 421.206 294.604 421.127 294.604C421.062 294.604 420.996 294.604 420.931 294.604C419.923 294.604 419.124 294.905 418.535 295.508C417.945 296.11 417.651 296.981 417.651 298.12V303.306H415.765ZM429.382 303.306V301.106L429.284 300.693V296.941C429.284 296.143 429.048 295.527 428.577 295.095C428.119 294.65 427.425 294.427 426.495 294.427C425.879 294.427 425.277 294.532 424.688 294.741C424.099 294.938 423.601 295.206 423.195 295.547L422.409 294.133C422.946 293.7 423.588 293.373 424.334 293.15C425.094 292.915 425.886 292.797 426.711 292.797C428.138 292.797 429.238 293.144 430.011 293.838C430.784 294.532 431.17 295.593 431.17 297.02V303.306H429.382ZM425.965 303.424C425.192 303.424 424.511 303.293 423.922 303.031C423.346 302.769 422.9 302.409 422.586 301.95C422.272 301.479 422.115 300.949 422.115 300.359C422.115 299.796 422.246 299.285 422.507 298.827C422.782 298.369 423.221 298.002 423.824 297.727C424.439 297.452 425.264 297.315 426.299 297.315H429.598V298.67H426.377C425.434 298.67 424.799 298.827 424.472 299.141C424.144 299.456 423.981 299.835 423.981 300.281C423.981 300.791 424.184 301.204 424.59 301.518C424.996 301.819 425.559 301.97 426.279 301.97C426.986 301.97 427.601 301.813 428.125 301.499C428.662 301.184 429.048 300.726 429.284 300.124L429.657 301.42C429.409 302.035 428.97 302.527 428.341 302.893C427.713 303.247 426.921 303.424 425.965 303.424ZM437.645 303.424C436.781 303.424 435.956 303.306 435.17 303.07C434.398 302.834 433.789 302.546 433.343 302.206L434.129 300.713C434.574 301.014 435.124 301.269 435.779 301.479C436.434 301.688 437.102 301.793 437.783 301.793C438.66 301.793 439.289 301.669 439.668 301.42C440.061 301.171 440.258 300.824 440.258 300.379C440.258 300.052 440.14 299.796 439.904 299.613C439.668 299.43 439.354 299.292 438.961 299.2C438.581 299.109 438.156 299.03 437.684 298.965C437.213 298.886 436.742 298.794 436.27 298.69C435.799 298.572 435.367 298.415 434.974 298.218C434.581 298.009 434.267 297.727 434.031 297.374C433.795 297.007 433.677 296.522 433.677 295.92C433.677 295.291 433.854 294.741 434.208 294.27C434.561 293.799 435.059 293.439 435.701 293.19C436.355 292.928 437.128 292.797 438.018 292.797C438.699 292.797 439.387 292.882 440.081 293.052C440.788 293.209 441.364 293.439 441.809 293.74L441.004 295.233C440.533 294.918 440.042 294.702 439.531 294.584C439.02 294.466 438.509 294.408 437.999 294.408C437.174 294.408 436.558 294.545 436.152 294.82C435.746 295.082 435.543 295.422 435.543 295.841C435.543 296.195 435.661 296.47 435.897 296.666C436.146 296.85 436.46 296.994 436.84 297.099C437.233 297.203 437.665 297.295 438.136 297.374C438.608 297.439 439.079 297.531 439.55 297.649C440.022 297.753 440.448 297.904 440.827 298.1C441.22 298.297 441.534 298.572 441.77 298.925C442.019 299.279 442.143 299.75 442.143 300.34C442.143 300.968 441.96 301.512 441.593 301.97C441.227 302.428 440.709 302.788 440.042 303.05C439.374 303.299 438.575 303.424 437.645 303.424ZM444.5 303.306V292.895H446.386V303.306H444.5ZM445.443 290.892C445.076 290.892 444.768 290.774 444.52 290.538C444.284 290.302 444.166 290.014 444.166 289.674C444.166 289.32 444.284 289.025 444.52 288.79C444.768 288.554 445.076 288.436 445.443 288.436C445.81 288.436 446.111 288.554 446.346 288.79C446.595 289.012 446.72 289.294 446.72 289.634C446.72 289.988 446.602 290.289 446.366 290.538C446.13 290.774 445.823 290.892 445.443 290.892ZM449.24 306.213L450.222 302.245L450.477 303.384C450.097 303.384 449.777 303.266 449.515 303.031C449.266 302.795 449.141 302.474 449.141 302.068C449.141 301.675 449.266 301.354 449.515 301.106C449.777 300.857 450.091 300.732 450.458 300.732C450.837 300.732 451.145 300.863 451.381 301.125C451.616 301.374 451.734 301.688 451.734 302.068C451.734 302.199 451.721 302.33 451.695 302.461C451.682 302.579 451.649 302.723 451.597 302.893C451.557 303.05 451.492 303.247 451.4 303.482L450.477 306.213H449.24ZM464.013 303.424C463.005 303.424 462.101 303.201 461.303 302.756C460.517 302.31 459.895 301.688 459.436 300.89C458.978 300.091 458.749 299.161 458.749 298.1C458.749 297.04 458.978 296.116 459.436 295.331C459.895 294.532 460.517 293.91 461.303 293.465C462.101 293.019 463.005 292.797 464.013 292.797C464.891 292.797 465.683 292.993 466.39 293.386C467.097 293.779 467.66 294.368 468.079 295.154C468.511 295.94 468.727 296.922 468.727 298.1C468.727 299.279 468.518 300.261 468.099 301.047C467.693 301.832 467.136 302.428 466.429 302.834C465.722 303.227 464.917 303.424 464.013 303.424ZM464.17 301.774C464.825 301.774 465.414 301.623 465.938 301.322C466.475 301.021 466.894 300.595 467.195 300.045C467.51 299.482 467.667 298.834 467.667 298.1C467.667 297.354 467.51 296.712 467.195 296.175C466.894 295.625 466.475 295.2 465.938 294.899C465.414 294.597 464.825 294.447 464.17 294.447C463.503 294.447 462.907 294.597 462.383 294.899C461.859 295.2 461.44 295.625 461.126 296.175C460.811 296.712 460.654 297.354 460.654 298.1C460.654 298.834 460.811 299.482 461.126 300.045C461.44 300.595 461.859 301.021 462.383 301.322C462.907 301.623 463.503 301.774 464.17 301.774ZM467.726 303.306V300.497L467.844 298.081L467.647 295.665V288.731H469.533V303.306H467.726ZM479.563 303.306V301.106L479.465 300.693V296.941C479.465 296.143 479.229 295.527 478.758 295.095C478.299 294.65 477.605 294.427 476.676 294.427C476.06 294.427 475.458 294.532 474.869 294.741C474.279 294.938 473.782 295.206 473.376 295.547L472.59 294.133C473.127 293.7 473.769 293.373 474.515 293.15C475.274 292.915 476.067 292.797 476.892 292.797C478.319 292.797 479.419 293.144 480.192 293.838C480.964 294.532 481.351 295.593 481.351 297.02V303.306H479.563ZM476.145 303.424C475.373 303.424 474.692 303.293 474.102 303.031C473.526 302.769 473.081 302.409 472.767 301.95C472.452 301.479 472.295 300.949 472.295 300.359C472.295 299.796 472.426 299.285 472.688 298.827C472.963 298.369 473.402 298.002 474.004 297.727C474.62 297.452 475.445 297.315 476.479 297.315H479.779V298.67H476.558C475.615 298.67 474.98 298.827 474.652 299.141C474.325 299.456 474.161 299.835 474.161 300.281C474.161 300.791 474.364 301.204 474.77 301.518C475.176 301.819 475.739 301.97 476.46 301.97C477.167 301.97 477.782 301.813 478.306 301.499C478.843 301.184 479.229 300.726 479.465 300.124L479.838 301.42C479.589 302.035 479.151 302.527 478.522 302.893C477.893 303.247 477.101 303.424 476.145 303.424ZM490.399 292.797C491.25 292.797 491.997 292.961 492.638 293.288C493.293 293.615 493.804 294.113 494.17 294.781C494.537 295.449 494.72 296.293 494.72 297.315V303.306H492.835V297.531C492.835 296.522 492.586 295.763 492.088 295.252C491.604 294.741 490.916 294.486 490.026 294.486C489.358 294.486 488.775 294.617 488.278 294.879C487.78 295.141 487.394 295.527 487.119 296.038C486.857 296.549 486.726 297.184 486.726 297.943V303.306H484.84V292.895H486.647V295.704L486.353 294.958C486.693 294.277 487.217 293.746 487.924 293.367C488.631 292.987 489.456 292.797 490.399 292.797ZM509.005 303.424C508.114 303.424 507.309 303.227 506.589 302.834C505.882 302.428 505.319 301.832 504.9 301.047C504.494 300.261 504.291 299.279 504.291 298.1C504.291 296.922 504.5 295.94 504.919 295.154C505.351 294.368 505.921 293.779 506.628 293.386C507.348 292.993 508.141 292.797 509.005 292.797C510.026 292.797 510.93 293.019 511.716 293.465C512.501 293.91 513.123 294.532 513.582 295.331C514.04 296.116 514.269 297.04 514.269 298.1C514.269 299.161 514.04 300.091 513.582 300.89C513.123 301.688 512.501 302.31 511.716 302.756C510.93 303.201 510.026 303.424 509.005 303.424ZM503.485 303.306V288.731H505.371V295.665L505.175 298.081L505.292 300.497V303.306H503.485ZM508.848 301.774C509.516 301.774 510.111 301.623 510.635 301.322C511.172 301.021 511.591 300.595 511.892 300.045C512.207 299.482 512.364 298.834 512.364 298.1C512.364 297.354 512.207 296.712 511.892 296.175C511.591 295.625 511.172 295.2 510.635 294.899C510.111 294.597 509.516 294.447 508.848 294.447C508.193 294.447 507.597 294.597 507.06 294.899C506.536 295.2 506.117 295.625 505.803 296.175C505.502 296.712 505.351 297.354 505.351 298.1C505.351 298.834 505.502 299.482 505.803 300.045C506.117 300.595 506.536 301.021 507.06 301.322C507.597 301.623 508.193 301.774 508.848 301.774ZM521.51 303.424C520.397 303.424 519.415 303.194 518.564 302.736C517.726 302.278 517.071 301.649 516.6 300.85C516.141 300.052 515.912 299.135 515.912 298.1C515.912 297.066 516.135 296.149 516.58 295.35C517.038 294.552 517.66 293.93 518.446 293.484C519.245 293.026 520.142 292.797 521.137 292.797C522.145 292.797 523.036 293.019 523.808 293.465C524.581 293.91 525.183 294.539 525.615 295.35C526.061 296.149 526.283 297.086 526.283 298.159C526.283 298.238 526.277 298.33 526.264 298.434C526.264 298.539 526.257 298.637 526.244 298.729H517.385V297.374H525.262L524.496 297.845C524.509 297.177 524.371 296.581 524.083 296.058C523.795 295.534 523.396 295.128 522.885 294.84C522.388 294.539 521.805 294.388 521.137 294.388C520.482 294.388 519.899 294.539 519.389 294.84C518.878 295.128 518.479 295.54 518.191 296.077C517.902 296.601 517.758 297.203 517.758 297.884V298.199C517.758 298.893 517.916 299.515 518.23 300.065C518.557 300.602 519.009 301.021 519.585 301.322C520.161 301.623 520.823 301.774 521.569 301.774C522.185 301.774 522.741 301.669 523.239 301.459C523.749 301.25 524.195 300.935 524.574 300.516L525.615 301.734C525.144 302.284 524.555 302.703 523.848 302.991C523.154 303.279 522.374 303.424 521.51 303.424ZM528.902 303.306V292.895H530.709V295.724L530.532 295.016C530.82 294.296 531.305 293.746 531.986 293.367C532.667 292.987 533.505 292.797 534.5 292.797V294.624C534.421 294.611 534.343 294.604 534.264 294.604C534.199 294.604 534.133 294.604 534.068 294.604C533.059 294.604 532.261 294.905 531.671 295.508C531.082 296.11 530.787 296.981 530.787 298.12V303.306H528.902ZM538.356 300.791L538.395 298.375L544.386 292.895H546.665L542.069 297.413L541.047 298.277L538.356 300.791ZM536.824 303.306V288.731H538.71V303.306H536.824ZM544.779 303.306L540.694 298.238L541.911 296.725L547.097 303.306H544.779ZM553.142 303.424C552.029 303.424 551.046 303.194 550.195 302.736C549.357 302.278 548.702 301.649 548.231 300.85C547.773 300.052 547.543 299.135 547.543 298.1C547.543 297.066 547.766 296.149 548.211 295.35C548.67 294.552 549.292 293.93 550.077 293.484C550.876 293.026 551.773 292.797 552.768 292.797C553.777 292.797 554.667 293.019 555.44 293.465C556.212 293.91 556.815 294.539 557.247 295.35C557.692 296.149 557.915 297.086 557.915 298.159C557.915 298.238 557.908 298.33 557.895 298.434C557.895 298.539 557.889 298.637 557.875 298.729H549.017V297.374H556.893L556.127 297.845C556.14 297.177 556.003 296.581 555.715 296.058C555.427 295.534 555.027 295.128 554.517 294.84C554.019 294.539 553.436 294.388 552.768 294.388C552.114 294.388 551.531 294.539 551.02 294.84C550.51 295.128 550.11 295.54 549.822 296.077C549.534 296.601 549.39 297.203 549.39 297.884V298.199C549.39 298.893 549.547 299.515 549.861 300.065C550.189 300.602 550.64 301.021 551.217 301.322C551.793 301.623 552.454 301.774 553.201 301.774C553.816 301.774 554.373 301.669 554.87 301.459C555.381 301.25 555.826 300.935 556.206 300.516L557.247 301.734C556.776 302.284 556.186 302.703 555.479 302.991C554.785 303.279 554.006 303.424 553.142 303.424ZM573.556 292.797C574.394 292.797 575.134 292.961 575.776 293.288C576.418 293.615 576.915 294.113 577.269 294.781C577.635 295.449 577.819 296.293 577.819 297.315V303.306H575.933V297.531C575.933 296.522 575.697 295.763 575.226 295.252C574.754 294.741 574.093 294.486 573.242 294.486C572.613 294.486 572.063 294.617 571.592 294.879C571.121 295.141 570.754 295.527 570.492 296.038C570.243 296.549 570.119 297.184 570.119 297.943V303.306H568.233V297.531C568.233 296.522 567.997 295.763 567.526 295.252C567.068 294.741 566.406 294.486 565.542 294.486C564.927 294.486 564.383 294.617 563.912 294.879C563.44 295.141 563.074 295.527 562.812 296.038C562.55 296.549 562.419 297.184 562.419 297.943V303.306H560.533V292.895H562.34V295.665L562.046 294.958C562.373 294.277 562.877 293.746 563.558 293.367C564.239 292.987 565.031 292.797 565.935 292.797C566.93 292.797 567.788 293.046 568.508 293.543C569.228 294.028 569.7 294.768 569.922 295.763L569.156 295.449C569.471 294.65 570.021 294.008 570.806 293.524C571.592 293.039 572.509 292.797 573.556 292.797ZM586.808 303.424C585.917 303.424 585.112 303.227 584.392 302.834C583.685 302.428 583.122 301.832 582.703 301.047C582.297 300.261 582.094 299.279 582.094 298.1C582.094 296.922 582.303 295.94 582.722 295.154C583.154 294.368 583.724 293.779 584.431 293.386C585.151 292.993 585.944 292.797 586.808 292.797C587.829 292.797 588.733 293.019 589.519 293.465C590.304 293.91 590.926 294.532 591.385 295.331C591.843 296.116 592.072 297.04 592.072 298.1C592.072 299.161 591.843 300.091 591.385 300.89C590.926 301.688 590.304 302.31 589.519 302.756C588.733 303.201 587.829 303.424 586.808 303.424ZM581.288 303.306V288.731H583.174V295.665L582.978 298.081L583.096 300.497V303.306H581.288ZM586.651 301.774C587.319 301.774 587.914 301.623 588.438 301.322C588.975 301.021 589.394 300.595 589.695 300.045C590.01 299.482 590.167 298.834 590.167 298.1C590.167 297.354 590.01 296.712 589.695 296.175C589.394 295.625 588.975 295.2 588.438 294.899C587.914 294.597 587.319 294.447 586.651 294.447C585.996 294.447 585.4 294.597 584.863 294.899C584.34 295.2 583.92 295.625 583.606 296.175C583.305 296.712 583.154 297.354 583.154 298.1C583.154 298.834 583.305 299.482 583.606 300.045C583.92 300.595 584.34 301.021 584.863 301.322C585.4 301.623 585.996 301.774 586.651 301.774ZM601.044 303.306V301.106L600.946 300.693V296.941C600.946 296.143 600.71 295.527 600.239 295.095C599.78 294.65 599.086 294.427 598.157 294.427C597.541 294.427 596.939 294.532 596.349 294.741C595.76 294.938 595.263 295.206 594.857 295.547L594.071 294.133C594.608 293.7 595.25 293.373 595.996 293.15C596.755 292.915 597.548 292.797 598.373 292.797C599.8 292.797 600.9 293.144 601.673 293.838C602.445 294.532 602.832 295.593 602.832 297.02V303.306H601.044ZM597.626 303.424C596.854 303.424 596.173 303.293 595.583 303.031C595.007 302.769 594.562 302.409 594.248 301.95C593.933 301.479 593.776 300.949 593.776 300.359C593.776 299.796 593.907 299.285 594.169 298.827C594.444 298.369 594.883 298.002 595.485 297.727C596.101 297.452 596.926 297.315 597.96 297.315H601.26V298.67H598.039C597.096 298.67 596.461 298.827 596.133 299.141C595.806 299.456 595.642 299.835 595.642 300.281C595.642 300.791 595.845 301.204 596.251 301.518C596.657 301.819 597.22 301.97 597.941 301.97C598.648 301.97 599.263 301.813 599.787 301.499C600.324 301.184 600.71 300.726 600.946 300.124L601.319 301.42C601.07 302.035 600.632 302.527 600.003 302.893C599.374 303.247 598.582 303.424 597.626 303.424ZM611.88 292.797C612.731 292.797 613.478 292.961 614.119 293.288C614.774 293.615 615.285 294.113 615.651 294.781C616.018 295.449 616.201 296.293 616.201 297.315V303.306H614.316V297.531C614.316 296.522 614.067 295.763 613.569 295.252C613.085 294.741 612.397 294.486 611.507 294.486C610.839 294.486 610.256 294.617 609.759 294.879C609.261 295.141 608.875 295.527 608.6 296.038C608.338 296.549 608.207 297.184 608.207 297.943V303.306H606.321V292.895H608.128V295.704L607.834 294.958C608.174 294.277 608.698 293.746 609.405 293.367C610.112 292.987 610.937 292.797 611.88 292.797ZM624.248 307.234C623.292 307.234 622.363 307.097 621.459 306.822C620.569 306.56 619.842 306.18 619.279 305.682L620.182 304.229C620.667 304.648 621.263 304.975 621.97 305.211C622.677 305.46 623.417 305.584 624.189 305.584C625.42 305.584 626.324 305.296 626.9 304.72C627.476 304.144 627.764 303.266 627.764 302.088V299.888L627.961 297.825L627.862 295.743V292.895H629.65V301.891C629.65 303.725 629.192 305.073 628.275 305.938C627.358 306.802 626.016 307.234 624.248 307.234ZM624.013 302.874C623.004 302.874 622.101 302.664 621.302 302.245C620.516 301.813 619.888 301.217 619.416 300.457C618.958 299.698 618.729 298.821 618.729 297.825C618.729 296.817 618.958 295.94 619.416 295.193C619.888 294.434 620.516 293.844 621.302 293.425C622.101 293.006 623.004 292.797 624.013 292.797C624.903 292.797 625.715 292.98 626.448 293.347C627.182 293.7 627.764 294.25 628.196 294.997C628.642 295.743 628.864 296.686 628.864 297.825C628.864 298.952 628.642 299.888 628.196 300.634C627.764 301.381 627.182 301.944 626.448 302.324C625.715 302.69 624.903 302.874 624.013 302.874ZM624.229 301.224C624.923 301.224 625.538 301.08 626.075 300.791C626.612 300.503 627.031 300.104 627.332 299.593C627.646 299.083 627.804 298.493 627.804 297.825C627.804 297.158 627.646 296.568 627.332 296.058C627.031 295.547 626.612 295.154 626.075 294.879C625.538 294.591 624.923 294.447 624.229 294.447C623.535 294.447 622.913 294.591 622.363 294.879C621.826 295.154 621.4 295.547 621.086 296.058C620.785 296.568 620.634 297.158 620.634 297.825C620.634 298.493 620.785 299.083 621.086 299.593C621.4 300.104 621.826 300.503 622.363 300.791C622.913 301.08 623.535 301.224 624.229 301.224ZM644.048 303.424C643.157 303.424 642.352 303.227 641.632 302.834C640.925 302.428 640.361 301.832 639.942 301.047C639.536 300.261 639.333 299.279 639.333 298.1C639.333 296.922 639.543 295.94 639.962 295.154C640.394 294.368 640.964 293.779 641.671 293.386C642.391 292.993 643.183 292.797 644.048 292.797C645.069 292.797 645.973 293.019 646.758 293.465C647.544 293.91 648.166 294.532 648.624 295.331C649.083 296.116 649.312 297.04 649.312 298.1C649.312 299.161 649.083 300.091 648.624 300.89C648.166 301.688 647.544 302.31 646.758 302.756C645.973 303.201 645.069 303.424 644.048 303.424ZM638.528 303.306V288.731H640.414V295.665L640.217 298.081L640.335 300.497V303.306H638.528ZM643.891 301.774C644.558 301.774 645.154 301.623 645.678 301.322C646.215 301.021 646.634 300.595 646.935 300.045C647.249 299.482 647.407 298.834 647.407 298.1C647.407 297.354 647.249 296.712 646.935 296.175C646.634 295.625 646.215 295.2 645.678 294.899C645.154 294.597 644.558 294.447 643.891 294.447C643.236 294.447 642.64 294.597 642.103 294.899C641.579 295.2 641.16 295.625 640.846 296.175C640.545 296.712 640.394 297.354 640.394 298.1C640.394 298.834 640.545 299.482 640.846 300.045C641.16 300.595 641.579 301.021 642.103 301.322C642.64 301.623 643.236 301.774 643.891 301.774ZM656.553 303.424C655.44 303.424 654.458 303.194 653.607 302.736C652.769 302.278 652.114 301.649 651.642 300.85C651.184 300.052 650.955 299.135 650.955 298.1C650.955 297.066 651.177 296.149 651.623 295.35C652.081 294.552 652.703 293.93 653.489 293.484C654.288 293.026 655.185 292.797 656.18 292.797C657.188 292.797 658.079 293.019 658.851 293.465C659.624 293.91 660.226 294.539 660.658 295.35C661.104 296.149 661.326 297.086 661.326 298.159C661.326 298.238 661.32 298.33 661.307 298.434C661.307 298.539 661.3 298.637 661.287 298.729H652.428V297.374H660.305L659.539 297.845C659.552 297.177 659.414 296.581 659.126 296.058C658.838 295.534 658.439 295.128 657.928 294.84C657.43 294.539 656.848 294.388 656.18 294.388C655.525 294.388 654.942 294.539 654.432 294.84C653.921 295.128 653.522 295.54 653.233 296.077C652.945 296.601 652.801 297.203 652.801 297.884V298.199C652.801 298.893 652.958 299.515 653.273 300.065C653.6 300.602 654.052 301.021 654.628 301.322C655.204 301.623 655.866 301.774 656.612 301.774C657.227 301.774 657.784 301.669 658.282 301.459C658.792 301.25 659.237 300.935 659.617 300.516L660.658 301.734C660.187 302.284 659.598 302.703 658.89 302.991C658.196 303.279 657.417 303.424 656.553 303.424ZM663.945 303.306V292.895H665.752V295.724L665.575 295.016C665.863 294.296 666.348 293.746 667.028 293.367C667.709 292.987 668.547 292.797 669.543 292.797V294.624C669.464 294.611 669.386 294.604 669.307 294.604C669.242 294.604 669.176 294.604 669.111 294.604C668.102 294.604 667.303 294.905 666.714 295.508C666.125 296.11 665.83 296.981 665.83 298.12V303.306H663.945ZM674.968 303.424C674.103 303.424 673.278 303.306 672.493 303.07C671.72 302.834 671.111 302.546 670.666 302.206L671.452 300.713C671.897 301.014 672.447 301.269 673.102 301.479C673.756 301.688 674.424 301.793 675.105 301.793C675.982 301.793 676.611 301.669 676.991 301.42C677.384 301.171 677.58 300.824 677.58 300.379C677.58 300.052 677.462 299.796 677.227 299.613C676.991 299.43 676.677 299.292 676.284 299.2C675.904 299.109 675.478 299.03 675.007 298.965C674.535 298.886 674.064 298.794 673.593 298.69C673.121 298.572 672.689 298.415 672.296 298.218C671.903 298.009 671.589 297.727 671.353 297.374C671.118 297.007 671 296.522 671 295.92C671 295.291 671.177 294.741 671.53 294.27C671.884 293.799 672.381 293.439 673.023 293.19C673.678 292.928 674.45 292.797 675.341 292.797C676.022 292.797 676.709 292.882 677.403 293.052C678.11 293.209 678.687 293.439 679.132 293.74L678.326 295.233C677.855 294.918 677.364 294.702 676.853 294.584C676.343 294.466 675.832 294.408 675.321 294.408C674.496 294.408 673.881 294.545 673.475 294.82C673.069 295.082 672.866 295.422 672.866 295.841C672.866 296.195 672.984 296.47 673.219 296.666C673.468 296.85 673.783 296.994 674.162 297.099C674.555 297.203 674.987 297.295 675.459 297.374C675.93 297.439 676.402 297.531 676.873 297.649C677.344 297.753 677.77 297.904 678.15 298.1C678.543 298.297 678.857 298.572 679.093 298.925C679.341 299.279 679.466 299.75 679.466 300.34C679.466 300.968 679.282 301.512 678.916 301.97C678.549 302.428 678.032 302.788 677.364 303.05C676.696 303.299 675.897 303.424 674.968 303.424ZM688.285 303.306V301.106L688.187 300.693V296.941C688.187 296.143 687.951 295.527 687.479 295.095C687.021 294.65 686.327 294.427 685.397 294.427C684.782 294.427 684.179 294.532 683.59 294.741C683.001 294.938 682.503 295.206 682.097 295.547L681.312 294.133C681.849 293.7 682.49 293.373 683.237 293.15C683.996 292.915 684.788 292.797 685.613 292.797C687.041 292.797 688.141 293.144 688.913 293.838C689.686 294.532 690.072 295.593 690.072 297.02V303.306H688.285ZM684.867 303.424C684.094 303.424 683.413 303.293 682.824 303.031C682.248 302.769 681.803 302.409 681.488 301.95C681.174 301.479 681.017 300.949 681.017 300.359C681.017 299.796 681.148 299.285 681.41 298.827C681.685 298.369 682.124 298.002 682.726 297.727C683.341 297.452 684.166 297.315 685.201 297.315H688.501V298.67H685.279C684.337 298.67 683.702 298.827 683.374 299.141C683.047 299.456 682.883 299.835 682.883 300.281C682.883 300.791 683.086 301.204 683.492 301.518C683.898 301.819 684.461 301.97 685.181 301.97C685.888 301.97 686.504 301.813 687.028 301.499C687.565 301.184 687.951 300.726 688.187 300.124L688.56 301.42C688.311 302.035 687.872 302.527 687.244 302.893C686.615 303.247 685.823 303.424 684.867 303.424ZM706.585 292.797C707.423 292.797 708.163 292.961 708.805 293.288C709.446 293.615 709.944 294.113 710.297 294.781C710.664 295.449 710.847 296.293 710.847 297.315V303.306H708.962V297.531C708.962 296.522 708.726 295.763 708.255 295.252C707.783 294.741 707.122 294.486 706.271 294.486C705.642 294.486 705.092 294.617 704.621 294.879C704.149 295.141 703.783 295.527 703.521 296.038C703.272 296.549 703.147 297.184 703.147 297.943V303.306H701.262V297.531C701.262 296.522 701.026 295.763 700.555 295.252C700.096 294.741 699.435 294.486 698.571 294.486C697.955 294.486 697.412 294.617 696.94 294.879C696.469 295.141 696.102 295.527 695.84 296.038C695.579 296.549 695.448 297.184 695.448 297.943V303.306H693.562V292.895H695.369V295.665L695.074 294.958C695.402 294.277 695.906 293.746 696.587 293.367C697.268 292.987 698.06 292.797 698.964 292.797C699.959 292.797 700.817 293.046 701.537 293.543C702.257 294.028 702.728 294.768 702.951 295.763L702.185 295.449C702.499 294.65 703.049 294.008 703.835 293.524C704.621 293.039 705.537 292.797 706.585 292.797ZM720.78 303.306V301.106L720.681 300.693V296.941C720.681 296.143 720.446 295.527 719.974 295.095C719.516 294.65 718.822 294.427 717.892 294.427C717.277 294.427 716.674 294.532 716.085 294.741C715.496 294.938 714.998 295.206 714.592 295.547L713.806 294.133C714.343 293.7 714.985 293.373 715.731 293.15C716.491 292.915 717.283 292.797 718.108 292.797C719.536 292.797 720.636 293.144 721.408 293.838C722.181 294.532 722.567 295.593 722.567 297.02V303.306H720.78ZM717.362 303.424C716.589 303.424 715.908 303.293 715.319 303.031C714.743 302.769 714.297 302.409 713.983 301.95C713.669 301.479 713.512 300.949 713.512 300.359C713.512 299.796 713.643 299.285 713.905 298.827C714.18 298.369 714.618 298.002 715.221 297.727C715.836 297.452 716.661 297.315 717.696 297.315H720.996V298.67H717.774C716.831 298.67 716.196 298.827 715.869 299.141C715.542 299.456 715.378 299.835 715.378 300.281C715.378 300.791 715.581 301.204 715.987 301.518C716.393 301.819 716.956 301.97 717.676 301.97C718.383 301.97 718.999 301.813 719.522 301.499C720.059 301.184 720.446 300.726 720.681 300.124L721.055 301.42C720.806 302.035 720.367 302.527 719.738 302.893C719.11 303.247 718.318 303.424 717.362 303.424ZM726.508 303.424C726.142 303.424 725.827 303.299 725.566 303.05C725.304 302.788 725.173 302.461 725.173 302.068C725.173 301.675 725.304 301.354 725.566 301.106C725.827 300.857 726.142 300.732 726.508 300.732C726.862 300.732 727.163 300.857 727.412 301.106C727.674 301.354 727.805 301.675 727.805 302.068C727.805 302.461 727.674 302.788 727.412 303.05C727.163 303.299 726.862 303.424 726.508 303.424Z" fill="#C6FF33"/>
</g>
<defs>
<clipPath id="clip0_360_3466">
<rect width="943.202" height="386.959" fill="white"/>
</clipPath>
</defs>
</svg>
