<svg width="944" height="387" viewBox="0 0 944 387" fill="none" xmlns="http://www.w3.org/2000/svg">
<g clip-path="url(#clip0_360_3467)">
<rect width="943.202" height="386.959" fill="#7D39EB"/>
<path d="M26.4937 83.5889V34.0895H48.9806C54.3548 34.0895 59.0926 35.1267 63.1939 37.2009C67.2953 39.228 70.501 42.0801 72.811 45.7572C75.1209 49.4343 76.2759 53.795 76.2759 58.8392C76.2759 63.8363 75.1209 68.1969 72.811 71.9212C70.501 75.5983 67.2953 78.4739 63.1939 80.5482C59.0926 82.5753 54.3548 83.5889 48.9806 83.5889H26.4937ZM37.9493 74.184H48.4149C51.7148 74.184 54.5669 73.5711 56.9712 72.3454C59.4226 71.0726 61.3083 69.2812 62.6282 66.9712C63.9954 64.6613 64.6789 61.9506 64.6789 58.8392C64.6789 55.6807 63.9954 52.97 62.6282 50.7072C61.3083 48.3972 59.4226 46.6294 56.9712 45.4037C54.5669 44.1308 51.7148 43.4944 48.4149 43.4944H37.9493V74.184ZM100.189 84.1546C97.0306 84.1546 94.2021 83.5417 91.7036 82.316C89.2522 81.0903 87.3429 79.2282 85.9758 76.7297C84.6087 74.184 83.9251 70.9547 83.9251 67.0419V45.5451H94.9564V65.4155C94.9564 68.5741 95.6164 70.9076 96.9364 72.4162C98.3035 73.8776 100.213 74.6083 102.664 74.6083C104.361 74.6083 105.87 74.2547 107.19 73.5476C108.51 72.7933 109.547 71.6619 110.301 70.1533C111.055 68.5976 111.433 66.6648 111.433 64.3548V45.5451H122.464V83.5889H111.998V73.1233L113.908 76.164C112.635 78.8039 110.749 80.8075 108.25 82.1746C105.799 83.4946 103.112 84.1546 100.189 84.1546ZM141.806 75.8104L142.088 62.3749L159.838 45.5451H172.99L155.948 62.8699L150.221 67.5369L141.806 75.8104ZM132.684 83.5889V31.1196H143.715V83.5889H132.684ZM161.04 83.5889L148.17 67.6077L155.1 59.0513L174.404 83.5889H161.04ZM194.727 84.1546C191.568 84.1546 188.74 83.5417 186.241 82.316C183.79 81.0903 181.881 79.2282 180.513 76.7297C179.146 74.184 178.463 70.9547 178.463 67.0419V45.5451H189.494V65.4155C189.494 68.5741 190.154 70.9076 191.474 72.4162C192.841 73.8776 194.75 74.6083 197.202 74.6083C198.899 74.6083 200.407 74.2547 201.727 73.5476C203.047 72.7933 204.085 71.6619 204.839 70.1533C205.593 68.5976 205.97 66.6648 205.97 64.3548V45.5451H217.002V83.5889H206.536V73.1233L208.445 76.164C207.172 78.8039 205.287 80.8075 202.788 82.1746C200.337 83.4946 197.65 84.1546 194.727 84.1546ZM250.345 44.9794C253.362 44.9794 256.049 45.5922 258.406 46.8179C260.81 47.9965 262.696 49.835 264.063 52.3336C265.43 54.785 266.114 57.9435 266.114 61.8092V83.5889H255.082V63.5063C255.082 60.442 254.399 58.1792 253.032 56.7178C251.712 55.2564 249.826 54.5257 247.375 54.5257C245.63 54.5257 244.051 54.9028 242.637 55.6571C241.27 56.3642 240.185 57.4721 239.384 58.9806C238.63 60.4892 238.253 62.422 238.253 64.7791V83.5889H227.221V45.5451H237.758V56.0814L235.778 52.8993C237.145 50.3536 239.101 48.3972 241.647 47.0301C244.192 45.6629 247.092 44.9794 250.345 44.9794ZM294.28 97.873C290.697 97.873 287.232 97.4251 283.885 96.5294C280.585 95.6808 277.827 94.3844 275.611 92.6402L279.996 84.7203C281.598 86.0403 283.625 87.0774 286.077 87.8317C288.575 88.6331 291.027 89.0338 293.431 89.0338C297.344 89.0338 300.172 88.1617 301.917 86.4174C303.708 84.6731 304.604 82.0803 304.604 78.6389V72.9112L305.311 63.3649L305.169 53.7478V45.5451H315.635V77.2247C315.635 84.296 313.797 89.5052 310.119 92.8523C306.442 96.1994 301.162 97.873 294.28 97.873ZM292.583 81.7503C289.047 81.7503 285.841 80.996 282.965 79.4875C280.137 77.9318 277.851 75.7868 276.106 73.0526C274.409 70.2712 273.561 67.0419 273.561 63.3649C273.561 59.6406 274.409 56.4114 276.106 53.6771C277.851 50.8957 280.137 48.7508 282.965 47.2422C285.841 45.7337 289.047 44.9794 292.583 44.9794C295.788 44.9794 298.617 45.6394 301.068 46.9594C303.52 48.2322 305.429 50.2357 306.796 52.97C308.163 55.6571 308.847 59.1221 308.847 63.3649C308.847 67.5605 308.163 71.0255 306.796 73.7597C305.429 76.4468 303.52 78.4504 301.068 79.7703C298.617 81.0903 295.788 81.7503 292.583 81.7503ZM294.775 72.699C296.707 72.699 298.428 72.3219 299.937 71.5676C301.445 70.7662 302.624 69.6583 303.472 68.2441C304.321 66.8298 304.745 65.2034 304.745 63.3649C304.745 61.4792 304.321 59.8528 303.472 58.4856C302.624 57.0714 301.445 55.9871 299.937 55.2328C298.428 54.4314 296.707 54.0307 294.775 54.0307C292.842 54.0307 291.121 54.4314 289.613 55.2328C288.104 55.9871 286.902 57.0714 286.006 58.4856C285.158 59.8528 284.733 61.4792 284.733 63.3649C284.733 65.2034 285.158 66.8298 286.006 68.2441C286.902 69.6583 288.104 70.7662 289.613 71.5676C291.121 72.3219 292.842 72.699 294.775 72.699ZM36.7472 142.275L36.1107 129.051L59.7997 104.09H72.5281L51.1727 127.071L44.8085 133.86L36.7472 142.275ZM26.4937 153.589V104.09H37.8786V153.589H26.4937ZM60.3654 153.589L42.7578 132.021L50.2534 123.889L73.7302 153.589H60.3654ZM77.3698 153.589V115.545H87.906V126.294L86.4211 123.182C87.5525 120.495 89.3675 118.468 91.866 117.101C94.3645 115.687 97.4052 114.979 100.988 114.979V125.162C100.517 125.115 100.092 125.091 99.7152 125.091C99.338 125.044 98.9373 125.021 98.513 125.021C95.4959 125.021 93.0445 125.893 91.1589 127.637C89.3203 129.334 88.401 131.998 88.401 135.628V153.589H77.3698ZM126.151 154.155C121.814 154.155 117.996 153.306 114.696 151.609C111.443 149.912 108.921 147.602 107.13 144.679C105.338 141.709 104.442 138.338 104.442 134.567C104.442 130.748 105.315 127.378 107.059 124.455C108.85 121.485 111.278 119.175 114.342 117.525C117.407 115.828 120.872 114.979 124.737 114.979C128.461 114.979 131.809 115.781 134.778 117.384C137.796 118.939 140.176 121.202 141.921 124.172C143.665 127.095 144.537 130.607 144.537 134.708C144.537 135.133 144.513 135.628 144.466 136.193C144.419 136.712 144.372 137.207 144.325 137.678H113.423V131.243H138.526L134.284 133.153C134.284 131.173 133.883 129.452 133.081 127.991C132.28 126.529 131.172 125.398 129.758 124.596C128.344 123.748 126.694 123.324 124.808 123.324C122.922 123.324 121.249 123.748 119.787 124.596C118.373 125.398 117.265 126.553 116.464 128.061C115.662 129.523 115.262 131.267 115.262 133.294V134.991C115.262 137.066 115.709 138.904 116.605 140.507C117.548 142.063 118.844 143.265 120.494 144.113C122.192 144.915 124.171 145.315 126.434 145.315C128.461 145.315 130.229 145.009 131.738 144.396C133.294 143.783 134.708 142.864 135.981 141.638L141.85 148.003C140.106 149.982 137.913 151.515 135.273 152.599C132.634 153.636 129.593 154.155 126.151 154.155ZM174.181 153.589V146.164L173.474 144.538V131.243C173.474 128.886 172.743 127.048 171.281 125.728C169.867 124.408 167.675 123.748 164.705 123.748C162.678 123.748 160.674 124.078 158.695 124.738C156.762 125.351 155.112 126.199 153.745 127.284L149.785 119.576C151.859 118.114 154.357 116.983 157.28 116.182C160.203 115.38 163.173 114.979 166.19 114.979C171.989 114.979 176.491 116.347 179.696 119.081C182.902 121.815 184.505 126.081 184.505 131.88V153.589H174.181ZM162.584 154.155C159.614 154.155 157.068 153.66 154.947 152.67C152.825 151.632 151.199 150.242 150.067 148.498C148.936 146.753 148.37 144.797 148.37 142.628C148.37 140.365 148.913 138.385 149.997 136.688C151.128 134.991 152.896 133.671 155.3 132.728C157.705 131.738 160.839 131.243 164.705 131.243H174.817V137.678H165.907C163.314 137.678 161.523 138.103 160.533 138.951C159.59 139.8 159.119 140.86 159.119 142.133C159.119 143.548 159.661 144.679 160.745 145.528C161.877 146.329 163.409 146.73 165.342 146.73C167.18 146.73 168.83 146.305 170.292 145.457C171.753 144.561 172.814 143.265 173.474 141.568L175.171 146.659C174.369 149.11 172.908 150.972 170.786 152.245C168.665 153.518 165.931 154.155 162.584 154.155ZM210.046 154.155C205.567 154.155 202.079 153.023 199.58 150.76C197.082 148.45 195.832 145.033 195.832 140.507V107.13H206.864V140.365C206.864 141.968 207.288 143.218 208.136 144.113C208.985 144.962 210.14 145.386 211.601 145.386C213.346 145.386 214.831 144.915 216.056 143.972L219.026 151.75C217.895 152.552 216.528 153.165 214.925 153.589C213.369 153.966 211.743 154.155 210.046 154.155ZM189.963 124.879V116.394H216.339V124.879H189.963ZM242.147 154.155C238.093 154.155 234.487 153.306 231.328 151.609C228.217 149.912 225.742 147.602 223.903 144.679C222.112 141.709 221.216 138.338 221.216 134.567C221.216 130.748 222.112 127.378 223.903 124.455C225.742 121.485 228.217 119.175 231.328 117.525C234.487 115.828 238.093 114.979 242.147 114.979C246.154 114.979 249.737 115.828 252.896 117.525C256.054 119.175 258.529 121.461 260.321 124.384C262.112 127.307 263.008 130.701 263.008 134.567C263.008 138.338 262.112 141.709 260.321 144.679C258.529 147.602 256.054 149.912 252.896 151.609C249.737 153.306 246.154 154.155 242.147 154.155ZM242.147 145.103C243.986 145.103 245.636 144.679 247.097 143.83C248.559 142.982 249.714 141.78 250.562 140.224C251.411 138.621 251.835 136.736 251.835 134.567C251.835 132.351 251.411 130.466 250.562 128.91C249.714 127.354 248.559 126.152 247.097 125.304C245.636 124.455 243.986 124.031 242.147 124.031C240.309 124.031 238.659 124.455 237.197 125.304C235.736 126.152 234.557 127.354 233.662 128.91C232.813 130.466 232.389 132.351 232.389 134.567C232.389 136.736 232.813 138.621 233.662 140.224C234.557 141.78 235.736 142.982 237.197 143.83C238.659 144.679 240.309 145.103 242.147 145.103ZM270.381 153.589V115.545H280.918V126.294L279.433 123.182C280.564 120.495 282.379 118.468 284.878 117.101C287.376 115.687 290.417 114.979 294 114.979V125.162C293.528 125.115 293.104 125.091 292.727 125.091C292.35 125.044 291.949 125.021 291.525 125.021C288.507 125.021 286.056 125.893 284.17 127.637C282.332 129.334 281.413 131.998 281.413 135.628V153.589H270.381ZM321.639 153.589V104.09H333.095V144.255H357.915V153.589H321.639ZM381.433 154.155C377.379 154.155 373.773 153.306 370.614 151.609C367.503 149.912 365.028 147.602 363.189 144.679C361.398 141.709 360.502 138.338 360.502 134.567C360.502 130.748 361.398 127.378 363.189 124.455C365.028 121.485 367.503 119.175 370.614 117.525C373.773 115.828 377.379 114.979 381.433 114.979C385.44 114.979 389.023 115.828 392.182 117.525C395.34 119.175 397.815 121.461 399.607 124.384C401.398 127.307 402.294 130.701 402.294 134.567C402.294 138.338 401.398 141.709 399.607 144.679C397.815 147.602 395.34 149.912 392.182 151.609C389.023 153.306 385.44 154.155 381.433 154.155ZM381.433 145.103C383.272 145.103 384.922 144.679 386.383 143.83C387.845 142.982 389 141.78 389.848 140.224C390.697 138.621 391.121 136.736 391.121 134.567C391.121 132.351 390.697 130.466 389.848 128.91C389 127.354 387.845 126.152 386.383 125.304C384.922 124.455 383.272 124.031 381.433 124.031C379.595 124.031 377.945 124.455 376.483 125.304C375.022 126.152 373.843 127.354 372.948 128.91C372.099 130.466 371.675 132.351 371.675 134.567C371.675 136.736 372.099 138.621 372.948 140.224C373.843 141.78 375.022 142.982 376.483 143.83C377.945 144.679 379.595 145.103 381.433 145.103ZM418.789 145.81L419.072 132.375L436.821 115.545H449.974L432.932 132.87L427.204 137.537L418.789 145.81ZM409.667 153.589V101.12H420.699V153.589H409.667ZM438.023 153.589L425.153 137.608L432.083 129.051L451.388 153.589H438.023ZM478.994 153.589V146.164L478.287 144.538V131.243C478.287 128.886 477.556 127.048 476.095 125.728C474.68 124.408 472.488 123.748 469.518 123.748C467.491 123.748 465.488 124.078 463.508 124.738C461.575 125.351 459.925 126.199 458.558 127.284L454.598 119.576C456.672 118.114 459.171 116.983 462.093 116.182C465.016 115.38 467.986 114.979 471.003 114.979C476.802 114.979 481.304 116.347 484.51 119.081C487.715 121.815 489.318 126.081 489.318 131.88V153.589H478.994ZM467.397 154.155C464.427 154.155 461.881 153.66 459.76 152.67C457.638 151.632 456.012 150.242 454.881 148.498C453.749 146.753 453.184 144.797 453.184 142.628C453.184 140.365 453.726 138.385 454.81 136.688C455.941 134.991 457.709 133.671 460.113 132.728C462.518 131.738 465.653 131.243 469.518 131.243H479.63V137.678H470.72C468.128 137.678 466.336 138.103 465.346 138.951C464.403 139.8 463.932 140.86 463.932 142.133C463.932 143.548 464.474 144.679 465.558 145.528C466.69 146.329 468.222 146.73 470.155 146.73C471.993 146.73 473.643 146.305 475.105 145.457C476.566 144.561 477.627 143.265 478.287 141.568L479.984 146.659C479.182 149.11 477.721 150.972 475.6 152.245C473.478 153.518 470.744 154.155 467.397 154.155ZM499.302 153.589V101.12H510.333V153.589H499.302ZM36.7472 213.275L36.1107 200.051L59.7997 175.09H72.5281L51.1727 198.071L44.8085 204.86L36.7472 213.275ZM26.4937 224.589V175.09H37.8786V224.589H26.4937ZM60.3654 224.589L42.7578 203.021L50.2534 194.889L73.7302 224.589H60.3654ZM100.567 224.589V217.164L99.8599 215.538V202.243C99.8599 199.886 99.1292 198.048 97.6678 196.728C96.2535 195.408 94.0614 194.748 91.0915 194.748C89.0643 194.748 87.0608 195.078 85.0808 195.738C83.148 196.351 81.498 197.199 80.1309 198.284L76.1709 190.576C78.2452 189.114 80.7437 187.983 83.6666 187.182C86.5894 186.38 89.5593 185.979 92.5764 185.979C98.3749 185.979 102.877 187.347 106.083 190.081C109.288 192.815 110.891 197.081 110.891 202.88V224.589H100.567ZM88.9701 225.155C86.0001 225.155 83.4544 224.66 81.333 223.67C79.2116 222.632 77.5852 221.242 76.4538 219.498C75.3224 217.753 74.7567 215.797 74.7567 213.628C74.7567 211.365 75.2988 209.385 76.3831 207.688C77.5145 205.991 79.2823 204.671 81.6866 203.728C84.0908 202.738 87.2258 202.243 91.0915 202.243H101.203V208.678H92.2936C89.7008 208.678 87.9094 209.103 86.9194 209.951C85.9765 210.8 85.5051 211.86 85.5051 213.133C85.5051 214.548 86.0472 215.679 87.1315 216.528C88.2629 217.329 89.7951 217.73 91.7279 217.73C93.5664 217.73 95.2164 217.305 96.6778 216.457C98.1392 215.561 99.1999 214.265 99.8599 212.568L101.557 217.659C100.756 220.11 99.2942 221.972 97.1728 223.245C95.0514 224.518 92.3172 225.155 88.9701 225.155ZM169.597 185.979C172.614 185.979 175.277 186.592 177.587 187.818C179.944 188.996 181.783 190.835 183.103 193.334C184.47 195.785 185.153 198.943 185.153 202.809V224.589H174.122V204.506C174.122 201.442 173.486 199.179 172.213 197.718C170.94 196.256 169.149 195.526 166.839 195.526C165.236 195.526 163.798 195.903 162.525 196.657C161.252 197.364 160.262 198.449 159.555 199.91C158.848 201.371 158.495 203.233 158.495 205.496V224.589H147.463V204.506C147.463 201.442 146.827 199.179 145.554 197.718C144.328 196.256 142.56 195.526 140.25 195.526C138.648 195.526 137.21 195.903 135.937 196.657C134.664 197.364 133.674 198.449 132.967 199.91C132.26 201.371 131.906 203.233 131.906 205.496V224.589H120.875V186.545H131.411V196.94L129.431 193.899C130.751 191.306 132.613 189.35 135.018 188.03C137.469 186.663 140.25 185.979 143.362 185.979C146.85 185.979 149.891 186.875 152.484 188.666C155.124 190.411 156.868 193.098 157.717 196.728L153.827 195.667C155.1 192.697 157.127 190.34 159.909 188.596C162.737 186.852 165.967 185.979 169.597 185.979ZM217.528 225.155C214.322 225.155 211.517 224.447 209.113 223.033C206.709 221.619 204.823 219.474 203.456 216.598C202.136 213.675 201.476 209.998 201.476 205.567C201.476 201.088 202.113 197.411 203.385 194.536C204.658 191.66 206.497 189.515 208.901 188.101C211.305 186.687 214.181 185.979 217.528 185.979C221.111 185.979 224.316 186.804 227.145 188.454C230.021 190.057 232.284 192.32 233.934 195.243C235.631 198.166 236.479 201.607 236.479 205.567C236.479 209.574 235.631 213.039 233.934 215.962C232.284 218.885 230.021 221.147 227.145 222.75C224.316 224.353 221.111 225.155 217.528 225.155ZM195.041 238.307V186.545H205.577V194.324L205.365 205.638L206.072 216.881V238.307H195.041ZM215.619 216.103C217.457 216.103 219.084 215.679 220.498 214.83C221.959 213.982 223.114 212.78 223.963 211.224C224.859 209.621 225.306 207.736 225.306 205.567C225.306 203.351 224.859 201.466 223.963 199.91C223.114 198.354 221.959 197.152 220.498 196.304C219.084 195.455 217.457 195.031 215.619 195.031C213.78 195.031 212.13 195.455 210.669 196.304C209.207 197.152 208.052 198.354 207.204 199.91C206.355 201.466 205.931 203.351 205.931 205.567C205.931 207.736 206.355 209.621 207.204 211.224C208.052 212.78 209.207 213.982 210.669 214.83C212.13 215.679 213.78 216.103 215.619 216.103ZM259.916 225.155C256.757 225.155 253.929 224.542 251.43 223.316C248.979 222.09 247.069 220.228 245.702 217.73C244.335 215.184 243.652 211.955 243.652 208.042V186.545H254.683V206.416C254.683 209.574 255.343 211.908 256.663 213.416C258.03 214.878 259.939 215.608 262.391 215.608C264.088 215.608 265.596 215.255 266.916 214.548C268.236 213.793 269.273 212.662 270.028 211.153C270.782 209.598 271.159 207.665 271.159 205.355V186.545H282.19V224.589H271.725V214.123L273.634 217.164C272.361 219.804 270.476 221.807 267.977 223.175C265.526 224.495 262.839 225.155 259.916 225.155ZM305.209 225.155C301.956 225.155 298.821 224.777 295.804 224.023C292.834 223.222 290.477 222.232 288.733 221.053L292.41 213.133C294.154 214.218 296.205 215.113 298.562 215.82C300.966 216.48 303.324 216.81 305.634 216.81C308.179 216.81 309.971 216.504 311.008 215.891C312.092 215.278 312.634 214.43 312.634 213.345C312.634 212.45 312.21 211.79 311.361 211.365C310.56 210.894 309.476 210.54 308.109 210.305C306.741 210.069 305.233 209.833 303.583 209.598C301.98 209.362 300.354 209.056 298.704 208.678C297.054 208.254 295.545 207.641 294.178 206.84C292.811 206.038 291.703 204.954 290.854 203.587C290.053 202.22 289.652 200.452 289.652 198.284C289.652 195.879 290.336 193.758 291.703 191.919C293.117 190.081 295.144 188.643 297.784 187.606C300.424 186.522 303.583 185.979 307.26 185.979C309.853 185.979 312.493 186.262 315.18 186.828C317.867 187.394 320.106 188.219 321.898 189.303L318.221 197.152C316.382 196.068 314.52 195.337 312.634 194.96C310.796 194.536 309.004 194.324 307.26 194.324C304.809 194.324 303.017 194.654 301.886 195.314C300.754 195.974 300.189 196.822 300.189 197.859C300.189 198.802 300.589 199.509 301.391 199.981C302.239 200.452 303.347 200.829 304.714 201.112C306.081 201.395 307.566 201.654 309.169 201.89C310.819 202.078 312.469 202.385 314.119 202.809C315.769 203.233 317.254 203.846 318.574 204.648C319.941 205.402 321.049 206.463 321.898 207.83C322.746 209.15 323.17 210.894 323.17 213.063C323.17 215.42 322.463 217.518 321.049 219.356C319.635 221.147 317.584 222.562 314.897 223.599C312.257 224.636 309.028 225.155 305.209 225.155Z" fill="#FAFAFA"/>
<path d="M31.605 275.527C30.5574 275.527 29.5556 275.37 28.5996 275.056C27.6437 274.728 26.8907 274.309 26.3407 273.799L27.0675 272.267C27.5913 272.725 28.2592 273.105 29.0711 273.406C29.883 273.707 30.7276 273.858 31.605 273.858C32.4038 273.858 33.052 273.766 33.5496 273.583C34.0472 273.399 34.4139 273.151 34.6496 272.836C34.8853 272.509 35.0031 272.142 35.0031 271.736C35.0031 271.265 34.846 270.885 34.5317 270.597C34.2305 270.309 33.8311 270.08 33.3335 269.909C32.849 269.726 32.3121 269.569 31.7228 269.438C31.1335 269.307 30.5377 269.157 29.9353 268.986C29.3461 268.803 28.8026 268.574 28.305 268.299C27.8205 268.024 27.4276 267.657 27.1265 267.199C26.8253 266.727 26.6747 266.125 26.6747 265.392C26.6747 264.685 26.858 264.036 27.2247 263.447C27.6044 262.845 28.1806 262.367 28.9532 262.013C29.7389 261.646 30.7341 261.463 31.9389 261.463C32.7377 261.463 33.5299 261.568 34.3156 261.777C35.1013 261.987 35.7823 262.288 36.3585 262.681L35.7103 264.252C35.121 263.86 34.499 263.578 33.8442 263.408C33.1895 263.224 32.5544 263.133 31.9389 263.133C31.1663 263.133 30.5312 263.231 30.0336 263.427C29.5359 263.624 29.1693 263.886 28.9336 264.213C28.711 264.541 28.5996 264.907 28.5996 265.313C28.5996 265.798 28.7502 266.184 29.0514 266.472C29.3657 266.76 29.7651 266.989 30.2496 267.16C30.7472 267.33 31.2907 267.487 31.88 267.631C32.4692 267.762 33.0585 267.912 33.6478 268.083C34.2502 268.253 34.7936 268.476 35.2781 268.751C35.7757 269.026 36.1751 269.392 36.4763 269.851C36.7775 270.309 36.9281 270.898 36.9281 271.618C36.9281 272.312 36.7382 272.961 36.3585 273.563C35.9787 274.152 35.3894 274.63 34.5906 274.997C33.8049 275.35 32.8097 275.527 31.605 275.527ZM44.1584 275.488C43.0453 275.488 42.0632 275.259 41.212 274.8C40.3739 274.342 39.7192 273.714 39.2478 272.915C38.7894 272.116 38.5603 271.199 38.5603 270.165C38.5603 269.13 38.7829 268.214 39.2281 267.415C39.6865 266.616 40.3085 265.994 41.0942 265.549C41.893 265.09 42.79 264.861 43.7852 264.861C44.7935 264.861 45.684 265.084 46.4566 265.529C47.2292 265.974 47.8316 266.603 48.2637 267.415C48.709 268.214 48.9316 269.15 48.9316 270.224C48.9316 270.302 48.925 270.394 48.9119 270.499C48.9119 270.604 48.9054 270.702 48.8923 270.793H40.0335V269.438H47.9102L47.1441 269.909C47.1572 269.242 47.0197 268.646 46.7316 268.122C46.4435 267.598 46.0441 267.192 45.5334 266.904C45.0358 266.603 44.4531 266.452 43.7852 266.452C43.1305 266.452 42.5477 266.603 42.037 266.904C41.5263 267.192 41.1269 267.605 40.8388 268.142C40.5507 268.665 40.4067 269.268 40.4067 269.949V270.263C40.4067 270.957 40.5638 271.579 40.8781 272.129C41.2055 272.666 41.6573 273.085 42.2334 273.386C42.8096 273.687 43.4709 273.838 44.2173 273.838C44.8328 273.838 45.3894 273.733 45.887 273.524C46.3977 273.314 46.8429 273 47.2227 272.581L48.2637 273.799C47.7923 274.349 47.203 274.768 46.4959 275.056C45.8019 275.344 45.0227 275.488 44.1584 275.488ZM55.125 275.488C54.0774 275.488 53.2655 275.206 52.6893 274.643C52.1131 274.08 51.825 273.275 51.825 272.227V262.681H53.7107V272.149C53.7107 272.712 53.8482 273.144 54.1232 273.445C54.4113 273.746 54.8172 273.897 55.341 273.897C55.9303 273.897 56.4214 273.733 56.8142 273.406L57.4035 274.761C57.1154 275.01 56.7684 275.193 56.3625 275.311C55.9696 275.429 55.5571 275.488 55.125 275.488ZM50.0572 266.511V264.96H56.6964V266.511H50.0572ZM59.6833 275.37V264.96H61.569V275.37H59.6833ZM60.6261 262.956C60.2595 262.956 59.9517 262.838 59.7029 262.602C59.4672 262.367 59.3494 262.079 59.3494 261.738C59.3494 261.385 59.4672 261.09 59.7029 260.854C59.9517 260.619 60.2595 260.501 60.6261 260.501C60.9928 260.501 61.294 260.619 61.5297 260.854C61.7785 261.077 61.9029 261.358 61.9029 261.699C61.9029 262.052 61.785 262.354 61.5493 262.602C61.3136 262.838 61.0059 262.956 60.6261 262.956ZM71.6318 275.37V273.17L71.5336 272.758V269.006C71.5336 268.207 71.2979 267.592 70.8265 267.16C70.3681 266.714 69.6741 266.492 68.7443 266.492C68.1289 266.492 67.5265 266.596 66.9372 266.806C66.348 267.002 65.8503 267.271 65.4444 267.611L64.6587 266.197C65.1956 265.765 65.8372 265.438 66.5837 265.215C67.3432 264.979 68.1354 264.861 68.9604 264.861C70.3878 264.861 71.4878 265.208 72.2604 265.902C73.033 266.596 73.4193 267.657 73.4193 269.084V275.37H71.6318ZM68.214 275.488C67.4414 275.488 66.7604 275.357 66.1712 275.095C65.595 274.833 65.1498 274.473 64.8355 274.015C64.5212 273.543 64.364 273.013 64.364 272.424C64.364 271.861 64.495 271.35 64.7569 270.892C65.0319 270.433 65.4706 270.067 66.073 269.792C66.6884 269.517 67.5134 269.379 68.5479 269.379H71.8479V270.734H68.6265C67.6836 270.734 67.0485 270.892 66.7212 271.206C66.3938 271.52 66.2301 271.9 66.2301 272.345C66.2301 272.856 66.4331 273.268 66.839 273.583C67.245 273.884 67.8081 274.034 68.5283 274.034C69.2354 274.034 69.8509 273.877 70.3747 273.563C70.9116 273.249 71.2979 272.79 71.5336 272.188L71.9068 273.484C71.658 274.1 71.2193 274.591 70.5908 274.958C69.9622 275.311 69.1699 275.488 68.214 275.488ZM82.4285 275.488C81.5642 275.488 80.772 275.292 80.0517 274.899C79.3446 274.493 78.775 273.897 78.3428 273.111C77.9238 272.326 77.7143 271.343 77.7143 270.165C77.7143 268.986 77.9172 268.004 78.3232 267.218C78.7422 266.433 79.3053 265.843 80.0124 265.451C80.7327 265.058 81.538 264.861 82.4285 264.861C83.4499 264.861 84.3535 265.084 85.1392 265.529C85.9249 265.974 86.5469 266.596 87.0052 267.395C87.4635 268.181 87.6927 269.104 87.6927 270.165C87.6927 271.226 87.4635 272.155 87.0052 272.954C86.5469 273.753 85.9249 274.375 85.1392 274.82C84.3535 275.265 83.4499 275.488 82.4285 275.488ZM76.9089 279.181V264.96H78.716V267.768L78.5982 270.184L78.7946 272.601V279.181H76.9089ZM82.2713 273.838C82.9392 273.838 83.535 273.687 84.0588 273.386C84.5957 273.085 85.0148 272.659 85.3159 272.109C85.6302 271.546 85.7874 270.898 85.7874 270.165C85.7874 269.418 85.6302 268.777 85.3159 268.24C85.0148 267.69 84.5957 267.264 84.0588 266.963C83.535 266.662 82.9392 266.511 82.2713 266.511C81.6166 266.511 81.0208 266.662 80.4839 266.963C79.9601 267.264 79.541 267.69 79.2267 268.24C78.9256 268.777 78.775 269.418 78.775 270.165C78.775 270.898 78.9256 271.546 79.2267 272.109C79.541 272.659 79.9601 273.085 80.4839 273.386C81.0208 273.687 81.6166 273.838 82.2713 273.838ZM101.093 275.488C100.229 275.488 99.4363 275.292 98.716 274.899C98.0089 274.493 97.4393 273.897 97.0071 273.111C96.5881 272.326 96.3786 271.343 96.3786 270.165C96.3786 268.986 96.5815 268.004 96.9875 267.218C97.4065 266.433 97.9696 265.843 98.6767 265.451C99.397 265.058 100.202 264.861 101.093 264.861C102.114 264.861 103.018 265.084 103.803 265.529C104.589 265.974 105.211 266.596 105.67 267.395C106.128 268.181 106.357 269.104 106.357 270.165C106.357 271.226 106.128 272.155 105.67 272.954C105.211 273.753 104.589 274.375 103.803 274.82C103.018 275.265 102.114 275.488 101.093 275.488ZM95.5732 279.181V264.96H97.3803V267.768L97.2625 270.184L97.4589 272.601V279.181H95.5732ZM100.936 273.838C101.603 273.838 102.199 273.687 102.723 273.386C103.26 273.085 103.679 272.659 103.98 272.109C104.295 271.546 104.452 270.898 104.452 270.165C104.452 269.418 104.295 268.777 103.98 268.24C103.679 267.69 103.26 267.264 102.723 266.963C102.199 266.662 101.603 266.511 100.936 266.511C100.281 266.511 99.6851 266.662 99.1482 266.963C98.6244 267.264 98.2053 267.69 97.891 268.24C97.5899 268.777 97.4393 269.418 97.4393 270.165C97.4393 270.898 97.5899 271.546 97.891 272.109C98.2053 272.659 98.6244 273.085 99.1482 273.386C99.6851 273.687 100.281 273.838 100.936 273.838ZM113.598 275.488C112.485 275.488 111.503 275.259 110.652 274.8C109.814 274.342 109.159 273.714 108.687 272.915C108.229 272.116 108 271.199 108 270.165C108 269.13 108.223 268.214 108.668 267.415C109.126 266.616 109.748 265.994 110.534 265.549C111.333 265.09 112.23 264.861 113.225 264.861C114.233 264.861 115.124 265.084 115.896 265.529C116.669 265.974 117.271 266.603 117.703 267.415C118.149 268.214 118.371 269.15 118.371 270.224C118.371 270.302 118.365 270.394 118.352 270.499C118.352 270.604 118.345 270.702 118.332 270.793H109.473V269.438H117.35L116.584 269.909C116.597 269.242 116.459 268.646 116.171 268.122C115.883 267.598 115.484 267.192 114.973 266.904C114.475 266.603 113.893 266.452 113.225 266.452C112.57 266.452 111.987 266.603 111.477 266.904C110.966 267.192 110.567 267.605 110.278 268.142C109.99 268.665 109.846 269.268 109.846 269.949V270.263C109.846 270.957 110.003 271.579 110.318 272.129C110.645 272.666 111.097 273.085 111.673 273.386C112.249 273.687 112.911 273.838 113.657 273.838C114.272 273.838 114.829 273.733 115.327 273.524C115.837 273.314 116.283 273 116.662 272.581L117.703 273.799C117.232 274.349 116.643 274.768 115.936 275.056C115.241 275.344 114.462 275.488 113.598 275.488ZM134.013 264.861C134.851 264.861 135.591 265.025 136.232 265.352C136.874 265.68 137.372 266.177 137.725 266.845C138.092 267.513 138.275 268.358 138.275 269.379V275.37H136.389V269.595C136.389 268.587 136.154 267.827 135.682 267.317C135.211 266.806 134.55 266.551 133.698 266.551C133.07 266.551 132.52 266.682 132.048 266.943C131.577 267.205 131.21 267.592 130.948 268.102C130.7 268.613 130.575 269.248 130.575 270.008V275.37H128.69V269.595C128.69 268.587 128.454 267.827 127.982 267.317C127.524 266.806 126.863 266.551 125.999 266.551C125.383 266.551 124.84 266.682 124.368 266.943C123.897 267.205 123.53 267.592 123.268 268.102C123.006 268.613 122.875 269.248 122.875 270.008V275.37H120.99V264.96H122.797V267.729L122.502 267.022C122.83 266.341 123.334 265.811 124.015 265.431C124.696 265.051 125.488 264.861 126.391 264.861C127.387 264.861 128.244 265.11 128.965 265.608C129.685 266.092 130.156 266.832 130.379 267.827L129.613 267.513C129.927 266.714 130.477 266.073 131.263 265.588C132.048 265.104 132.965 264.861 134.013 264.861ZM147.264 275.488C146.374 275.488 145.569 275.292 144.848 274.899C144.141 274.493 143.578 273.897 143.159 273.111C142.753 272.326 142.55 271.343 142.55 270.165C142.55 268.986 142.76 268.004 143.179 267.218C143.611 266.433 144.181 265.843 144.888 265.451C145.608 265.058 146.4 264.861 147.264 264.861C148.286 264.861 149.189 265.084 149.975 265.529C150.761 265.974 151.383 266.596 151.841 267.395C152.299 268.181 152.529 269.104 152.529 270.165C152.529 271.226 152.299 272.155 151.841 272.954C151.383 273.753 150.761 274.375 149.975 274.82C149.189 275.265 148.286 275.488 147.264 275.488ZM141.745 275.37V260.795H143.631V267.729L143.434 270.145L143.552 272.561V275.37H141.745ZM147.107 273.838C147.775 273.838 148.371 273.687 148.895 273.386C149.432 273.085 149.851 272.659 150.152 272.109C150.466 271.546 150.623 270.898 150.623 270.165C150.623 269.418 150.466 268.777 150.152 268.24C149.851 267.69 149.432 267.264 148.895 266.963C148.371 266.662 147.775 266.511 147.107 266.511C146.452 266.511 145.857 266.662 145.32 266.963C144.796 267.264 144.377 267.69 144.063 268.24C143.761 268.777 143.611 269.418 143.611 270.165C143.611 270.898 143.761 271.546 144.063 272.109C144.377 272.659 144.796 273.085 145.32 273.386C145.857 273.687 146.452 273.838 147.107 273.838ZM159.77 275.488C158.657 275.488 157.674 275.259 156.823 274.8C155.985 274.342 155.33 273.714 154.859 272.915C154.401 272.116 154.172 271.199 154.172 270.165C154.172 269.13 154.394 268.214 154.839 267.415C155.298 266.616 155.92 265.994 156.705 265.549C157.504 265.09 158.401 264.861 159.396 264.861C160.405 264.861 161.295 265.084 162.068 265.529C162.84 265.974 163.443 266.603 163.875 267.415C164.32 268.214 164.543 269.15 164.543 270.224C164.543 270.302 164.536 270.394 164.523 270.499C164.523 270.604 164.517 270.702 164.504 270.793H155.645V269.438H163.521L162.755 269.909C162.768 269.242 162.631 268.646 162.343 268.122C162.055 267.598 161.655 267.192 161.145 266.904C160.647 266.603 160.064 266.452 159.396 266.452C158.742 266.452 158.159 266.603 157.648 266.904C157.138 267.192 156.738 267.605 156.45 268.142C156.162 268.665 156.018 269.268 156.018 269.949V270.263C156.018 270.957 156.175 271.579 156.489 272.129C156.817 272.666 157.269 273.085 157.845 273.386C158.421 273.687 159.082 273.838 159.829 273.838C160.444 273.838 161.001 273.733 161.498 273.524C162.009 273.314 162.454 273 162.834 272.581L163.875 273.799C163.404 274.349 162.814 274.768 162.107 275.056C161.413 275.344 160.634 275.488 159.77 275.488ZM167.161 275.37V260.795H169.047V275.37H167.161ZM172.647 275.37V264.96H174.533V275.37H172.647ZM173.59 262.956C173.224 262.956 172.916 262.838 172.667 262.602C172.431 262.367 172.313 262.079 172.313 261.738C172.313 261.385 172.431 261.09 172.667 260.854C172.916 260.619 173.224 260.501 173.59 260.501C173.957 260.501 174.258 260.619 174.494 260.854C174.743 261.077 174.867 261.358 174.867 261.699C174.867 262.052 174.749 262.354 174.513 262.602C174.278 262.838 173.97 262.956 173.59 262.956ZM184.596 275.37V273.17L184.498 272.758V269.006C184.498 268.207 184.262 267.592 183.791 267.16C183.332 266.714 182.638 266.492 181.708 266.492C181.093 266.492 180.491 266.596 179.901 266.806C179.312 267.002 178.814 267.271 178.408 267.611L177.623 266.197C178.16 265.765 178.801 265.438 179.548 265.215C180.307 264.979 181.1 264.861 181.925 264.861C183.352 264.861 184.452 265.208 185.224 265.902C185.997 266.596 186.383 267.657 186.383 269.084V275.37H184.596ZM181.178 275.488C180.405 275.488 179.725 275.357 179.135 275.095C178.559 274.833 178.114 274.473 177.8 274.015C177.485 273.543 177.328 273.013 177.328 272.424C177.328 271.861 177.459 271.35 177.721 270.892C177.996 270.433 178.435 270.067 179.037 269.792C179.653 269.517 180.478 269.379 181.512 269.379H184.812V270.734H181.591C180.648 270.734 180.013 270.892 179.685 271.206C179.358 271.52 179.194 271.9 179.194 272.345C179.194 272.856 179.397 273.268 179.803 273.583C180.209 273.884 180.772 274.034 181.492 274.034C182.2 274.034 182.815 273.877 183.339 273.563C183.876 273.249 184.262 272.79 184.498 272.188L184.871 273.484C184.622 274.1 184.183 274.591 183.555 274.958C182.926 275.311 182.134 275.488 181.178 275.488ZM195.432 264.861C196.283 264.861 197.029 265.025 197.671 265.352C198.326 265.68 198.837 266.177 199.203 266.845C199.57 267.513 199.753 268.358 199.753 269.379V275.37H197.868V269.595C197.868 268.587 197.619 267.827 197.121 267.317C196.637 266.806 195.949 266.551 195.059 266.551C194.391 266.551 193.808 266.682 193.31 266.943C192.813 267.205 192.427 267.592 192.152 268.102C191.89 268.613 191.759 269.248 191.759 270.008V275.37H189.873V264.96H191.68V267.768L191.385 267.022C191.726 266.341 192.25 265.811 192.957 265.431C193.664 265.051 194.489 264.861 195.432 264.861ZM216.266 264.861C217.104 264.861 217.844 265.025 218.486 265.352C219.127 265.68 219.625 266.177 219.979 266.845C220.345 267.513 220.528 268.358 220.528 269.379V275.37H218.643V269.595C218.643 268.587 218.407 267.827 217.936 267.317C217.464 266.806 216.803 266.551 215.952 266.551C215.323 266.551 214.773 266.682 214.302 266.943C213.83 267.205 213.464 267.592 213.202 268.102C212.953 268.613 212.829 269.248 212.829 270.008V275.37H210.943V269.595C210.943 268.587 210.707 267.827 210.236 267.317C209.777 266.806 209.116 266.551 208.252 266.551C207.636 266.551 207.093 266.682 206.622 266.943C206.15 267.205 205.783 267.592 205.522 268.102C205.26 268.613 205.129 269.248 205.129 270.008V275.37H203.243V264.96H205.05V267.729L204.755 267.022C205.083 266.341 205.587 265.811 206.268 265.431C206.949 265.051 207.741 264.861 208.645 264.861C209.64 264.861 210.498 265.11 211.218 265.608C211.938 266.092 212.41 266.832 212.632 267.827L211.866 267.513C212.18 266.714 212.73 266.073 213.516 265.588C214.302 265.104 215.218 264.861 216.266 264.861ZM228.378 275.488C227.488 275.488 226.702 275.324 226.021 274.997C225.354 274.67 224.83 274.172 224.45 273.504C224.083 272.823 223.9 271.972 223.9 270.951V264.96H225.786V270.734C225.786 271.756 226.028 272.522 226.512 273.033C227.01 273.543 227.704 273.799 228.595 273.799C229.249 273.799 229.819 273.668 230.303 273.406C230.788 273.131 231.161 272.738 231.423 272.227C231.685 271.703 231.816 271.075 231.816 270.342V264.96H233.702V275.37H231.914V272.561L232.209 273.308C231.868 274.002 231.358 274.539 230.677 274.918C229.996 275.298 229.23 275.488 228.378 275.488ZM248.086 275.488C247.196 275.488 246.39 275.292 245.67 274.899C244.963 274.493 244.4 273.897 243.981 273.111C243.575 272.326 243.372 271.343 243.372 270.165C243.372 268.986 243.581 268.004 244 267.218C244.433 266.433 245.002 265.843 245.709 265.451C246.43 265.058 247.222 264.861 248.086 264.861C249.108 264.861 250.011 265.084 250.797 265.529C251.583 265.974 252.205 266.596 252.663 267.395C253.121 268.181 253.35 269.104 253.35 270.165C253.35 271.226 253.121 272.155 252.663 272.954C252.205 273.753 251.583 274.375 250.797 274.82C250.011 275.265 249.108 275.488 248.086 275.488ZM242.567 275.37V260.795H244.452V267.729L244.256 270.145L244.374 272.561V275.37H242.567ZM247.929 273.838C248.597 273.838 249.193 273.687 249.716 273.386C250.253 273.085 250.672 272.659 250.974 272.109C251.288 271.546 251.445 270.898 251.445 270.165C251.445 269.418 251.288 268.777 250.974 268.24C250.672 267.69 250.253 267.264 249.716 266.963C249.193 266.662 248.597 266.511 247.929 266.511C247.274 266.511 246.678 266.662 246.142 266.963C245.618 267.264 245.199 267.69 244.884 268.24C244.583 268.777 244.433 269.418 244.433 270.165C244.433 270.898 244.583 271.546 244.884 272.109C245.199 272.659 245.618 273.085 246.142 273.386C246.678 273.687 247.274 273.838 247.929 273.838ZM260.591 275.488C259.478 275.488 258.496 275.259 257.645 274.8C256.807 274.342 256.152 273.714 255.681 272.915C255.222 272.116 254.993 271.199 254.993 270.165C254.993 269.13 255.216 268.214 255.661 267.415C256.119 266.616 256.741 265.994 257.527 265.549C258.326 265.09 259.223 264.861 260.218 264.861C261.227 264.861 262.117 265.084 262.89 265.529C263.662 265.974 264.265 266.603 264.697 267.415C265.142 268.214 265.365 269.15 265.365 270.224C265.365 270.302 265.358 270.394 265.345 270.499C265.345 270.604 265.338 270.702 265.325 270.793H256.466V269.438H264.343L263.577 269.909C263.59 269.242 263.453 268.646 263.165 268.122C262.877 267.598 262.477 267.192 261.966 266.904C261.469 266.603 260.886 266.452 260.218 266.452C259.563 266.452 258.981 266.603 258.47 266.904C257.959 267.192 257.56 267.605 257.272 268.142C256.984 268.665 256.84 269.268 256.84 269.949V270.263C256.84 270.957 256.997 271.579 257.311 272.129C257.638 272.666 258.09 273.085 258.666 273.386C259.243 273.687 259.904 273.838 260.65 273.838C261.266 273.838 261.822 273.733 262.32 273.524C262.831 273.314 263.276 273 263.656 272.581L264.697 273.799C264.225 274.349 263.636 274.768 262.929 275.056C262.235 275.344 261.456 275.488 260.591 275.488ZM267.983 275.37V264.96H269.79V267.788L269.613 267.081C269.901 266.361 270.386 265.811 271.067 265.431C271.748 265.051 272.586 264.861 273.581 264.861V266.688C273.503 266.675 273.424 266.668 273.345 266.668C273.28 266.668 273.214 266.668 273.149 266.668C272.141 266.668 271.342 266.97 270.753 267.572C270.163 268.174 269.869 269.045 269.869 270.184V275.37H267.983ZM281.6 275.37V273.17L281.502 272.758V269.006C281.502 268.207 281.266 267.592 280.795 267.16C280.337 266.714 279.643 266.492 278.713 266.492C278.097 266.492 277.495 266.596 276.906 266.806C276.317 267.002 275.819 267.271 275.413 267.611L274.627 266.197C275.164 265.765 275.806 265.438 276.552 265.215C277.312 264.979 278.104 264.861 278.929 264.861C280.356 264.861 281.456 265.208 282.229 265.902C283.002 266.596 283.388 267.657 283.388 269.084V275.37H281.6ZM278.183 275.488C277.41 275.488 276.729 275.357 276.14 275.095C275.564 274.833 275.118 274.473 274.804 274.015C274.49 273.543 274.333 273.013 274.333 272.424C274.333 271.861 274.464 271.35 274.725 270.892C275 270.433 275.439 270.067 276.042 269.792C276.657 269.517 277.482 269.379 278.517 269.379H281.816V270.734H278.595C277.652 270.734 277.017 270.892 276.69 271.206C276.362 271.52 276.199 271.9 276.199 272.345C276.199 272.856 276.402 273.268 276.808 273.583C277.214 273.884 277.777 274.034 278.497 274.034C279.204 274.034 279.819 273.877 280.343 273.563C280.88 273.249 281.266 272.79 281.502 272.188L281.875 273.484C281.627 274.1 281.188 274.591 280.559 274.958C279.931 275.311 279.139 275.488 278.183 275.488ZM286.878 275.37V264.96H288.685V267.788L288.508 267.081C288.796 266.361 289.28 265.811 289.961 265.431C290.642 265.051 291.48 264.861 292.476 264.861V266.688C292.397 266.675 292.319 266.668 292.24 266.668C292.174 266.668 292.109 266.668 292.044 266.668C291.035 266.668 290.236 266.97 289.647 267.572C289.058 268.174 288.763 269.045 288.763 270.184V275.37H286.878ZM298.797 275.488C297.749 275.488 296.937 275.206 296.361 274.643C295.785 274.08 295.497 273.275 295.497 272.227V262.681H297.382V272.149C297.382 272.712 297.52 273.144 297.795 273.445C298.083 273.746 298.489 273.897 299.013 273.897C299.602 273.897 300.093 273.733 300.486 273.406L301.075 274.761C300.787 275.01 300.44 275.193 300.034 275.311C299.641 275.429 299.229 275.488 298.797 275.488ZM293.729 266.511V264.96H300.368V266.511H293.729ZM303.355 275.37V264.96H305.241V275.37H303.355ZM304.298 262.956C303.931 262.956 303.623 262.838 303.375 262.602C303.139 262.367 303.021 262.079 303.021 261.738C303.021 261.385 303.139 261.09 303.375 260.854C303.623 260.619 303.931 260.501 304.298 260.501C304.665 260.501 304.966 260.619 305.201 260.854C305.45 261.077 305.575 261.358 305.575 261.699C305.575 262.052 305.457 262.354 305.221 262.602C304.985 262.838 304.678 262.956 304.298 262.956ZM31.6246 302.488C30.6163 302.488 29.7127 302.265 28.9139 301.82C28.1282 301.375 27.5062 300.753 27.0479 299.954C26.5896 299.155 26.3604 298.226 26.3604 297.165C26.3604 296.104 26.5896 295.181 27.0479 294.395C27.5062 293.596 28.1282 292.974 28.9139 292.529C29.7127 292.084 30.6163 291.861 31.6246 291.861C32.502 291.861 33.2942 292.058 34.0014 292.451C34.7085 292.843 35.2716 293.433 35.6906 294.218C36.1228 295.004 36.3388 295.986 36.3388 297.165C36.3388 298.343 36.1293 299.326 35.7103 300.111C35.3043 300.897 34.7478 301.493 34.0406 301.899C33.3335 302.292 32.5282 302.488 31.6246 302.488ZM31.7817 300.838C32.4365 300.838 33.0258 300.687 33.5496 300.386C34.0865 300.085 34.5055 299.659 34.8067 299.109C35.121 298.546 35.2781 297.898 35.2781 297.165C35.2781 296.418 35.121 295.777 34.8067 295.24C34.5055 294.69 34.0865 294.264 33.5496 293.963C33.0258 293.662 32.4365 293.511 31.7817 293.511C31.1139 293.511 30.5181 293.662 29.9943 293.963C29.4705 294.264 29.0514 294.69 28.7371 295.24C28.4229 295.777 28.2657 296.418 28.2657 297.165C28.2657 297.898 28.4229 298.546 28.7371 299.109C29.0514 299.659 29.4705 300.085 29.9943 300.386C30.5181 300.687 31.1139 300.838 31.7817 300.838ZM35.3371 302.37V299.561L35.4549 297.145L35.2585 294.729V287.795H37.1442V302.37H35.3371ZM45.0924 302.488C44.2019 302.488 43.4162 302.324 42.7353 301.997C42.0674 301.67 41.5436 301.172 41.1638 300.504C40.7972 299.823 40.6139 298.972 40.6139 297.951V291.96H42.4995V297.734C42.4995 298.756 42.7418 299.522 43.2263 300.033C43.7239 300.543 44.418 300.799 45.3084 300.799C45.9632 300.799 46.5328 300.668 47.0173 300.406C47.5019 300.131 47.8751 299.738 48.137 299.227C48.3989 298.703 48.5298 298.075 48.5298 297.342V291.96H50.4155V302.37H48.628V299.561L48.9227 300.308C48.5822 301.002 48.0715 301.539 47.3905 301.918C46.7096 302.298 45.9435 302.488 45.0924 302.488ZM55.5375 299.856L55.5768 297.44L61.5677 291.96H63.8463L59.2499 296.477L58.2285 297.342L55.5375 299.856ZM54.0053 302.37V287.795H55.891V302.37H54.0053ZM61.9606 302.37L57.8749 297.302L59.0928 295.79L64.2784 302.37H61.9606ZM70.2978 302.488C69.4073 302.488 68.6216 302.324 67.9407 301.997C67.2728 301.67 66.749 301.172 66.3693 300.504C66.0026 299.823 65.8193 298.972 65.8193 297.951V291.96H67.705V297.734C67.705 298.756 67.9472 299.522 68.4318 300.033C68.9294 300.543 69.6234 300.799 70.5139 300.799C71.1686 300.799 71.7383 300.668 72.2228 300.406C72.7073 300.131 73.0805 299.738 73.3424 299.227C73.6043 298.703 73.7353 298.075 73.7353 297.342V291.96H75.6209V302.37H73.8335V299.561L74.1281 300.308C73.7876 301.002 73.2769 301.539 72.596 301.918C71.915 302.298 71.149 302.488 70.2978 302.488ZM84.7696 291.861C85.6208 291.861 86.3672 292.025 87.0089 292.352C87.6636 292.68 88.1744 293.177 88.541 293.845C88.9077 294.513 89.091 295.358 89.091 296.379V302.37H87.2053V296.595C87.2053 295.587 86.9565 294.827 86.4589 294.317C85.9744 293.806 85.2869 293.551 84.3964 293.551C83.7286 293.551 83.1458 293.682 82.6482 293.943C82.1506 294.205 81.7643 294.592 81.4893 295.102C81.2274 295.613 81.0965 296.248 81.0965 297.008V302.37H79.2108V291.96H81.0179V294.768L80.7233 294.022C81.0637 293.341 81.5875 292.811 82.2947 292.431C83.0018 292.051 83.8268 291.861 84.7696 291.861ZM97.1379 306.299C96.1819 306.299 95.2522 306.161 94.3486 305.886C93.4582 305.624 92.7314 305.244 92.1683 304.747L93.0719 303.293C93.5564 303.712 94.1522 304.04 94.8593 304.275C95.5665 304.524 96.3063 304.649 97.0789 304.649C98.3099 304.649 99.2134 304.361 99.7896 303.784C100.366 303.208 100.654 302.331 100.654 301.152V298.952L100.85 296.89L100.752 294.808V291.96H102.54V300.956C102.54 302.789 102.081 304.138 101.165 305.002C100.248 305.866 98.9057 306.299 97.1379 306.299ZM96.9022 301.938C95.8938 301.938 94.9903 301.728 94.1915 301.309C93.4058 300.877 92.7772 300.281 92.3058 299.522C91.8475 298.762 91.6183 297.885 91.6183 296.89C91.6183 295.882 91.8475 295.004 92.3058 294.258C92.7772 293.498 93.4058 292.909 94.1915 292.49C94.9903 292.071 95.8938 291.861 96.9022 291.861C97.7926 291.861 98.6045 292.045 99.3378 292.411C100.071 292.765 100.654 293.315 101.086 294.061C101.531 294.808 101.754 295.751 101.754 296.89C101.754 298.016 101.531 298.952 101.086 299.699C100.654 300.445 100.071 301.008 99.3378 301.388C98.6045 301.755 97.7926 301.938 96.9022 301.938ZM97.1182 300.288C97.8123 300.288 98.4277 300.144 98.9646 299.856C99.5015 299.568 99.9206 299.168 100.222 298.658C100.536 298.147 100.693 297.558 100.693 296.89C100.693 296.222 100.536 295.633 100.222 295.122C99.9206 294.611 99.5015 294.218 98.9646 293.943C98.4277 293.655 97.8123 293.511 97.1182 293.511C96.4242 293.511 95.8022 293.655 95.2522 293.943C94.7153 294.218 94.2897 294.611 93.9754 295.122C93.6742 295.633 93.5236 296.222 93.5236 296.89C93.5236 297.558 93.6742 298.147 93.9754 298.658C94.2897 299.168 94.7153 299.568 95.2522 299.856C95.8022 300.144 96.4242 300.288 97.1182 300.288ZM112.605 302.37V300.17L112.507 299.758V296.006C112.507 295.207 112.271 294.592 111.8 294.16C111.341 293.714 110.647 293.492 109.718 293.492C109.102 293.492 108.5 293.596 107.91 293.806C107.321 294.002 106.824 294.271 106.418 294.611L105.632 293.197C106.169 292.765 106.81 292.438 107.557 292.215C108.316 291.979 109.109 291.861 109.934 291.861C111.361 291.861 112.461 292.208 113.234 292.902C114.006 293.596 114.393 294.657 114.393 296.084V302.37H112.605ZM109.187 302.488C108.415 302.488 107.734 302.357 107.144 302.095C106.568 301.833 106.123 301.473 105.809 301.015C105.494 300.543 105.337 300.013 105.337 299.424C105.337 298.861 105.468 298.35 105.73 297.892C106.005 297.433 106.444 297.067 107.046 296.792C107.662 296.517 108.487 296.379 109.521 296.379H112.821V297.734H109.6C108.657 297.734 108.022 297.892 107.694 298.206C107.367 298.52 107.203 298.9 107.203 299.345C107.203 299.856 107.406 300.268 107.812 300.583C108.218 300.884 108.781 301.034 109.502 301.034C110.209 301.034 110.824 300.877 111.348 300.563C111.885 300.249 112.271 299.79 112.507 299.188L112.88 300.484C112.631 301.1 112.193 301.591 111.564 301.958C110.935 302.311 110.143 302.488 109.187 302.488ZM123.441 291.861C124.292 291.861 125.039 292.025 125.68 292.352C126.335 292.68 126.846 293.177 127.212 293.845C127.579 294.513 127.762 295.358 127.762 296.379V302.37H125.877V296.595C125.877 295.587 125.628 294.827 125.13 294.317C124.646 293.806 123.958 293.551 123.068 293.551C122.4 293.551 121.817 293.682 121.32 293.943C120.822 294.205 120.436 294.592 120.161 295.102C119.899 295.613 119.768 296.248 119.768 297.008V302.37H117.882V291.96H119.689V294.768L119.395 294.022C119.735 293.341 120.259 292.811 120.966 292.431C121.673 292.051 122.498 291.861 123.441 291.861ZM142.086 291.861C142.937 291.861 143.684 292.025 144.325 292.352C144.98 292.68 145.491 293.177 145.857 293.845C146.224 294.513 146.407 295.358 146.407 296.379V302.37H144.522V296.595C144.522 295.587 144.273 294.827 143.775 294.317C143.291 293.806 142.603 293.551 141.713 293.551C141.045 293.551 140.462 293.682 139.965 293.943C139.467 294.205 139.081 294.592 138.806 295.102C138.544 295.613 138.413 296.248 138.413 297.008V302.37H136.527V291.96H138.334V294.768L138.04 294.022C138.38 293.341 138.904 292.811 139.611 292.431C140.318 292.051 141.143 291.861 142.086 291.861ZM150.157 306.299C149.66 306.299 149.175 306.214 148.704 306.043C148.232 305.886 147.826 305.65 147.486 305.336L148.291 303.922C148.553 304.171 148.841 304.361 149.155 304.492C149.47 304.622 149.804 304.688 150.157 304.688C150.616 304.688 150.995 304.57 151.296 304.334C151.598 304.099 151.879 303.68 152.141 303.077L152.789 301.643L152.986 301.408L157.071 291.96H158.918L153.87 303.411C153.568 304.144 153.228 304.721 152.848 305.14C152.482 305.559 152.076 305.853 151.63 306.024C151.185 306.207 150.694 306.299 150.157 306.299ZM152.632 302.704L147.879 291.96H149.843L153.889 301.231L152.632 302.704ZM166.814 302.37V300.17L166.716 299.758V296.006C166.716 295.207 166.48 294.592 166.009 294.16C165.55 293.714 164.856 293.492 163.927 293.492C163.311 293.492 162.709 293.596 162.119 293.806C161.53 294.002 161.033 294.271 160.627 294.611L159.841 293.197C160.378 292.765 161.019 292.438 161.766 292.215C162.525 291.979 163.318 291.861 164.143 291.861C165.57 291.861 166.67 292.208 167.443 292.902C168.215 293.596 168.601 294.657 168.601 296.084V302.37H166.814ZM163.396 302.488C162.624 302.488 161.943 302.357 161.353 302.095C160.777 301.833 160.332 301.473 160.018 301.015C159.703 300.543 159.546 300.013 159.546 299.424C159.546 298.861 159.677 298.35 159.939 297.892C160.214 297.433 160.653 297.067 161.255 296.792C161.871 296.517 162.696 296.379 163.73 296.379H167.03V297.734H163.809C162.866 297.734 162.231 297.892 161.903 298.206C161.576 298.52 161.412 298.9 161.412 299.345C161.412 299.856 161.615 300.268 162.021 300.583C162.427 300.884 162.99 301.034 163.71 301.034C164.418 301.034 165.033 300.877 165.557 300.563C166.094 300.249 166.48 299.79 166.716 299.188L167.089 300.484C166.84 301.1 166.401 301.591 165.773 301.958C165.144 302.311 164.352 302.488 163.396 302.488ZM175.666 302.488C174.618 302.488 173.807 302.206 173.23 301.643C172.654 301.08 172.366 300.275 172.366 299.227V289.681H174.252V299.149C174.252 299.712 174.389 300.144 174.664 300.445C174.952 300.746 175.358 300.897 175.882 300.897C176.471 300.897 176.962 300.733 177.355 300.406L177.945 301.761C177.656 302.01 177.309 302.193 176.904 302.311C176.511 302.429 176.098 302.488 175.666 302.488ZM170.598 293.511V291.96H177.237V293.511H170.598ZM186.687 302.37V300.17L186.589 299.758V296.006C186.589 295.207 186.353 294.592 185.881 294.16C185.423 293.714 184.729 293.492 183.799 293.492C183.184 293.492 182.581 293.596 181.992 293.806C181.403 294.002 180.905 294.271 180.499 294.611L179.714 293.197C180.251 292.765 180.892 292.438 181.639 292.215C182.398 291.979 183.19 291.861 184.015 291.861C185.443 291.861 186.543 292.208 187.315 292.902C188.088 293.596 188.474 294.657 188.474 296.084V302.37H186.687ZM183.269 302.488C182.496 302.488 181.815 302.357 181.226 302.095C180.65 301.833 180.205 301.473 179.89 301.015C179.576 300.543 179.419 300.013 179.419 299.424C179.419 298.861 179.55 298.35 179.812 297.892C180.087 297.433 180.526 297.067 181.128 296.792C181.743 296.517 182.568 296.379 183.603 296.379H186.903V297.734H183.681C182.739 297.734 182.103 297.892 181.776 298.206C181.449 298.52 181.285 298.9 181.285 299.345C181.285 299.856 181.488 300.268 181.894 300.583C182.3 300.884 182.863 301.034 183.583 301.034C184.29 301.034 184.906 300.877 185.43 300.563C185.967 300.249 186.353 299.79 186.589 299.188L186.962 300.484C186.713 301.1 186.274 301.591 185.646 301.958C185.017 302.311 184.225 302.488 183.269 302.488ZM201.619 302.488C200.729 302.488 199.943 302.324 199.262 301.997C198.594 301.67 198.071 301.172 197.691 300.504C197.324 299.823 197.141 298.972 197.141 297.951V291.96H199.026V297.734C199.026 298.756 199.269 299.522 199.753 300.033C200.251 300.543 200.945 300.799 201.835 300.799C202.49 300.799 203.06 300.668 203.544 300.406C204.029 300.131 204.402 299.738 204.664 299.227C204.926 298.703 205.057 298.075 205.057 297.342V291.96H206.942V302.37H205.155V299.561L205.45 300.308C205.109 301.002 204.598 301.539 203.917 301.918C203.237 302.298 202.47 302.488 201.619 302.488ZM216.091 291.861C216.942 291.861 217.689 292.025 218.33 292.352C218.985 292.68 219.496 293.177 219.862 293.845C220.229 294.513 220.412 295.358 220.412 296.379V302.37H218.527V296.595C218.527 295.587 218.278 294.827 217.78 294.317C217.296 293.806 216.608 293.551 215.718 293.551C215.05 293.551 214.467 293.682 213.97 293.943C213.472 294.205 213.086 294.592 212.811 295.102C212.549 295.613 212.418 296.248 212.418 297.008V302.37H210.532V291.96H212.339V294.768L212.045 294.022C212.385 293.341 212.909 292.811 213.616 292.431C214.323 292.051 215.148 291.861 216.091 291.861ZM227.477 302.488C226.43 302.488 225.618 302.206 225.042 301.643C224.465 301.08 224.177 300.275 224.177 299.227V289.681H226.063V299.149C226.063 299.712 226.2 300.144 226.475 300.445C226.764 300.746 227.169 300.897 227.693 300.897C228.283 300.897 228.774 300.733 229.166 300.406L229.756 301.761C229.468 302.01 229.121 302.193 228.715 302.311C228.322 302.429 227.909 302.488 227.477 302.488ZM222.409 293.511V291.96H229.049V293.511H222.409ZM236.416 302.488C235.525 302.488 234.74 302.324 234.059 301.997C233.391 301.67 232.867 301.172 232.487 300.504C232.121 299.823 231.937 298.972 231.937 297.951V291.96H233.823V297.734C233.823 298.756 234.065 299.522 234.55 300.033C235.047 300.543 235.741 300.799 236.632 300.799C237.287 300.799 237.856 300.668 238.341 300.406C238.825 300.131 239.199 299.738 239.46 299.227C239.722 298.703 239.853 298.075 239.853 297.342V291.96H241.739V302.37H239.952V299.561L240.246 300.308C239.906 301.002 239.395 301.539 238.714 301.918C238.033 302.298 237.267 302.488 236.416 302.488ZM246.861 299.856L246.9 297.44L252.891 291.96H255.17L250.573 296.477L249.552 297.342L246.861 299.856ZM245.329 302.37V287.795H247.215V302.37H245.329ZM253.284 302.37L249.198 297.302L250.416 295.79L255.602 302.37H253.284ZM264.24 299.856L264.279 297.44L270.27 291.96H272.549L267.952 296.477L266.931 297.342L264.24 299.856ZM262.708 302.37V287.795H264.594V302.37H262.708ZM270.663 302.37L266.577 297.302L267.795 295.79L272.981 302.37H270.663ZM281.082 302.37V300.17L280.984 299.758V296.006C280.984 295.207 280.749 294.592 280.277 294.16C279.819 293.714 279.125 293.492 278.195 293.492C277.58 293.492 276.977 293.596 276.388 293.806C275.799 294.002 275.301 294.271 274.895 294.611L274.109 293.197C274.646 292.765 275.288 292.438 276.034 292.215C276.794 291.979 277.586 291.861 278.411 291.861C279.838 291.861 280.938 292.208 281.711 292.902C282.484 293.596 282.87 294.657 282.87 296.084V302.37H281.082ZM277.665 302.488C276.892 302.488 276.211 302.357 275.622 302.095C275.046 301.833 274.6 301.473 274.286 301.015C273.972 300.543 273.815 300.013 273.815 299.424C273.815 298.861 273.946 298.35 274.208 297.892C274.483 297.433 274.921 297.067 275.524 296.792C276.139 296.517 276.964 296.379 277.999 296.379H281.299V297.734H278.077C277.134 297.734 276.499 297.892 276.172 298.206C275.844 298.52 275.681 298.9 275.681 299.345C275.681 299.856 275.884 300.268 276.29 300.583C276.696 300.884 277.259 301.034 277.979 301.034C278.686 301.034 279.302 300.877 279.825 300.563C280.362 300.249 280.749 299.79 280.984 299.188L281.357 300.484C281.109 301.1 280.67 301.591 280.041 301.958C279.413 302.311 278.621 302.488 277.665 302.488ZM299.383 291.861C300.221 291.861 300.961 292.025 301.602 292.352C302.244 292.68 302.742 293.177 303.095 293.845C303.462 294.513 303.645 295.358 303.645 296.379V302.37H301.759V296.595C301.759 295.587 301.524 294.827 301.052 294.317C300.581 293.806 299.92 293.551 299.068 293.551C298.44 293.551 297.89 293.682 297.418 293.943C296.947 294.205 296.58 294.592 296.318 295.102C296.07 295.613 295.945 296.248 295.945 297.008V302.37H294.059V296.595C294.059 295.587 293.824 294.827 293.352 294.317C292.894 293.806 292.233 293.551 291.368 293.551C290.753 293.551 290.21 293.682 289.738 293.943C289.267 294.205 288.9 294.592 288.638 295.102C288.376 295.613 288.245 296.248 288.245 297.008V302.37H286.36V291.96H288.167V294.729L287.872 294.022C288.199 293.341 288.704 292.811 289.385 292.431C290.065 292.051 290.858 291.861 291.761 291.861C292.757 291.861 293.614 292.11 294.334 292.608C295.055 293.092 295.526 293.832 295.749 294.827L294.983 294.513C295.297 293.714 295.847 293.073 296.633 292.588C297.418 292.104 298.335 291.861 299.383 291.861ZM307.115 302.37V291.96H309V302.37H307.115ZM308.058 289.956C307.691 289.956 307.383 289.838 307.134 289.602C306.899 289.367 306.781 289.079 306.781 288.738C306.781 288.385 306.899 288.09 307.134 287.854C307.383 287.619 307.691 287.501 308.058 287.501C308.424 287.501 308.725 287.619 308.961 287.854C309.21 288.077 309.334 288.358 309.334 288.699C309.334 289.052 309.217 289.354 308.981 289.602C308.745 289.838 308.437 289.956 308.058 289.956ZM317.876 302.37V287.795H319.762V302.37H317.876ZM328.921 291.861C329.772 291.861 330.519 292.025 331.16 292.352C331.815 292.68 332.326 293.177 332.692 293.845C333.059 294.513 333.242 295.358 333.242 296.379V302.37H331.357V296.595C331.357 295.587 331.108 294.827 330.61 294.317C330.126 293.806 329.438 293.551 328.548 293.551C327.88 293.551 327.297 293.682 326.8 293.943C326.302 294.205 325.916 294.592 325.641 295.102C325.379 295.613 325.248 296.248 325.248 297.008V302.37H323.362V287.795H325.248V294.768L324.875 294.022C325.215 293.341 325.739 292.811 326.446 292.431C327.153 292.051 327.978 291.861 328.921 291.861ZM341.191 302.488C340.143 302.488 339.214 302.259 338.402 301.8C337.59 301.342 336.948 300.714 336.477 299.915C336.005 299.103 335.77 298.186 335.77 297.165C335.77 296.13 336.005 295.214 336.477 294.415C336.948 293.616 337.59 292.994 338.402 292.549C339.214 292.09 340.143 291.861 341.191 291.861C342.225 291.861 343.149 292.09 343.961 292.549C344.786 292.994 345.427 293.616 345.886 294.415C346.357 295.201 346.593 296.117 346.593 297.165C346.593 298.199 346.357 299.116 345.886 299.915C345.427 300.714 344.786 301.342 343.961 301.8C343.149 302.259 342.225 302.488 341.191 302.488ZM341.191 300.838C341.859 300.838 342.455 300.687 342.978 300.386C343.515 300.085 343.934 299.659 344.236 299.109C344.537 298.546 344.687 297.898 344.687 297.165C344.687 296.418 344.537 295.777 344.236 295.24C343.934 294.69 343.515 294.264 342.978 293.963C342.455 293.662 341.859 293.511 341.191 293.511C340.523 293.511 339.927 293.662 339.403 293.963C338.88 294.264 338.461 294.69 338.146 295.24C337.832 295.777 337.675 296.418 337.675 297.165C337.675 297.898 337.832 298.546 338.146 299.109C338.461 299.659 338.88 300.085 339.403 300.386C339.927 300.687 340.523 300.838 341.191 300.838ZM349.299 298.029L348.945 288.62H351.165L350.792 298.029H349.299ZM350.065 302.488C349.698 302.488 349.39 302.364 349.142 302.115C348.893 301.866 348.768 301.571 348.768 301.231C348.768 300.864 348.893 300.563 349.142 300.327C349.39 300.092 349.698 299.974 350.065 299.974C350.431 299.974 350.733 300.092 350.968 300.327C351.204 300.563 351.322 300.864 351.322 301.231C351.322 301.571 351.204 301.866 350.968 302.115C350.733 302.364 350.431 302.488 350.065 302.488Z" fill="#F5F5F5"/>
<path d="M616.967 126.523L491.723 251.153L643.191 460.071L921.827 539.216L992.887 9.13804L638.158 -54.7775L563.201 39.9937L616.967 126.523Z" fill="#171717" stroke="black" stroke-width="0.98213"/>
<ellipse cx="769.521" cy="221.124" rx="20.0775" ry="20.0763" transform="rotate(-9.39712 769.521 221.124)" fill="#C6FF33"/>
<ellipse cx="834.729" cy="322.358" rx="16.2532" ry="16.2522" transform="rotate(-9.39712 834.729 322.358)" fill="#C6FF33"/>
<ellipse cx="740.405" cy="337.968" rx="16.2532" ry="16.2522" transform="rotate(-9.39712 740.405 337.968)" fill="#C6FF33"/>
<path fill-rule="evenodd" clip-rule="evenodd" d="M700.193 95.579C733.064 90.1391 764.121 112.375 769.561 145.244C774.015 172.155 759.915 197.85 736.617 209.267C735.902 207.851 735.168 206.435 734.412 205.022C712.753 164.537 680.587 137.2 653.74 133.404C661.185 114.136 678.338 99.1958 700.193 95.579Z" fill="#C6FF33"/>
<path fill-rule="evenodd" clip-rule="evenodd" d="M638.253 139.861C649.389 139.412 661.827 143.61 674.272 151.595C674.514 151.751 674.757 151.907 675 152.065C675.203 152.198 675.407 152.331 675.61 152.465C675.9 152.658 676.189 152.853 676.479 153.05C676.715 153.209 676.95 153.37 677.185 153.532C677.433 153.703 677.681 153.876 677.929 154.049C678.173 154.221 678.417 154.393 678.661 154.567C678.917 154.75 679.175 154.934 679.431 155.12C679.646 155.276 679.861 155.434 680.076 155.593C680.424 155.849 680.772 156.107 681.12 156.369C681.228 156.451 681.335 156.533 681.444 156.615C681.738 156.839 682.032 157.065 682.327 157.293C682.518 157.441 682.711 157.589 682.902 157.739C683.253 158.013 683.602 158.291 683.952 158.571C684.131 158.714 684.309 158.858 684.488 159.003C684.701 159.176 684.915 159.351 685.128 159.527C685.449 159.79 685.77 160.055 686.09 160.323C686.315 160.511 686.54 160.7 686.765 160.891C686.938 161.038 687.111 161.185 687.283 161.333C687.621 161.622 687.959 161.914 688.296 162.209C688.487 162.376 688.678 162.544 688.869 162.712C689.141 162.953 689.412 163.196 689.684 163.44C689.897 163.631 690.109 163.824 690.322 164.017C690.597 164.267 690.871 164.519 691.145 164.772C691.322 164.935 691.499 165.099 691.676 165.264C692.026 165.591 692.375 165.92 692.724 166.253C692.877 166.398 693.029 166.544 693.182 166.691C693.465 166.963 693.748 167.237 694.03 167.513C694.235 167.713 694.44 167.914 694.644 168.115C694.916 168.384 695.187 168.653 695.458 168.925C695.639 169.107 695.82 169.289 696.001 169.472C696.366 169.841 696.731 170.214 697.094 170.589C697.187 170.685 697.278 170.781 697.371 170.877C697.704 171.224 698.037 171.573 698.369 171.925C698.48 172.042 698.591 172.159 698.702 172.276C699.064 172.661 699.424 173.049 699.784 173.44C699.945 173.615 700.105 173.789 700.265 173.965C700.552 174.279 700.839 174.596 701.125 174.914C701.3 175.109 701.475 175.305 701.65 175.501C701.95 175.839 702.25 176.178 702.549 176.52C702.667 176.655 702.786 176.789 702.904 176.925C703.266 177.341 703.626 177.762 703.986 178.184C704.104 178.322 704.223 178.461 704.34 178.6C704.703 179.028 705.065 179.458 705.425 179.892C705.53 180.018 705.633 180.144 705.737 180.27C706.061 180.662 706.383 181.056 706.705 181.452C706.787 181.553 706.87 181.654 706.952 181.756C707.337 182.232 707.72 182.712 708.102 183.196C708.225 183.351 708.347 183.507 708.47 183.663C708.782 184.061 709.094 184.461 709.405 184.864C709.517 185.01 709.63 185.156 709.743 185.303C710.064 185.722 710.384 186.143 710.703 186.567C710.817 186.718 710.93 186.868 711.043 187.02C711.413 187.514 711.781 188.012 712.148 188.513C712.213 188.602 712.278 188.692 712.344 188.781C712.69 189.256 713.035 189.732 713.378 190.213C713.442 190.302 713.506 190.391 713.57 190.481C713.948 191.011 714.325 191.546 714.699 192.083C714.761 192.172 714.822 192.26 714.884 192.349C715.269 192.903 715.653 193.46 716.034 194.021C716.079 194.088 716.124 194.154 716.169 194.221C716.51 194.725 716.849 195.233 717.188 195.743C717.258 195.848 717.328 195.953 717.397 196.059C717.754 196.598 718.108 197.14 718.461 197.686C718.54 197.809 718.62 197.933 718.699 198.056C719.042 198.589 719.383 199.125 719.722 199.664C719.796 199.781 719.869 199.899 719.943 200.016C720.251 200.508 720.557 201.003 720.863 201.499C720.94 201.626 721.018 201.752 721.096 201.879C721.439 202.441 721.781 203.007 722.121 203.576C722.189 203.689 722.256 203.803 722.324 203.916C723.046 205.13 723.758 206.358 724.461 207.599C724.51 207.685 724.559 207.77 724.607 207.856C724.957 208.477 725.306 209.101 725.651 209.728C725.691 209.8 725.73 209.871 725.769 209.942C726.125 210.591 726.479 211.243 726.83 211.898C727.742 213.603 728.624 215.311 729.477 217.02C729.617 217.3 729.754 217.582 729.893 217.863C730.051 218.185 730.211 218.506 730.367 218.827C730.467 219.032 730.564 219.237 730.663 219.441C730.832 219.791 731.001 220.141 731.167 220.491C731.28 220.728 731.391 220.966 731.503 221.203C731.658 221.532 731.811 221.861 731.964 222.19C732.104 222.492 732.242 222.794 732.38 223.096C732.512 223.384 732.644 223.672 732.775 223.96C732.885 224.204 732.994 224.448 733.103 224.692C733.259 225.043 733.415 225.393 733.57 225.743C733.662 225.954 733.754 226.164 733.845 226.375C734.006 226.744 734.166 227.113 734.325 227.482C734.409 227.68 734.493 227.878 734.577 228.076C734.724 228.422 734.87 228.767 735.014 229.113C735.141 229.416 735.267 229.719 735.391 230.023C735.491 230.264 735.589 230.505 735.687 230.747C735.829 231.094 735.968 231.441 736.107 231.788C736.2 232.019 736.291 232.25 736.382 232.481C736.51 232.804 736.638 233.126 736.763 233.449C736.86 233.698 736.956 233.947 737.051 234.196C737.18 234.532 737.309 234.867 737.436 235.203C737.512 235.406 737.588 235.609 737.664 235.811C737.797 236.167 737.929 236.523 738.059 236.878C738.158 237.147 738.255 237.416 738.352 237.685C738.453 237.963 738.553 238.241 738.651 238.518C738.75 238.795 738.847 239.072 738.944 239.349C739.062 239.686 739.18 240.022 739.295 240.358C739.352 240.523 739.408 240.689 739.465 240.854C739.598 241.247 739.732 241.638 739.862 242.03C739.909 242.172 739.956 242.313 740.003 242.455C740.137 242.861 740.27 243.267 740.401 243.673C740.472 243.892 740.541 244.111 740.611 244.329C740.719 244.67 740.827 245.011 740.934 245.352C741.021 245.632 741.107 245.912 741.192 246.192C741.274 246.458 741.355 246.724 741.435 246.99C741.541 247.341 741.644 247.692 741.747 248.042C741.81 248.257 741.874 248.471 741.937 248.685C742.141 249.389 742.339 250.093 742.532 250.795C743.364 253.811 744.098 256.799 744.734 259.753C744.772 259.926 744.809 260.1 744.846 260.274C744.914 260.591 744.978 260.909 745.043 261.226C745.093 261.466 745.143 261.706 745.191 261.946C745.265 262.313 745.336 262.681 745.406 263.047C745.434 263.19 745.462 263.332 745.489 263.474C745.561 263.857 745.631 264.24 745.701 264.622C745.731 264.789 745.762 264.955 745.792 265.122C745.858 265.491 745.92 265.86 745.983 266.227C746.011 266.392 746.039 266.556 746.067 266.72C746.121 267.044 746.173 267.367 746.224 267.69C746.258 267.905 746.293 268.119 746.327 268.333C746.377 268.658 746.425 268.982 746.473 269.305C746.504 269.515 746.534 269.724 746.564 269.933C746.606 270.231 746.648 270.529 746.689 270.826C746.722 271.069 746.754 271.311 746.785 271.554C746.819 271.808 746.851 272.063 746.883 272.316C746.913 272.559 746.942 272.801 746.971 273.042C747.011 273.378 747.051 273.712 747.088 274.046C747.109 274.233 747.129 274.419 747.149 274.606C747.186 274.952 747.222 275.298 747.256 275.643C747.272 275.804 747.287 275.965 747.302 276.125C747.334 276.461 747.365 276.796 747.395 277.131C747.411 277.319 747.427 277.506 747.442 277.694C747.468 278.004 747.493 278.313 747.517 278.622C747.534 278.848 747.549 279.074 747.564 279.3C747.584 279.584 747.605 279.868 747.622 280.151C747.636 280.365 747.647 280.577 747.66 280.79C747.676 281.075 747.692 281.36 747.706 281.644C747.717 281.862 747.726 282.08 747.736 282.297C747.749 282.597 747.762 282.896 747.772 283.194C747.775 283.267 747.778 283.339 747.781 283.412C747.796 283.855 747.809 284.296 747.819 284.737C747.82 284.803 747.821 284.87 747.822 284.937C747.831 285.337 747.838 285.735 747.842 286.132C747.844 286.32 747.844 286.507 747.845 286.693C747.846 286.989 747.848 287.285 747.847 287.58C747.846 287.721 747.845 287.862 747.844 288.003C747.822 290.944 747.677 293.803 747.41 296.571C747.383 296.85 747.356 297.128 747.326 297.405C747.302 297.629 747.276 297.851 747.251 298.074C747.227 298.277 747.204 298.481 747.179 298.683C747.139 299.01 747.097 299.336 747.054 299.66C747.037 299.787 747.021 299.914 747.003 300.041C746.965 300.314 746.925 300.587 746.885 300.858C746.859 301.033 746.832 301.208 746.805 301.382C746.772 301.596 746.737 301.81 746.702 302.023C746.665 302.25 746.627 302.476 746.588 302.702C746.549 302.931 746.508 303.158 746.467 303.385C746.433 303.571 746.399 303.756 746.363 303.94C746.313 304.205 746.261 304.469 746.207 304.732C746.173 304.901 746.139 305.069 746.104 305.237C746.053 305.481 746 305.723 745.946 305.965C745.909 306.133 745.873 306.3 745.834 306.467C745.781 306.703 745.726 306.938 745.67 307.172C745.624 307.364 745.578 307.556 745.531 307.747C745.481 307.947 745.43 308.146 745.379 308.344C745.332 308.528 745.284 308.711 745.235 308.893C745.168 309.145 745.098 309.396 745.028 309.646C745.008 309.717 744.99 309.79 744.97 309.861C744.969 309.861 744.968 309.861 744.967 309.861C744.674 310.889 744.364 311.898 744.027 312.885C725.589 308.756 708.661 299.892 694.837 287.434C680.714 275.061 667.237 258.091 656.394 237.824C637.172 201.895 631.157 164.83 638.253 139.861Z" fill="#C6FF33"/>
<path fill-rule="evenodd" clip-rule="evenodd" d="M891.089 51.0075C921.16 46.031 950.39 53.8861 973.186 70.5676C969.09 70.7297 964.962 71.1457 960.82 71.8311C906.353 80.8455 869.217 132.88 875.376 189.744C875.327 189.432 875.28 189.119 875.228 188.807C874.41 183.863 873.27 179.054 871.834 174.395C873.269 179.052 874.409 183.861 875.226 188.802C877.316 201.427 877.141 213.903 875.003 225.818C875.002 225.818 875 225.817 874.999 225.817C869.64 255.673 851.937 281.999 826.557 298.28C826.556 298.279 826.554 298.277 826.553 298.275C814.465 306.029 800.635 311.507 785.567 314C774.068 315.903 762.693 315.927 751.753 314.302C756.881 285.745 773.3 260.417 796.931 244.02C795.064 245.315 793.242 246.665 791.468 248.069C797.046 241.785 801.331 234.542 804.007 226.441C807.69 215.29 807.958 203.627 805.308 192.157C803.642 187.022 802.339 181.699 801.43 176.212C797.373 151.693 801.848 127.733 812.683 107.364C812.684 107.365 812.685 107.365 812.686 107.366C828.07 78.4479 856.276 56.7691 891.089 51.0075ZM826.436 229.611C815.762 232.937 805.886 237.82 797.021 243.958C805.886 237.82 815.763 232.938 826.438 229.613L826.436 229.611ZM868.748 165.706C869.839 168.406 870.826 171.166 871.706 173.982C870.826 171.167 869.839 168.407 868.748 165.707L868.748 165.706Z" fill="#C6FF33"/>
</g>
<defs>
<clipPath id="clip0_360_3467">
<rect width="943.202" height="386.959" fill="white"/>
</clipPath>
</defs>
</svg>
