<svg width="18" height="18" viewBox="0 0 18 18" fill="none" xmlns="http://www.w3.org/2000/svg">
<path fill-rule="evenodd" clip-rule="evenodd" d="M9.67277 1.9175C9.61087 1.7919 9.51505 1.68614 9.39616 1.61218C9.27726 1.53822 9.14004 1.49902 9.00002 1.49902C8.85999 1.49902 8.72277 1.53822 8.60387 1.61218C8.48498 1.68614 8.38916 1.7919 8.32727 1.9175L6.51827 5.5835L2.47277 6.1715C2.33418 6.1915 2.20396 6.2499 2.09685 6.34008C1.98973 6.43027 1.91 6.54863 1.86669 6.68179C1.82337 6.81494 1.81819 6.95756 1.85174 7.09351C1.88529 7.22945 1.95622 7.35329 2.05652 7.451L4.98452 10.3048L4.29302 14.3337C4.26938 14.4717 4.28481 14.6135 4.33755 14.7431C4.39029 14.8727 4.47824 14.985 4.59146 15.0672C4.70468 15.1495 4.83865 15.1984 4.97822 15.2085C5.1178 15.2185 5.25741 15.1894 5.38127 15.1243L9.00002 13.2222L12.6188 15.1243C12.7426 15.1892 12.8821 15.2182 13.0216 15.208C13.161 15.1978 13.2948 15.1488 13.4079 15.0666C13.521 14.9844 13.6089 14.8722 13.6616 14.7427C13.7143 14.6132 13.7298 14.4716 13.7063 14.3337L13.0163 10.3048L15.9428 7.451C16.043 7.35334 16.114 7.22956 16.1476 7.09367C16.1812 6.95778 16.176 6.8152 16.1328 6.68207C16.0896 6.54894 16.01 6.43056 15.9029 6.34033C15.7959 6.2501 15.6658 6.19162 15.5273 6.1715L11.4818 5.5835L9.67277 1.9175Z" fill="#FFBA00"/>
</svg>
