<svg width="20" height="20" viewBox="0 0 20 20" fill="none" xmlns="http://www.w3.org/2000/svg">
<path d="M2.5 9.31V4.16667C2.5 3.72464 2.67559 3.30072 2.98816 2.98816C3.30072 2.67559 3.72464 2.5 4.16667 2.5H9.31C9.75199 2.50009 10.1758 2.67575 10.4883 2.98833L17.155 9.655C17.4675 9.96755 17.643 10.3914 17.643 10.8333C17.643 11.2753 17.4675 11.6991 17.155 12.0117L12.0117 17.155C11.6991 17.4675 11.2753 17.643 10.8333 17.643C10.3914 17.643 9.96755 17.4675 9.655 17.155L2.98833 10.4883C2.67575 10.1758 2.50009 9.75199 2.5 9.31Z" stroke="#D7C2F9" stroke-width="2" stroke-linecap="round" stroke-linejoin="round"/>
</svg>
