<svg width="15" height="15" viewBox="0 0 15 15" fill="none" xmlns="http://www.w3.org/2000/svg">
<path fill-rule="evenodd" clip-rule="evenodd" d="M1.25 3.125C1.25 2.62772 1.44754 2.15081 1.79917 1.79917C2.15081 1.44754 2.62772 1.25 3.125 1.25H6.9825C7.47952 1.25027 7.9561 1.44787 8.3075 1.79937L13.3075 6.79937C13.659 7.15099 13.8565 7.62782 13.8565 8.125C13.8565 8.62218 13.659 9.09901 13.3075 9.45063L9.45125 13.3081C9.27714 13.4823 9.07042 13.6204 8.84292 13.7147C8.61541 13.8089 8.37157 13.8574 8.12531 13.8574C7.87906 13.8574 7.63521 13.8089 7.40771 13.7147C7.1802 13.6204 6.97349 13.4823 6.79937 13.3081L1.79937 8.30813C1.44772 7.95658 1.25011 7.47974 1.25 6.9825V3.125ZM4.375 3.75C4.20924 3.75 4.05027 3.81585 3.93306 3.93306C3.81585 4.05027 3.75 4.20924 3.75 4.375C3.75 4.54076 3.81585 4.69973 3.93306 4.81694C4.05027 4.93415 4.20924 5 4.375 5C4.54076 5 4.70036 4.93415 4.81757 4.81694C4.93478 4.69973 5.00063 4.54076 5.00063 4.375C5.00063 4.20924 4.93478 4.05027 4.81757 3.93306C4.70036 3.81585 4.54076 3.75 4.375 3.75Z" fill="#A87AF2"/>
</svg>
