<svg width="20" height="20" viewBox="0 0 20 20" fill="none" xmlns="http://www.w3.org/2000/svg">
<path d="M17.5 5.0013V16.668C17.5 17.11 17.3244 17.5339 17.0118 17.8465C16.6993 18.159 16.2754 18.3346 15.8333 18.3346H4.16667C3.72464 18.3346 3.30072 18.159 2.98816 17.8465C2.67559 17.5339 2.5 17.11 2.5 16.668V5.0013L5 1.66797H15L17.5 5.0013ZM2.5 5.0013H17.5M13.3333 8.33464C13.3333 9.21869 12.9821 10.0665 12.357 10.6917C11.7319 11.3168 10.8841 11.668 10 11.668C9.11594 11.668 8.2681 11.3168 7.64298 10.6917C7.01786 10.0665 6.66667 9.21869 6.66667 8.33464" stroke="#7D39EB" stroke-width="2.5" stroke-linecap="round" stroke-linejoin="round"/>
</svg>
