<svg width="31" height="30" viewBox="0 0 31 30" fill="none" xmlns="http://www.w3.org/2000/svg">
<rect width="30.5941" height="30" rx="10" fill="#D7C2F9"/>
<path d="M11.0888 7.42578H9.40575C8.95936 7.42578 8.53126 7.60311 8.21562 7.91875C7.89998 8.23439 7.72266 8.66249 7.72266 9.10887V10.792M7.72266 19.2074V20.8905C7.72266 21.3369 7.89998 21.765 8.21562 22.0806C8.53126 22.3963 8.95936 22.5736 9.40575 22.5736H11.0888M19.5043 22.5736H21.1874C21.6338 22.5736 22.0619 22.3963 22.3775 22.0806C22.6931 21.765 22.8705 21.3369 22.8705 20.8905V19.2074M22.8705 10.792V9.10887C22.8705 8.66249 22.6931 8.23439 22.3775 7.91875C22.0619 7.60311 21.6338 7.42578 21.1874 7.42578H19.5043" stroke="#5928A7" stroke-width="2" stroke-linecap="round" stroke-linejoin="round"/>
<path d="M15.2981 14.9985C16.6924 14.9985 17.8227 13.8682 17.8227 12.4739C17.8227 11.0795 16.6924 9.94922 15.2981 9.94922C13.9038 9.94922 12.7734 11.0795 12.7734 12.4739C12.7734 13.8682 13.9038 14.9985 15.2981 14.9985Z" stroke="black" stroke-width="2" stroke-linecap="round" stroke-linejoin="round"/>
<path d="M19.5053 18.3662C19.5053 16.5064 17.6211 15 15.2976 15C12.9741 15 11.0898 16.5064 11.0898 18.3662" stroke="black" stroke-width="2" stroke-linecap="round" stroke-linejoin="round"/>
</svg>
