<svg width="20" height="20" viewBox="0 0 20 20" fill="none" xmlns="http://www.w3.org/2000/svg">
<path fill-rule="evenodd" clip-rule="evenodd" d="M13.3346 3.33203H3.33464C2.89261 3.33203 2.46868 3.50763 2.15612 3.82019C1.84356 4.13275 1.66797 4.55667 1.66797 4.9987V14.9987C1.66797 15.4407 1.84356 15.8646 2.15612 16.1772C2.46868 16.4898 2.89261 16.6654 3.33464 16.6654H13.3346C13.3346 16.4444 13.4224 16.2324 13.5787 16.0761C13.735 15.9198 13.947 15.832 14.168 15.832C14.389 15.832 14.6009 15.9198 14.7572 16.0761C14.9135 16.2324 15.0013 16.4444 15.0013 16.6654H16.668C17.11 16.6654 17.5339 16.4898 17.8465 16.1772C18.159 15.8646 18.3346 15.4407 18.3346 14.9987V4.9987C18.3346 4.55667 18.159 4.13275 17.8465 3.82019C17.5339 3.50763 17.11 3.33203 16.668 3.33203H15.0013C15.0013 3.55304 14.9135 3.76501 14.7572 3.92129C14.6009 4.07757 14.389 4.16536 14.168 4.16536C13.947 4.16536 13.735 4.07757 13.5787 3.92129C13.4224 3.76501 13.3346 3.55304 13.3346 3.33203ZM14.168 7.49953C14.389 7.49953 14.6009 7.41173 14.7572 7.25545C14.9135 7.09917 15.0013 6.88721 15.0013 6.6662V6.66536C15.0013 6.44435 14.9135 6.23239 14.7572 6.07611C14.6009 5.91983 14.389 5.83203 14.168 5.83203C13.947 5.83203 13.735 5.91983 13.5787 6.07611C13.4224 6.23239 13.3346 6.44435 13.3346 6.66536V6.6662C13.3346 6.88721 13.4224 7.09917 13.5787 7.25545C13.735 7.41173 13.947 7.49953 14.168 7.49953ZM15.0013 9.99953C15.0013 10.2205 14.9135 10.4325 14.7572 10.5888C14.6009 10.7451 14.389 10.8329 14.168 10.8329C13.947 10.8329 13.735 10.7451 13.5787 10.5888C13.4224 10.4325 13.3346 10.2205 13.3346 9.99953V9.9987C13.3346 9.77768 13.4224 9.56572 13.5787 9.40944C13.735 9.25316 13.947 9.16536 14.168 9.16536C14.389 9.16536 14.6009 9.25316 14.7572 9.40944C14.9135 9.56572 15.0013 9.77768 15.0013 9.9987V9.99953ZM14.168 14.1662C14.389 14.1662 14.6009 14.0784 14.7572 13.9221C14.9135 13.7658 15.0013 13.5539 15.0013 13.3329C15.0013 13.1119 14.9135 12.8991 14.7572 12.7428C14.6009 12.5865 14.389 12.4987 14.168 12.4987C13.947 12.4987 13.735 12.5865 13.5787 12.7428C13.4224 12.8991 13.3346 13.111 13.3346 13.332C13.3346 13.553 13.4224 13.7658 13.5787 13.9221C13.735 14.0784 13.947 14.1662 14.168 14.1662ZM5.0013 9.16536C4.78029 9.16536 4.56833 9.25316 4.41205 9.40944C4.25577 9.56572 4.16797 9.77768 4.16797 9.9987C4.16797 10.2197 4.25577 10.4317 4.41205 10.588C4.56833 10.7442 4.78029 10.832 5.0013 10.832H10.0013C10.2223 10.832 10.4343 10.7442 10.5906 10.588C10.7468 10.4317 10.8346 10.2197 10.8346 9.9987C10.8346 9.77768 10.7468 9.56572 10.5906 9.40944C10.4343 9.25316 10.2223 9.16536 10.0013 9.16536H5.0013ZM5.0013 12.4987C4.78029 12.4987 4.56833 12.5865 4.41205 12.7428C4.25577 12.8991 4.16797 13.111 4.16797 13.332C4.16797 13.553 4.25577 13.765 4.41205 13.9213C4.56833 14.0776 4.78029 14.1654 5.0013 14.1654H7.5013C7.72232 14.1654 7.93428 14.0776 8.09056 13.9213C8.24684 13.765 8.33464 13.553 8.33464 13.332C8.33464 13.111 8.24684 12.8991 8.09056 12.7428C7.93428 12.5865 7.72232 12.4987 7.5013 12.4987H5.0013Z" fill="#00786F"/>
</svg>
