<svg width="20" height="20" viewBox="0 0 20 20" fill="none" xmlns="http://www.w3.org/2000/svg">
<path fill-rule="evenodd" clip-rule="evenodd" d="M10 17.5C10.9849 17.5 11.9602 17.306 12.8701 16.9291C13.7801 16.5522 14.6069 15.9997 15.3033 15.3033C15.9997 14.6069 16.5522 13.7801 16.9291 12.8701C17.306 11.9602 17.5 10.9849 17.5 10C17.5 9.01509 17.306 8.03982 16.9291 7.12987C16.5522 6.21993 15.9997 5.39314 15.3033 4.6967C14.6069 4.00026 13.7801 3.44781 12.8701 3.0709C11.9602 2.69399 10.9849 2.5 10 2.5C8.01088 2.5 6.10322 3.29018 4.6967 4.6967C3.29018 6.10322 2.5 8.01088 2.5 10C2.5 11.9891 3.29018 13.8968 4.6967 15.3033C6.10322 16.7098 8.01088 17.5 10 17.5ZM9.41083 6.91083C9.5672 6.75458 9.77924 6.66684 10.0003 6.66691C10.2214 6.66699 10.4333 6.75488 10.5896 6.91125C10.7458 7.06762 10.8336 7.27965 10.8335 7.50071C10.8334 7.72177 10.7455 7.93374 10.5892 8.09L9.51167 9.16667H12.5C12.721 9.16667 12.933 9.25446 13.0893 9.41074C13.2455 9.56702 13.3333 9.77899 13.3333 10C13.3333 10.221 13.2455 10.433 13.0893 10.5893C12.933 10.7455 12.721 10.8333 12.5 10.8333H9.5125L10.5892 11.9108C10.741 12.068 10.825 12.2785 10.8231 12.497C10.8212 12.7155 10.7335 12.9245 10.579 13.079C10.4245 13.2335 10.2155 13.3212 9.997 13.3231C9.7785 13.325 9.568 13.241 9.41083 13.0892L6.91083 10.5892C6.83335 10.5118 6.77189 10.4199 6.72995 10.3187C6.68801 10.2175 6.66643 10.1091 6.66643 9.99958C6.66643 9.89007 6.68801 9.78163 6.72995 9.68047C6.77189 9.5793 6.83335 9.48739 6.91083 9.41L9.41083 6.91V6.91083Z" fill="#737373"/>
</svg>
