<svg width="29" height="29" viewBox="0 0 29 29" fill="none" xmlns="http://www.w3.org/2000/svg">
<path d="M7.25004 13.292C7.25004 7.49199 12.0834 6.04199 14.5 6.04199C20.3 6.04199 21.75 10.8753 21.75 13.292V18.1253L24.1667 20.542H4.83337L7.25004 18.1253V13.292Z" fill="#EFB100"/>
<path d="M14.5 6.04167C12.0834 6.04167 7.25004 7.49167 7.25004 13.2917V18.125L4.83337 20.5417H24.1667L21.75 18.125V13.2917C21.75 10.875 20.3 6.04167 14.5 6.04167ZM14.5 6.04167V3.625M10.875 21.75C10.875 22.9583 11.6 25.375 14.5 25.375C17.4 25.375 18.125 22.9583 18.125 21.75" stroke="black" stroke-width="2" stroke-linecap="round" stroke-linejoin="round"/>
</svg>
