<svg width="20" height="20" viewBox="0 0 20 20" fill="none" xmlns="http://www.w3.org/2000/svg">
<path d="M14.1235 8.29199L12.4985 6.66699V12.1562C12.4985 12.8978 11.601 13.2703 11.076 12.7453L9.99687 11.667C9.5802 11.2503 8.57937 11.0003 7.91187 11.667C7.24437 12.3337 7.4952 13.3337 7.91187 13.7503L10.9144 17.417C11.149 17.7037 11.4443 17.9346 11.7791 18.0931C12.1139 18.2517 12.4798 18.3338 12.8502 18.3337H15.0002C15.2212 18.3337 15.4332 18.2459 15.5895 18.0896C15.7457 17.9333 15.8335 17.7213 15.8335 17.5003V12.417C15.8334 11.6508 15.6823 10.8922 15.3889 10.1844C15.0955 9.47662 14.6655 8.83357 14.1235 8.29199Z" fill="#FAFAFA" stroke="#FAFAFA" stroke-linecap="round" stroke-linejoin="round"/>
<path d="M9.16675 1.66699H10.8334C11.2754 1.66699 11.6994 1.84259 12.0119 2.15515C12.3245 2.46771 12.5001 2.89163 12.5001 3.33366V5.00033M9.16675 1.66699C9.16675 2.77783 9.83341 5.00033 12.5001 5.00033M9.16675 1.66699H7.50008M12.5001 5.00033V10.0003M7.50008 1.66699H5.83341C5.39139 1.66699 4.96746 1.84259 4.6549 2.15515C4.34234 2.46771 4.16675 2.89163 4.16675 3.33366V5.00033M7.50008 1.66699C7.50008 2.77783 6.83341 5.00033 4.16675 5.00033M4.16675 10.0003V11.667C4.16675 12.109 4.34234 12.5329 4.6549 12.8455C4.96746 13.1581 5.39139 13.3337 5.83341 13.3337H7.50008C7.50008 12.2228 6.83341 10.0003 4.16675 10.0003ZM4.16675 10.0003V5.00033" stroke="#FAFAFA" stroke-width="1.5" stroke-linecap="round" stroke-linejoin="round"/>
<path d="M7.50008 7.50033C7.50008 7.96056 7.87318 8.33366 8.33341 8.33366C8.79365 8.33366 9.16675 7.96056 9.16675 7.50033C9.16675 7.04009 8.79365 6.66699 8.33341 6.66699C7.87318 6.66699 7.50008 7.04009 7.50008 7.50033Z" stroke="#FAFAFA" stroke-width="2" stroke-linecap="round" stroke-linejoin="round"/>
</svg>
