<svg width="29" height="29" viewBox="0 0 29 29" fill="none" xmlns="http://www.w3.org/2000/svg">
<path d="M3.625 3.625H6.04167L6.64583 7.25M6.64583 7.25L8.45833 18.125H21.75L25.375 7.25H6.64583Z" stroke="black" stroke-width="2" stroke-linecap="round" stroke-linejoin="round"/>
<path d="M9.66668 25.3747C10.334 25.3747 10.875 24.8337 10.875 24.1663C10.875 23.499 10.334 22.958 9.66668 22.958C8.99933 22.958 8.45834 23.499 8.45834 24.1663C8.45834 24.8337 8.99933 25.3747 9.66668 25.3747Z" stroke="black" stroke-width="2" stroke-linecap="round" stroke-linejoin="round"/>
<path d="M20.5417 25.3747C21.209 25.3747 21.75 24.8337 21.75 24.1663C21.75 23.499 21.209 22.958 20.5417 22.958C19.8743 22.958 19.3333 23.499 19.3333 24.1663C19.3333 24.8337 19.8743 25.3747 20.5417 25.3747Z" stroke="black" stroke-width="2" stroke-linecap="round" stroke-linejoin="round"/>
</svg>
