<svg width="12" height="12" viewBox="0 0 12 12" fill="none" xmlns="http://www.w3.org/2000/svg">
<path fill-rule="evenodd" clip-rule="evenodd" d="M2.00017 2H8.00063C8.00063 2.13262 8.05331 2.2598 8.14708 2.35358C8.24086 2.44736 8.36805 2.50004 8.50066 2.50004C8.63328 2.50004 8.76047 2.44736 8.85424 2.35358C8.94802 2.2598 9.0007 2.13262 9.0007 2H10.0008C10.266 2 10.5204 2.10536 10.7079 2.29292C10.8955 2.48047 11.0009 2.73484 11.0009 3.00008V9.00053C11.0009 9.26576 10.8955 9.52014 10.7079 9.70769C10.5204 9.89524 10.266 10.0006 10.0008 10.0006H9.0007C9.0007 9.86798 8.94802 9.7408 8.85424 9.64702C8.76047 9.55325 8.63328 9.50056 8.50066 9.50056C8.36805 9.50056 8.24086 9.55325 8.14708 9.64702C8.05331 9.7408 8.00063 9.86798 8.00063 10.0006H2.00017C1.73494 10.0006 1.48056 9.89524 1.29301 9.70769C1.10546 9.52014 1.0001 9.26576 1.0001 9.00053V3.00008C1.0001 2.73484 1.10546 2.48047 1.29301 2.29292C1.48056 2.10536 1.73494 2 2.00017 2ZM9.0007 4.00065C9.0007 4.13327 8.94802 4.26046 8.85424 4.35423C8.76047 4.44801 8.63328 4.50069 8.50066 4.50069C8.36805 4.50069 8.24086 4.44801 8.14708 4.35423C8.05331 4.26046 8.00063 4.13327 8.00063 4.00065V4.00015C8.00063 3.86753 8.05331 3.74035 8.14708 3.64657C8.24086 3.5528 8.36805 3.50011 8.50066 3.50011C8.63328 3.50011 8.76047 3.5528 8.85424 3.64657C8.94802 3.74035 9.0007 3.86753 9.0007 4.00015V4.00065ZM8.50066 6.50084C8.63328 6.50084 8.76047 6.44816 8.85424 6.35438C8.94802 6.26061 9.0007 6.13342 9.0007 6.0008V6.0003C9.0007 5.86768 8.94802 5.7405 8.85424 5.64672C8.76047 5.55295 8.63328 5.50026 8.50066 5.50026C8.36805 5.50026 8.24086 5.55295 8.14708 5.64672C8.05331 5.7405 8.00063 5.86768 8.00063 6.0003V6.0008C8.00063 6.13342 8.05331 6.26061 8.14708 6.35438C8.24086 6.44816 8.36805 6.50084 8.50066 6.50084ZM9.0007 8.00095C9.0007 8.13357 8.94802 8.26076 8.85424 8.35453C8.76047 8.44831 8.63328 8.50099 8.50066 8.50099C8.36805 8.50099 8.24086 8.44831 8.14708 8.35453C8.05331 8.26076 8.00063 8.13357 8.00063 8.00095C8.00063 7.86833 8.05331 7.74065 8.14708 7.64687C8.24086 7.5531 8.36805 7.50041 8.50066 7.50041C8.63328 7.50041 8.76047 7.5531 8.85424 7.64687C8.94802 7.74065 9.0007 7.86833 9.0007 8.00095Z" fill="black"/>
</svg>
