<svg width="35" height="26" viewBox="0 0 35 26" fill="none" xmlns="http://www.w3.org/2000/svg">
<path d="M11.7076 15.7611C12.7516 15.7611 13.5979 14.9182 13.5979 13.8784C13.5979 12.8385 12.7516 11.9956 11.7076 11.9956C10.6637 11.9956 9.81738 12.8385 9.81738 13.8784C9.81738 14.9182 10.6637 15.7611 11.7076 15.7611Z" fill="#7D39EB"/>
<path d="M16.2089 25.7665C17.054 25.7665 17.7391 25.0841 17.7391 24.2424C17.7391 23.4006 17.054 22.7183 16.2089 22.7183C15.3638 22.7183 14.6787 23.4006 14.6787 24.2424C14.6787 25.0841 15.3638 25.7665 16.2089 25.7665Z" fill="#7D39EB"/>
<path d="M7.20793 25.7665C8.05303 25.7665 8.73813 25.0841 8.73813 24.2424C8.73813 23.4006 8.05303 22.7183 7.20793 22.7183C6.36283 22.7183 5.67773 23.4006 5.67773 24.2424C5.67773 25.0841 6.36283 25.7665 7.20793 25.7665Z" fill="#7D39EB"/>
<path d="M7.19956 1.20117C10.3364 1.20117 12.8793 3.734 12.8793 6.8584C12.8792 9.4165 11.1745 11.5776 8.83493 12.2771C8.79027 12.1352 8.74417 11.9929 8.6957 11.8506C7.30625 7.7734 4.73892 4.75195 2.30371 3.9895C3.2914 2.3209 5.11408 1.2012 7.19956 1.20117Z" fill="#7D39EB"/>
<path d="M0.764896 4.34961C2.54592 4.57016 4.47247 6.10633 6.00659 8.46338C6.01281 8.47296 6.01899 8.48258 6.02521 8.49218C6.06171 8.54853 6.098 8.60534 6.13404 8.66261C6.13936 8.67106 6.14466 8.67953 6.14998 8.68798C6.31498 8.95136 6.47512 9.22436 6.62965 9.50636C6.63477 9.51571 6.63997 9.52506 6.64509 9.53443C6.71599 9.66443 6.78547 9.79646 6.85391 9.93018C6.86089 9.94378 6.86807 9.95731 6.875 9.97096C6.94776 10.114 7.01919 10.2591 7.08899 10.4063C7.09507 10.4191 7.10107 10.432 7.10712 10.4448C7.13505 10.5041 7.16256 10.5637 7.18997 10.6235C7.19868 10.6425 7.20729 10.6616 7.21595 10.6807C7.24122 10.7363 7.26637 10.7922 7.29119 10.8484C7.29958 10.8674 7.30814 10.8863 7.31644 10.9053C7.3441 10.9685 7.37124 11.0321 7.39832 11.096C7.40364 11.1085 7.40919 11.121 7.41448 11.1336C7.44553 11.2072 7.47615 11.2812 7.50642 11.3557C7.51325 11.3725 7.51997 11.3894 7.52675 11.4063C7.55037 11.4649 7.57371 11.5238 7.59685 11.583C7.6073 11.6097 7.61764 11.6365 7.62798 11.6633C7.64575 11.7094 7.66344 11.7556 7.68094 11.802C7.69572 11.8413 7.71048 11.8807 7.72504 11.9202C7.73969 11.9598 7.75403 11.9997 7.76843 12.0396C7.7803 12.0724 7.79225 12.1052 7.80397 12.1382C7.83136 12.2153 7.85856 12.2927 7.88509 12.3706C7.9637 12.6012 8.03692 12.8315 8.10547 13.061C8.11827 13.1039 8.13052 13.1469 8.14296 13.1897C8.1643 13.2631 8.18563 13.3362 8.20596 13.4094C8.21427 13.4394 8.22208 13.4694 8.23021 13.4993C8.25303 13.5831 8.27541 13.6667 8.2969 13.7503C8.3088 13.7966 8.31996 13.843 8.33146 13.8892C8.3475 13.9537 8.36376 14.018 8.379 14.0823C8.39218 14.1378 8.40442 14.1934 8.417 14.2488C8.43098 14.3104 8.44491 14.3717 8.45816 14.4331C8.469 14.4833 8.47919 14.5335 8.48954 14.5835C8.50204 14.6439 8.51451 14.7042 8.52631 14.7644C8.53629 14.8153 8.54576 14.8662 8.55525 14.917C8.56614 14.9755 8.57711 15.0338 8.58735 15.0921C8.59761 15.1504 8.60715 15.2087 8.61676 15.2669C8.62615 15.3237 8.63546 15.3804 8.64422 15.437C8.65218 15.4886 8.65981 15.54 8.66726 15.5913C8.6754 15.6475 8.68325 15.7036 8.69078 15.7595C8.69829 15.8152 8.70546 15.8708 8.71234 15.9263C8.71912 15.9809 8.72554 16.0355 8.73172 16.0899C8.73767 16.1421 8.74324 16.1943 8.74864 16.2463C8.75443 16.3023 8.75991 16.3582 8.76505 16.4138C8.76997 16.467 8.77469 16.5199 8.77903 16.5728C8.78342 16.6262 8.78746 16.6795 8.79128 16.7327C8.79492 16.7835 8.79848 16.8342 8.80157 16.8848C8.80518 16.9436 8.80825 17.0022 8.81113 17.0606C8.81342 17.1068 8.81568 17.153 8.81751 17.199C8.81959 17.2515 8.82117 17.3038 8.82265 17.356C8.82428 17.4131 8.82564 17.4701 8.82657 17.5269C8.82732 17.5725 8.82752 17.618 8.8278 17.6633C8.82812 17.7153 8.82855 17.767 8.8283 17.8186C8.82802 17.869 8.8274 17.9192 8.82657 17.9692C8.82567 18.0237 8.82446 18.0779 8.8229 18.1318C8.82162 18.1752 8.81994 18.2184 8.81824 18.2615C8.81618 18.3137 8.81432 18.3657 8.81161 18.4175C8.80905 18.4669 8.80571 18.5162 8.80255 18.5652C8.79949 18.6128 8.79657 18.6601 8.79299 18.7073C8.78857 18.7653 8.78327 18.823 8.77805 18.8804C8.77464 18.9175 8.77173 18.9546 8.76799 18.9915C8.76623 19.0089 8.7642 19.0263 8.76237 19.0437C8.75381 19.1245 8.74462 19.2046 8.7344 19.2839C8.73282 19.2963 8.73114 19.3085 8.72951 19.3208C8.70692 19.492 8.68077 19.6599 8.65057 19.8242C8.64937 19.8309 8.64814 19.8376 8.64691 19.8442C8.57997 20.2045 8.49483 20.5476 8.392 20.8711C8.38208 20.9023 8.37184 20.9333 8.3616 20.9641C8.35684 20.9785 8.35199 20.9928 8.34715 21.0071C8.33989 21.0285 8.33274 21.0498 8.32531 21.0711C8.30247 21.1364 8.2786 21.2008 8.25423 21.2644C8.25029 21.2748 8.24647 21.2851 8.24248 21.2954C8.23259 21.3208 8.22245 21.346 8.21234 21.3711C8.20787 21.3822 8.2036 21.3933 8.19909 21.4043C8.18807 21.4312 8.17657 21.4578 8.16528 21.4844C8.16149 21.4933 8.1578 21.5022 8.15398 21.511C8.12479 21.5788 8.09508 21.6457 8.06403 21.7112L8.0638 21.7109C8.02083 21.8017 7.97641 21.8904 7.92997 21.9766C6.28218 21.3127 4.84718 20.2346 3.755 18.8721C2.63219 17.5107 1.64023 15.733 0.94407 13.6902C-0.288878 10.0721 -0.277674 6.55118 0.764896 4.34961Z" fill="#7D39EB"/>
<path d="M25.6156 0C28.485 1.75723e-05 31.079 1.17477 32.9399 3.06715C32.5571 3.01948 32.1676 2.9944 31.7725 2.99437C26.5684 2.99445 22.3157 7.25052 22.023 12.6152C22.0115 13.7039 21.8291 14.7515 21.5011 15.7331L21.4335 15.9285L21.4337 15.9287C21.2582 16.4203 21.0456 16.8943 20.7999 17.3479C20.7917 17.363 20.7831 17.378 20.7749 17.3931C20.7523 17.4341 20.7298 17.4751 20.7067 17.5159C20.7015 17.5252 20.6961 17.5344 20.6908 17.5437C20.6353 17.641 20.5783 17.7373 20.5197 17.8325C20.5089 17.8501 20.498 17.8677 20.4871 17.8853C20.4673 17.917 20.4472 17.9487 20.4271 17.9802C20.4121 18.0037 20.3971 18.0272 20.382 18.0505C20.3651 18.0764 20.348 18.102 20.331 18.1277C20.3144 18.1526 20.298 18.1776 20.2812 18.2024C20.264 18.2279 20.2465 18.2532 20.229 18.2786C20.2125 18.3025 20.1964 18.3266 20.1797 18.3503C20.1102 18.4494 20.0387 18.5471 19.9658 18.6436C19.95 18.6643 19.9341 18.6849 19.9182 18.7056C19.8977 18.7323 19.8772 18.7589 19.8565 18.7854C19.8409 18.8053 19.8251 18.825 19.8094 18.8447C19.7881 18.8714 19.7669 18.8981 19.7454 18.9245C19.7236 18.9514 19.7016 18.9782 19.6795 19.0049C19.6681 19.0187 19.6566 19.0324 19.6452 19.0462C19.6172 19.0795 19.589 19.1127 19.5606 19.1458C19.553 19.1546 19.5452 19.1633 19.5375 19.1721C19.4067 19.3232 19.2715 19.4704 19.1321 19.6135C19.1193 19.6267 19.1068 19.6402 19.0939 19.6533C19.0636 19.6841 19.0329 19.7145 19.0022 19.7449C18.9898 19.7572 18.9775 19.7695 18.965 19.7817C18.935 19.8112 18.9047 19.8403 18.8743 19.8694C18.8623 19.8809 18.8503 19.8924 18.8383 19.9038C18.8076 19.9329 18.7769 19.9618 18.7458 19.9905C18.7343 20.0012 18.7227 20.0118 18.711 20.0224C17.9766 20.6957 17.1437 21.2639 16.2357 21.7022L16.2168 21.7117C16.1926 21.7233 16.1679 21.7341 16.1435 21.7453C14.8175 22.3691 13.3358 22.7185 11.772 22.7185C10.6748 22.7185 9.61805 22.5459 8.62695 22.228C9.46903 19.8695 11.1568 17.9106 13.3267 16.7127L13.4412 16.6182C14.0076 16.1396 14.4795 15.5656 14.8304 14.8992C15.3453 13.9214 15.5492 12.8434 15.4778 11.7388C15.4028 11.2406 15.3633 10.7307 15.3633 10.2117C15.3634 7.88122 16.1476 5.7332 17.4668 4.01465L17.5556 3.90088C19.4328 1.52562 22.3452 6.52055e-05 25.6156 0ZM18.4939 15.4404C19.3129 15.4565 20.1083 15.5684 20.8695 15.7651C20.5524 15.6832 20.2293 15.6159 19.9011 15.5642C19.7698 15.5435 19.6376 15.5254 19.5047 15.5098C19.3718 15.4941 19.2381 15.4808 19.1037 15.4702C18.9021 15.4544 18.6986 15.4445 18.4939 15.4404ZM21.9411 11.2004L21.9193 11.0405C21.917 11.0247 21.9143 11.0089 21.9119 10.9932C21.9222 11.062 21.9322 11.1311 21.9411 11.2004ZM21.8391 10.5652L21.8075 10.4087C21.8039 10.3913 21.8 10.374 21.7963 10.3567C21.8112 10.426 21.8256 10.4954 21.8391 10.5652ZM21.6833 9.88698C21.7203 10.0263 21.7545 10.1667 21.7857 10.3083C21.7702 10.2379 21.7541 10.1678 21.7372 10.0979C21.7247 10.0464 21.712 9.99502 21.6987 9.94385C21.6937 9.92482 21.6883 9.90595 21.6833 9.88698ZM20.8496 7.7566L20.7761 7.61987C20.7676 7.60437 20.7589 7.58895 20.7504 7.57347C20.784 7.63415 20.8172 7.69517 20.8496 7.7566ZM18.4164 4.73023C18.5654 4.85665 18.7107 4.98725 18.8522 5.12183L18.7115 4.99022C18.6642 4.94683 18.6163 4.90385 18.5681 4.86132C18.518 4.8171 18.4674 4.77348 18.4164 4.73023ZM17.9708 4.37305C18.0196 4.40998 18.0681 4.44732 18.1162 4.4851C18.1085 4.47913 18.101 4.473 18.0934 4.46705C18.0123 4.4037 17.9301 4.3417 17.847 4.28075L17.9708 4.37305ZM19.8731 6.24853C19.8613 6.23348 19.8499 6.21812 19.8381 6.20312C19.8199 6.18013 19.8015 6.15735 19.7832 6.13452C19.8135 6.17227 19.8433 6.21035 19.8731 6.24853ZM19.6633 5.98803C19.6566 5.98005 19.6501 5.97185 19.6434 5.96387C19.6157 5.9308 19.5878 5.89792 19.5596 5.86522C19.5946 5.90585 19.629 5.94688 19.6633 5.98803Z" fill="#7D39EB"/>
</svg>
