<svg width="48" height="35" viewBox="0 0 48 35" fill="none" xmlns="http://www.w3.org/2000/svg">
<path d="M16.0568 21.2171C17.4885 21.2171 18.6491 20.0824 18.6491 18.6826C18.6491 17.2829 17.4885 16.1482 16.0568 16.1482C14.6251 16.1482 13.4645 17.2829 13.4645 18.6826C13.4645 20.0824 14.6251 21.2171 16.0568 21.2171Z" fill="#7D39EB"/>
<path d="M22.2292 34.6859C23.3882 34.6859 24.3278 33.7673 24.3278 32.6342C24.3278 31.501 23.3882 30.5825 22.2292 30.5825C21.0702 30.5825 20.1307 31.501 20.1307 32.6342C20.1307 33.7673 21.0702 34.6859 22.2292 34.6859Z" fill="#7D39EB"/>
<path d="M9.88548 34.6859C11.0445 34.6859 11.984 33.7673 11.984 32.6342C11.984 31.501 11.0445 30.5825 9.88548 30.5825C8.72648 30.5825 7.78693 31.501 7.78693 32.6342C7.78693 33.7673 8.72648 34.6859 9.88548 34.6859Z" fill="#7D39EB"/>
<path d="M9.87342 1.61691C14.1753 1.61691 17.6627 5.02649 17.6627 9.23242C17.6627 12.676 15.3248 15.5852 12.1162 16.5268C12.055 16.3358 11.9917 16.1442 11.9253 15.9527C10.0197 10.4641 6.49884 6.39681 3.15912 5.37043C4.51366 3.12424 7.01334 1.61695 9.87342 1.61691Z" fill="#7D39EB"/>
<path d="M1.049 5.85519C3.49155 6.15209 6.13367 8.22002 8.2376 11.393C8.24614 11.4059 8.25461 11.4188 8.26315 11.4317C8.3132 11.5076 8.36297 11.5841 8.4124 11.6612C8.4197 11.6725 8.42696 11.6839 8.43426 11.6953C8.66055 12.0499 8.88016 12.4174 9.09209 12.797C9.09912 12.8096 9.10624 12.8221 9.11326 12.8348C9.21051 13.0098 9.30578 13.1875 9.39965 13.3675C9.40922 13.3858 9.41907 13.404 9.42857 13.4224C9.52836 13.615 9.62632 13.8103 9.72205 14.0084C9.73038 14.0256 9.73861 14.043 9.7469 14.0603C9.78521 14.14 9.82294 14.2203 9.86053 14.3009C9.87247 14.3264 9.88428 14.3521 9.89615 14.3778C9.93082 14.4527 9.96531 14.5279 9.99935 14.6035C10.0108 14.6291 10.0226 14.6545 10.034 14.6801C10.0719 14.7652 10.1091 14.8509 10.1463 14.9368C10.1536 14.9537 10.1612 14.9705 10.1684 14.9874C10.211 15.0865 10.253 15.1862 10.2945 15.2865C10.3039 15.3091 10.3131 15.3318 10.3224 15.3545C10.3548 15.4335 10.3868 15.5128 10.4185 15.5925C10.4329 15.6284 10.447 15.6645 10.4612 15.7006C10.4856 15.7626 10.5099 15.8248 10.5339 15.8873C10.5541 15.9401 10.5744 15.9931 10.5943 16.0464C10.6144 16.0997 10.6341 16.1534 10.6538 16.207C10.6701 16.2512 10.6865 16.2954 10.7026 16.3398C10.7401 16.4436 10.7775 16.5479 10.8138 16.6527C10.9217 16.9632 11.0221 17.2732 11.1161 17.5821C11.1336 17.6398 11.1504 17.6977 11.1675 17.7553C11.1968 17.8541 11.226 17.9526 11.2539 18.0511C11.2653 18.0914 11.276 18.1318 11.2871 18.1721C11.3184 18.2849 11.3491 18.3974 11.3786 18.5099C11.3949 18.5722 11.4102 18.6347 11.426 18.6969C11.448 18.7838 11.4703 18.8703 11.4912 18.9569C11.5093 19.0316 11.5261 19.1065 11.5433 19.181C11.5625 19.2639 11.5816 19.3465 11.5998 19.4291C11.6146 19.4967 11.6286 19.5642 11.6428 19.6316C11.6599 19.7129 11.677 19.794 11.6932 19.8751C11.7069 19.9437 11.7199 20.0122 11.7329 20.0805C11.7478 20.1593 11.7629 20.2377 11.7769 20.3162C11.791 20.3947 11.8041 20.4732 11.8173 20.5515C11.8301 20.628 11.8429 20.7043 11.8549 20.7805C11.8658 20.8499 11.8763 20.9192 11.8865 20.9883C11.8977 21.0639 11.9085 21.1394 11.9188 21.2147C11.9291 21.2897 11.9389 21.3645 11.9484 21.4392C11.9576 21.5127 11.9665 21.5861 11.9749 21.6594C11.9831 21.7297 11.9907 21.8 11.9981 21.87C12.0061 21.9454 12.0136 22.0206 12.0206 22.0955C12.0274 22.167 12.0339 22.2383 12.0398 22.3094C12.0458 22.3814 12.0514 22.4531 12.0566 22.5247C12.0616 22.5931 12.0665 22.6614 12.0707 22.7295C12.0757 22.8086 12.0799 22.8875 12.0838 22.9661C12.087 23.0284 12.0901 23.0905 12.0926 23.1524C12.0954 23.2231 12.0976 23.2935 12.0996 23.3637C12.1019 23.4407 12.1037 23.5174 12.105 23.5938C12.106 23.6553 12.1063 23.7165 12.1067 23.7775C12.1071 23.8474 12.1077 23.9171 12.1074 23.9865C12.107 24.0544 12.1061 24.122 12.105 24.1893C12.1038 24.2626 12.1021 24.3355 12.1 24.4082C12.0982 24.4666 12.0959 24.5247 12.0936 24.5827C12.0908 24.653 12.0882 24.723 12.0845 24.7927C12.081 24.8593 12.0764 24.9256 12.0721 24.9915C12.0679 25.0556 12.0639 25.1194 12.059 25.1828C12.0529 25.2609 12.0456 25.3386 12.0385 25.4159C12.0338 25.4659 12.0298 25.5157 12.0247 25.5654C12.0223 25.5889 12.0195 25.6123 12.017 25.6357C12.0052 25.7444 11.9926 25.8522 11.9786 25.9591C11.9764 25.9757 11.9741 25.9922 11.9719 26.0087C11.9409 26.2391 11.9051 26.4651 11.8636 26.6864C11.862 26.6954 11.8603 26.7044 11.8586 26.7133C11.7668 27.1983 11.6501 27.6602 11.509 28.0957C11.4954 28.1377 11.4814 28.1794 11.4673 28.2209C11.4608 28.2402 11.4542 28.2595 11.4475 28.2787C11.4376 28.3075 11.4278 28.3363 11.4176 28.3648C11.3862 28.4528 11.3535 28.5395 11.3201 28.6251C11.3147 28.639 11.3094 28.653 11.304 28.6668C11.2904 28.701 11.2765 28.7349 11.2626 28.7688C11.2565 28.7836 11.2507 28.7986 11.2445 28.8134C11.2293 28.8497 11.2136 28.8855 11.1981 28.9212C11.1929 28.9332 11.1878 28.9452 11.1826 28.957C11.1426 29.0484 11.1018 29.1383 11.0592 29.2265L11.0589 29.2262C11 29.3483 10.9391 29.4678 10.8754 29.5838C8.61556 28.6902 6.64755 27.2389 5.14972 25.4047C3.60986 23.5721 2.24946 21.179 1.29472 18.429C-0.396176 13.5586 -0.38081 8.81885 1.049 5.85519Z" fill="#7D39EB"/>
<path d="M35.1298 0C39.0649 2.36551e-05 42.6224 1.58142 45.1744 4.12886C44.6495 4.06468 44.1152 4.03092 43.5734 4.03089C36.4364 4.03099 30.6041 9.76032 30.2027 16.982C30.187 18.4476 29.9368 19.8579 29.487 21.1792L29.3942 21.4422L29.3946 21.4425C29.1539 22.1043 28.8622 22.7424 28.5253 23.3529C28.514 23.3733 28.5023 23.3934 28.491 23.4138C28.4601 23.469 28.4292 23.5242 28.3975 23.5791C28.3903 23.5916 28.383 23.604 28.3757 23.6165C28.2996 23.7475 28.2214 23.8771 28.141 24.0053C28.1262 24.029 28.1113 24.0527 28.0963 24.0763C28.0692 24.1191 28.0416 24.1617 28.014 24.2041C27.9934 24.2357 27.973 24.2674 27.9521 24.2988C27.9291 24.3336 27.9056 24.3681 27.8822 24.4026C27.8595 24.4362 27.837 24.4698 27.814 24.5032C27.7903 24.5376 27.7663 24.5717 27.7424 24.6058C27.7198 24.6379 27.6977 24.6704 27.6748 24.7024C27.5794 24.8358 27.4814 24.9672 27.3814 25.0971C27.3598 25.1251 27.3379 25.1528 27.3161 25.1806C27.288 25.2165 27.2599 25.2524 27.2315 25.288C27.2101 25.3148 27.1885 25.3413 27.1669 25.3679C27.1378 25.4038 27.1086 25.4397 27.0792 25.4754C27.0492 25.5116 27.019 25.5476 26.9887 25.5835C26.9731 25.602 26.9574 25.6206 26.9417 25.639C26.9033 25.684 26.8647 25.7287 26.8257 25.7731C26.8153 25.785 26.8046 25.7967 26.7941 25.8086C26.6147 26.012 26.4292 26.2101 26.2381 26.4028C26.2205 26.4206 26.2034 26.4387 26.1857 26.4564C26.1441 26.4978 26.102 26.5387 26.0599 26.5796C26.0429 26.5962 26.026 26.6128 26.0089 26.6293C25.9677 26.6689 25.9261 26.7081 25.8845 26.7472C25.868 26.7627 25.8516 26.7782 25.8351 26.7936C25.793 26.8327 25.7509 26.8717 25.7083 26.9103C25.6925 26.9247 25.6765 26.939 25.6606 26.9533C24.6534 27.8596 23.5111 28.6245 22.2658 29.2144L22.2399 29.2273C22.2067 29.2429 22.1728 29.2574 22.1394 29.2726C20.3209 30.1123 18.2889 30.5826 16.1442 30.5826C14.6394 30.5826 13.1902 30.3502 11.831 29.9223C12.9858 26.7474 15.3005 24.1104 18.2764 22.4978L18.4334 22.3706C19.2101 21.7264 19.8574 20.9537 20.3386 20.0566C21.0447 18.7403 21.3243 17.2892 21.2264 15.8022C21.1235 15.1315 21.0695 14.4451 21.0695 13.7465C21.0695 10.6093 22.145 7.71777 23.9543 5.40434L24.076 5.25118C26.6504 2.05372 30.6446 8.77766e-05 35.1298 0ZM25.3628 20.7852C26.486 20.8068 27.5769 20.9575 28.6208 21.2223C28.1859 21.1119 27.7428 21.0214 27.2926 20.9518C27.1126 20.924 26.9313 20.8996 26.7491 20.8785C26.5668 20.8574 26.3835 20.8395 26.1991 20.8253C25.9226 20.804 25.6435 20.7906 25.3628 20.7852ZM30.0904 15.0775L30.0605 14.8622C30.0574 14.8409 30.0536 14.8197 30.0504 14.7985C30.0645 14.8912 30.0782 14.9842 30.0904 15.0775ZM29.9506 14.2224L29.9072 14.0117C29.9022 13.9883 29.8968 13.965 29.8917 13.9417C29.9122 14.0349 29.9321 14.1284 29.9506 14.2224ZM29.7368 13.3094C29.7876 13.4969 29.8345 13.686 29.8773 13.8766C29.856 13.7819 29.834 13.6874 29.8107 13.5933C29.7936 13.524 29.7762 13.4548 29.758 13.386C29.7512 13.3603 29.7437 13.3349 29.7368 13.3094ZM28.5935 10.4416L28.4927 10.2575C28.481 10.2367 28.4692 10.2159 28.4574 10.1951C28.5035 10.2767 28.549 10.3589 28.5935 10.4416ZM25.2565 6.36761C25.4609 6.5378 25.6602 6.71361 25.8542 6.89476L25.6613 6.71761C25.5963 6.65919 25.5307 6.60134 25.4646 6.54409C25.3959 6.48456 25.3265 6.42583 25.2565 6.36761ZM24.6454 5.8868C24.7123 5.93651 24.7788 5.98678 24.8448 6.03763C24.8343 6.02959 24.8239 6.02135 24.8135 6.01334C24.7023 5.92806 24.5895 5.8446 24.4757 5.76255L24.6454 5.8868ZM27.2543 8.41148C27.2382 8.39122 27.2225 8.37055 27.2062 8.35036C27.1813 8.3194 27.1561 8.28874 27.1309 8.25801C27.1725 8.30883 27.2135 8.36009 27.2543 8.41148ZM26.9665 8.0608C26.9574 8.05007 26.9485 8.03903 26.9393 8.02829C26.9013 7.98377 26.863 7.93951 26.8243 7.8955C26.8723 7.95018 26.9195 8.00541 26.9665 8.0608Z" fill="#7D39EB"/>
</svg>
