<svg width="40" height="40" viewBox="0 0 40 40" fill="none" xmlns="http://www.w3.org/2000/svg">
<path d="M0 8C0 3.58172 3.58172 0 8 0H32C36.4183 0 40 3.58172 40 8V32C40 36.4183 36.4183 40 32 40H8C3.58172 40 0 36.4183 0 32V8Z" fill="#00BBA7"/>
<path d="M15.8293 24.144C15.1653 24.144 14.5533 24.04 13.9933 23.832C13.4413 23.616 12.9573 23.312 12.5413 22.92C12.1333 22.528 11.8133 22.068 11.5813 21.54C11.3573 21.012 11.2453 20.432 11.2453 19.8C11.2453 19.168 11.3573 18.588 11.5813 18.06C11.8133 17.532 12.1373 17.072 12.5533 16.68C12.9693 16.288 13.4573 15.988 14.0173 15.78C14.5773 15.564 15.1933 15.456 15.8653 15.456C16.6093 15.456 17.2773 15.58 17.8693 15.828C18.4693 16.076 18.9733 16.436 19.3813 16.908L18.1333 18.06C17.8293 17.74 17.4973 17.504 17.1373 17.352C16.7773 17.192 16.3853 17.112 15.9613 17.112C15.5533 17.112 15.1813 17.176 14.8453 17.304C14.5093 17.432 14.2173 17.616 13.9693 17.856C13.7293 18.096 13.5413 18.38 13.4053 18.708C13.2773 19.036 13.2133 19.4 13.2133 19.8C13.2133 20.192 13.2773 20.552 13.4053 20.88C13.5413 21.208 13.7293 21.496 13.9693 21.744C14.2173 21.984 14.5053 22.168 14.8333 22.296C15.1693 22.424 15.5373 22.488 15.9373 22.488C16.3213 22.488 16.6933 22.428 17.0533 22.308C17.4213 22.18 17.7773 21.968 18.1213 21.672L19.2253 23.076C18.7693 23.42 18.2373 23.684 17.6293 23.868C17.0293 24.052 16.4293 24.144 15.8293 24.144ZM17.4493 22.824V19.668H19.2253V23.076L17.4493 22.824ZM19.9272 24L23.6712 15.6H25.5912L29.3472 24H27.3072L24.2352 16.584H25.0032L21.9192 24H19.9272ZM21.7992 22.2L22.3152 20.724H26.6352L27.1632 22.2H21.7992Z" fill="white"/>
</svg>
