<svg width="221" height="32" viewBox="0 0 221 32" fill="none" xmlns="http://www.w3.org/2000/svg">
<ellipse cx="12.8439" cy="17.0954" rx="2.07365" ry="2.07352" fill="#B4E82E"/>
<ellipse cx="17.7812" cy="28.5103" rx="1.67867" ry="1.67856" fill="#B4E82E"/>
<ellipse cx="7.90669" cy="28.5103" rx="1.67867" ry="1.67856" fill="#B4E82E"/>
<path d="M7.89697 3.13403C11.3381 3.13412 14.1274 5.92359 14.1274 9.3645C14.1273 12.1822 12.2562 14.5614 9.68896 15.3313C9.6401 15.1754 9.59064 15.0188 9.5376 14.8625C8.01343 10.3725 5.19723 7.04623 2.52588 6.2063C3.60923 4.36788 5.60858 3.13403 7.89697 3.13403Z" fill="#B4E82E"/>
<path fill-rule="evenodd" clip-rule="evenodd" d="M0.839914 6.60254C1.97121 6.74372 3.15464 7.37232 4.27839 8.37891L4.28034 8.37793C4.29744 8.39325 4.31406 8.40931 4.33112 8.4248C4.39996 8.48729 4.46787 8.55188 4.5362 8.61719C4.57068 8.65014 4.60538 8.68313 4.63972 8.7168C4.83789 8.91103 5.0338 9.11683 5.22663 9.33398C5.25016 9.36048 5.27351 9.38724 5.29695 9.41406C5.37228 9.50029 5.44721 9.58813 5.52155 9.67773C5.55042 9.71252 5.57878 9.74791 5.60749 9.7832C5.67527 9.86652 5.74278 9.95104 5.80964 10.0371C5.83804 10.0737 5.86638 10.1104 5.8946 10.1475C5.96946 10.2457 6.04368 10.3456 6.11726 10.4473C6.13609 10.4733 6.15516 10.4992 6.1739 10.5254C6.36014 10.786 6.54199 11.0574 6.71882 11.3389C6.73916 11.3712 6.75916 11.4039 6.77937 11.4365C6.84398 11.5409 6.90759 11.6468 6.97077 11.7539C6.99947 11.8025 7.02832 11.8512 7.05671 11.9004C7.10344 11.9813 7.1495 12.0631 7.19538 12.1455C7.2322 12.2116 7.26948 12.2777 7.30573 12.3447C7.36368 12.4519 7.42019 12.5605 7.47663 12.6699C7.49982 12.7149 7.52402 12.7594 7.54695 12.8047C7.61699 12.9432 7.68546 13.0836 7.753 13.2256C7.78588 13.2947 7.81741 13.3647 7.84968 13.4346C7.89618 13.5353 7.94218 13.6368 7.98737 13.7393C8.01099 13.7928 8.03444 13.8465 8.05769 13.9004C8.10414 14.0082 8.14946 14.117 8.19441 14.2266C8.22273 14.2956 8.25068 14.3649 8.27839 14.4346C8.30919 14.512 8.34016 14.5897 8.37019 14.668C8.40374 14.7554 8.43723 14.8432 8.4698 14.9316C8.52705 15.0872 8.58367 15.2439 8.63776 15.4023C8.64155 15.4134 8.64571 15.4244 8.64948 15.4355C8.89902 16.1707 9.10089 16.9027 9.25886 17.6221C9.26287 17.6404 9.2676 17.6585 9.27155 17.6768C9.31833 17.8927 9.35981 18.1078 9.39851 18.3213C9.4046 18.3549 9.41117 18.3883 9.41706 18.4219C9.45407 18.6326 9.4865 18.842 9.51569 19.0498C9.51972 19.0785 9.52353 19.1071 9.52741 19.1357C9.55568 19.3442 9.58019 19.5509 9.60066 19.7559C9.60371 19.7865 9.60656 19.8171 9.60944 19.8477C9.62847 20.0491 9.64381 20.2487 9.65534 20.4463C9.65675 20.4704 9.65893 20.4945 9.66023 20.5186C9.67133 20.7247 9.67773 20.9285 9.68073 21.1299C9.68112 21.156 9.68146 21.182 9.68171 21.208C9.69586 22.6555 9.50142 23.971 9.11335 25.0625C9.05822 25.2176 8.99849 25.3679 8.93562 25.5137C8.92077 25.5481 8.90597 25.5823 8.89069 25.6162C8.87494 25.6512 8.86003 25.6863 8.84382 25.7207L8.84187 25.7197C8.79493 25.8192 8.74806 25.9172 8.69734 26.0117C6.95031 25.3047 5.42244 24.1711 4.2403 22.7412C4.22318 22.7209 4.2066 22.7001 4.18952 22.6797C4.16264 22.6467 4.13498 22.6144 4.10847 22.5811C2.88128 21.0838 1.79664 19.1318 1.03523 16.8887C-0.317251 12.9041 -0.303828 9.0271 0.839914 6.60254Z" fill="#B4E82E"/>
<path d="M28.0994 1.81116C31.2477 1.81121 34.093 3.10645 36.1345 5.19104C35.7147 5.13854 35.2866 5.10902 34.8533 5.10901C29.1364 5.10951 24.4641 9.81002 24.155 15.7301C24.1387 16.9999 23.9133 18.219 23.5095 19.3541C23.4582 19.4982 23.4024 19.6406 23.3455 19.7819C23.3286 19.8237 23.3101 19.8653 23.2927 19.9069C23.2494 20.0108 23.2063 20.1151 23.1599 20.2174C23.143 20.2547 23.1245 20.2917 23.1072 20.3287C23.0537 20.4435 22.9974 20.557 22.9402 20.6696C22.9298 20.6899 22.9195 20.7108 22.9089 20.7311C21.041 24.352 17.2682 26.8306 12.9128 26.8307C11.7099 26.8307 10.5513 26.6393 9.4646 26.2897C10.4229 23.5967 12.3784 21.3767 14.8865 20.0739C14.7956 20.121 14.7044 20.1678 14.615 20.2174C15.2931 19.67 15.8563 19.0027 16.2673 18.2194C16.838 17.1312 17.057 15.9299 16.9714 14.6998C16.9773 14.7401 16.9856 14.7799 16.9919 14.8199C16.9014 14.2456 16.8523 13.6571 16.8523 13.0573C16.8524 10.4908 17.7137 8.12563 19.1609 6.23303C21.216 3.54579 24.455 1.81137 28.0994 1.81116ZM20.0613 18.8141C19.7598 18.8141 19.4612 18.8266 19.1658 18.8502C19.4612 18.8266 19.7598 18.8141 20.0613 18.8141ZM17.9324 17.8668C17.9557 17.9159 17.9797 17.9646 18.0037 18.0133C17.9797 17.9646 17.9557 17.9159 17.9324 17.8668ZM17.5173 16.8746C17.5329 16.9176 17.5501 16.9599 17.5662 17.0026C17.5501 16.9599 17.5328 16.9176 17.5173 16.8746ZM17.196 15.8268C17.2066 15.8684 17.2192 15.9094 17.2302 15.9508C17.2155 15.8952 17.2002 15.8397 17.1863 15.7838L17.196 15.8268ZM23.7097 12.4254C23.6874 12.3487 23.6624 12.2729 23.6384 12.1969C23.6624 12.2729 23.6873 12.3487 23.7097 12.4254Z" fill="#B4E82E"/>
<path d="M41.3802 25V8.2H48.6522C50.1562 8.2 51.4522 8.448 52.5402 8.944C53.6282 9.424 54.4682 10.12 55.0602 11.032C55.6522 11.944 55.9482 13.032 55.9482 14.296C55.9482 15.544 55.6522 16.624 55.0602 17.536C54.4682 18.432 53.6282 19.12 52.5402 19.6C51.4522 20.08 50.1562 20.32 48.6522 20.32H43.5402L45.2682 18.616V25H41.3802ZM52.0602 25L47.8602 18.904H52.0122L56.2602 25H52.0602ZM45.2682 19.048L43.5402 17.224H48.4362C49.6362 17.224 50.5322 16.968 51.1242 16.456C51.7162 15.928 52.0122 15.208 52.0122 14.296C52.0122 13.368 51.7162 12.648 51.1242 12.136C50.5322 11.624 49.6362 11.368 48.4362 11.368H43.5402L45.2682 9.52V19.048ZM65.1726 25.192C63.7006 25.192 62.4046 24.904 61.2846 24.328C60.1806 23.752 59.3246 22.968 58.7166 21.976C58.1086 20.968 57.8046 19.824 57.8046 18.544C57.8046 17.248 58.1006 16.104 58.6926 15.112C59.3006 14.104 60.1246 13.32 61.1646 12.76C62.2046 12.184 63.3806 11.896 64.6926 11.896C65.9566 11.896 67.0926 12.168 68.1006 12.712C69.1246 13.24 69.9326 14.008 70.5246 15.016C71.1166 16.008 71.4126 17.2 71.4126 18.592C71.4126 18.736 71.4046 18.904 71.3886 19.096C71.3726 19.272 71.3566 19.44 71.3406 19.6H60.8526V17.416H69.3726L67.9326 18.064C67.9326 17.392 67.7966 16.808 67.5246 16.312C67.2526 15.816 66.8766 15.432 66.3966 15.16C65.9166 14.872 65.3566 14.728 64.7166 14.728C64.0766 14.728 63.5086 14.872 63.0126 15.16C62.5326 15.432 62.1566 15.824 61.8846 16.336C61.6126 16.832 61.4766 17.424 61.4766 18.112V18.688C61.4766 19.392 61.6286 20.016 61.9326 20.56C62.2526 21.088 62.6926 21.496 63.2526 21.784C63.8286 22.056 64.5006 22.192 65.2686 22.192C65.9566 22.192 66.5566 22.088 67.0686 21.88C67.5966 21.672 68.0766 21.36 68.5086 20.944L70.5006 23.104C69.9086 23.776 69.1646 24.296 68.2686 24.664C67.3726 25.016 66.3406 25.192 65.1726 25.192ZM77.0012 22.36L77.0972 17.8L83.1212 12.088H87.5852L81.8012 17.968L79.8572 19.552L77.0012 22.36ZM73.9052 25V7.192H77.6492V25H73.9052ZM83.5292 25L79.1612 19.576L81.5132 16.672L88.0652 25H83.5292ZM97.4346 25V22.48L97.1946 21.928V17.416C97.1946 16.616 96.9466 15.992 96.4506 15.544C95.9706 15.096 95.2266 14.872 94.2186 14.872C93.5306 14.872 92.8506 14.984 92.1786 15.208C91.5226 15.416 90.9626 15.704 90.4986 16.072L89.1546 13.456C89.8586 12.96 90.7066 12.576 91.6986 12.304C92.6906 12.032 93.6986 11.896 94.7226 11.896C96.6906 11.896 98.2186 12.36 99.3066 13.288C100.395 14.216 100.939 15.664 100.939 17.632V25H97.4346ZM93.4986 25.192C92.4906 25.192 91.6266 25.024 90.9066 24.688C90.1866 24.336 89.6346 23.864 89.2506 23.272C88.8666 22.68 88.6746 22.016 88.6746 21.28C88.6746 20.512 88.8586 19.84 89.2266 19.264C89.6106 18.688 90.2106 18.24 91.0266 17.92C91.8426 17.584 92.9066 17.416 94.2186 17.416H97.6506V19.6H94.6266C93.7466 19.6 93.1386 19.744 92.8026 20.032C92.4826 20.32 92.3226 20.68 92.3226 21.112C92.3226 21.592 92.5066 21.976 92.8746 22.264C93.2586 22.536 93.7786 22.672 94.4346 22.672C95.0586 22.672 95.6186 22.528 96.1146 22.24C96.6106 21.936 96.9706 21.496 97.1946 20.92L97.7706 22.648C97.4986 23.48 97.0026 24.112 96.2826 24.544C95.5626 24.976 94.6346 25.192 93.4986 25.192ZM111.959 25.192C110.871 25.192 109.919 24.952 109.103 24.472C108.287 23.992 107.647 23.264 107.183 22.288C106.735 21.296 106.511 20.048 106.511 18.544C106.511 17.024 106.727 15.776 107.159 14.8C107.591 13.824 108.215 13.096 109.031 12.616C109.847 12.136 110.823 11.896 111.959 11.896C113.175 11.896 114.263 12.176 115.223 12.736C116.199 13.28 116.967 14.048 117.527 15.04C118.103 16.032 118.391 17.2 118.391 18.544C118.391 19.904 118.103 21.08 117.527 22.072C116.967 23.064 116.199 23.832 115.223 24.376C114.263 24.92 113.175 25.192 111.959 25.192ZM104.327 29.656V12.088H107.903V14.728L107.831 18.568L108.071 22.384V29.656H104.327ZM111.311 22.12C111.935 22.12 112.487 21.976 112.967 21.688C113.463 21.4 113.855 20.992 114.143 20.464C114.447 19.92 114.599 19.28 114.599 18.544C114.599 17.792 114.447 17.152 114.143 16.624C113.855 16.096 113.463 15.688 112.967 15.4C112.487 15.112 111.935 14.968 111.311 14.968C110.687 14.968 110.127 15.112 109.631 15.4C109.135 15.688 108.743 16.096 108.455 16.624C108.167 17.152 108.023 17.792 108.023 18.544C108.023 19.28 108.167 19.92 108.455 20.464C108.743 20.992 109.135 21.4 109.631 21.688C110.127 21.976 110.687 22.12 111.311 22.12ZM125.241 25.192C124.137 25.192 123.073 25.064 122.049 24.808C121.041 24.536 120.241 24.2 119.649 23.8L120.897 21.112C121.489 21.48 122.185 21.784 122.985 22.024C123.801 22.248 124.601 22.36 125.385 22.36C126.249 22.36 126.857 22.256 127.209 22.048C127.577 21.84 127.761 21.552 127.761 21.184C127.761 20.88 127.617 20.656 127.329 20.512C127.057 20.352 126.689 20.232 126.225 20.152C125.761 20.072 125.249 19.992 124.689 19.912C124.145 19.832 123.593 19.728 123.033 19.6C122.473 19.456 121.961 19.248 121.497 18.976C121.033 18.704 120.657 18.336 120.369 17.872C120.097 17.408 119.961 16.808 119.961 16.072C119.961 15.256 120.193 14.536 120.657 13.912C121.137 13.288 121.825 12.8 122.721 12.448C123.617 12.08 124.689 11.896 125.937 11.896C126.817 11.896 127.713 11.992 128.625 12.184C129.537 12.376 130.297 12.656 130.905 13.024L129.657 15.688C129.033 15.32 128.401 15.072 127.761 14.944C127.137 14.8 126.529 14.728 125.937 14.728C125.105 14.728 124.497 14.84 124.113 15.064C123.729 15.288 123.537 15.576 123.537 15.928C123.537 16.248 123.673 16.488 123.945 16.648C124.233 16.808 124.609 16.936 125.073 17.032C125.537 17.128 126.041 17.216 126.585 17.296C127.145 17.36 127.705 17.464 128.265 17.608C128.825 17.752 129.329 17.96 129.777 18.232C130.241 18.488 130.617 18.848 130.905 19.312C131.193 19.76 131.337 20.352 131.337 21.088C131.337 21.888 131.097 22.6 130.617 23.224C130.137 23.832 129.441 24.312 128.529 24.664C127.633 25.016 126.537 25.192 125.241 25.192ZM146.228 25.288C144.884 25.288 143.596 25.112 142.364 24.76C141.132 24.392 140.14 23.92 139.388 23.344L140.708 20.416C141.428 20.928 142.276 21.352 143.252 21.688C144.244 22.008 145.244 22.168 146.252 22.168C147.02 22.168 147.636 22.096 148.1 21.952C148.58 21.792 148.932 21.576 149.156 21.304C149.38 21.032 149.492 20.72 149.492 20.368C149.492 19.92 149.316 19.568 148.964 19.312C148.612 19.04 148.148 18.824 147.572 18.664C146.996 18.488 146.356 18.328 145.652 18.184C144.964 18.024 144.268 17.832 143.564 17.608C142.876 17.384 142.244 17.096 141.668 16.744C141.092 16.392 140.62 15.928 140.252 15.352C139.9 14.776 139.724 14.04 139.724 13.144C139.724 12.184 139.98 11.312 140.492 10.528C141.02 9.728 141.804 9.096 142.844 8.632C143.9 8.152 145.22 7.912 146.804 7.912C147.86 7.912 148.9 8.04 149.924 8.296C150.948 8.536 151.852 8.904 152.636 9.4L151.436 12.352C150.652 11.904 149.868 11.576 149.084 11.368C148.3 11.144 147.532 11.032 146.78 11.032C146.028 11.032 145.412 11.12 144.932 11.296C144.452 11.472 144.108 11.704 143.9 11.992C143.692 12.264 143.588 12.584 143.588 12.952C143.588 13.384 143.764 13.736 144.116 14.008C144.468 14.264 144.932 14.472 145.508 14.632C146.084 14.792 146.716 14.952 147.404 15.112C148.108 15.272 148.804 15.456 149.492 15.664C150.196 15.872 150.836 16.152 151.412 16.504C151.988 16.856 152.452 17.32 152.804 17.896C153.172 18.472 153.356 19.2 153.356 20.08C153.356 21.024 153.092 21.888 152.564 22.672C152.036 23.456 151.244 24.088 150.188 24.568C149.148 25.048 147.828 25.288 146.228 25.288ZM161.029 25.192C159.509 25.192 158.325 24.808 157.477 24.04C156.629 23.256 156.205 22.096 156.205 20.56V9.232H159.949V20.512C159.949 21.056 160.093 21.48 160.381 21.784C160.669 22.072 161.061 22.216 161.557 22.216C162.149 22.216 162.653 22.056 163.069 21.736L164.077 24.376C163.693 24.648 163.229 24.856 162.685 25C162.157 25.128 161.605 25.192 161.029 25.192ZM154.213 15.256V12.376H163.165V15.256H154.213ZM171.924 25.192C170.548 25.192 169.324 24.904 168.252 24.328C167.196 23.752 166.356 22.968 165.732 21.976C165.124 20.968 164.82 19.824 164.82 18.544C164.82 17.248 165.124 16.104 165.732 15.112C166.356 14.104 167.196 13.32 168.252 12.76C169.324 12.184 170.548 11.896 171.924 11.896C173.284 11.896 174.5 12.184 175.572 12.76C176.644 13.32 177.484 14.096 178.092 15.088C178.7 16.08 179.004 17.232 179.004 18.544C179.004 19.824 178.7 20.968 178.092 21.976C177.484 22.968 176.644 23.752 175.572 24.328C174.5 24.904 173.284 25.192 171.924 25.192ZM171.924 22.12C172.548 22.12 173.108 21.976 173.604 21.688C174.1 21.4 174.492 20.992 174.78 20.464C175.068 19.92 175.212 19.28 175.212 18.544C175.212 17.792 175.068 17.152 174.78 16.624C174.492 16.096 174.1 15.688 173.604 15.4C173.108 15.112 172.548 14.968 171.924 14.968C171.3 14.968 170.74 15.112 170.244 15.4C169.748 15.688 169.348 16.096 169.044 16.624C168.756 17.152 168.612 17.792 168.612 18.544C168.612 19.28 168.756 19.92 169.044 20.464C169.348 20.992 169.748 21.4 170.244 21.688C170.74 21.976 171.3 22.12 171.924 22.12ZM181.507 25V12.088H185.083V15.736L184.579 14.68C184.963 13.768 185.579 13.08 186.427 12.616C187.275 12.136 188.307 11.896 189.523 11.896V15.352C189.363 15.336 189.219 15.328 189.091 15.328C188.963 15.312 188.827 15.304 188.683 15.304C187.659 15.304 186.827 15.6 186.187 16.192C185.563 16.768 185.251 17.672 185.251 18.904V25H181.507ZM198.063 25.192C196.591 25.192 195.295 24.904 194.175 24.328C193.071 23.752 192.215 22.968 191.607 21.976C190.999 20.968 190.695 19.824 190.695 18.544C190.695 17.248 190.991 16.104 191.583 15.112C192.191 14.104 193.015 13.32 194.055 12.76C195.095 12.184 196.271 11.896 197.583 11.896C198.847 11.896 199.983 12.168 200.991 12.712C202.015 13.24 202.823 14.008 203.415 15.016C204.007 16.008 204.303 17.2 204.303 18.592C204.303 18.736 204.295 18.904 204.279 19.096C204.263 19.272 204.247 19.44 204.231 19.6H193.743V17.416H202.263L200.823 18.064C200.823 17.392 200.687 16.808 200.415 16.312C200.143 15.816 199.767 15.432 199.287 15.16C198.807 14.872 198.247 14.728 197.607 14.728C196.967 14.728 196.399 14.872 195.903 15.16C195.423 15.432 195.047 15.824 194.775 16.336C194.503 16.832 194.367 17.424 194.367 18.112V18.688C194.367 19.392 194.519 20.016 194.823 20.56C195.143 21.088 195.583 21.496 196.143 21.784C196.719 22.056 197.391 22.192 198.159 22.192C198.847 22.192 199.447 22.088 199.959 21.88C200.487 21.672 200.967 21.36 201.399 20.944L203.391 23.104C202.799 23.776 202.055 24.296 201.159 24.664C200.263 25.016 199.231 25.192 198.063 25.192Z" fill="#B4E82E"/>
</svg>
