<svg width="221" height="32" viewBox="0 0 221 32" fill="none" xmlns="http://www.w3.org/2000/svg">
<ellipse cx="12.8442" cy="17.096" rx="2.07365" ry="2.07352" fill="#FAFAFA"/>
<ellipse cx="17.7812" cy="28.5106" rx="1.67867" ry="1.67856" fill="#FAFAFA"/>
<ellipse cx="7.90621" cy="28.5106" rx="1.67867" ry="1.67856" fill="#FAFAFA"/>
<path d="M7.89648 3.13477C11.3376 3.13486 14.127 5.92432 14.127 9.36523C14.1268 12.1829 12.2557 14.5622 9.68848 15.332C9.63962 15.1762 9.59015 15.0195 9.53711 14.8633C8.01294 10.3732 5.19674 7.04697 2.52539 6.20703C3.60874 4.36861 5.60809 3.13477 7.89648 3.13477Z" fill="#FAFAFA"/>
<path fill-rule="evenodd" clip-rule="evenodd" d="M0.83967 6.60254C1.97097 6.74372 3.1544 7.37232 4.27815 8.37891L4.2801 8.37793C4.2972 8.39325 4.31381 8.40931 4.33088 8.4248C4.39972 8.48729 4.46762 8.55188 4.53596 8.61719C4.57044 8.65014 4.60513 8.68313 4.63947 8.7168C4.83765 8.91103 5.03356 9.11683 5.22639 9.33398C5.24991 9.36048 5.27327 9.38724 5.2967 9.41406C5.37204 9.50029 5.44696 9.58813 5.52131 9.67773C5.55018 9.71252 5.57854 9.74791 5.60725 9.7832C5.67503 9.86652 5.74254 9.95104 5.8094 10.0371C5.83779 10.0737 5.86613 10.1104 5.89436 10.1475C5.96921 10.2457 6.04344 10.3456 6.11701 10.4473C6.13584 10.4733 6.15491 10.4992 6.17365 10.5254C6.35989 10.786 6.54175 11.0574 6.71858 11.3389C6.73891 11.3712 6.75892 11.4039 6.77912 11.4365C6.84374 11.5409 6.90734 11.6468 6.97053 11.7539C6.99923 11.8025 7.02807 11.8512 7.05647 11.9004C7.1032 11.9813 7.14926 12.0631 7.19514 12.1455C7.23195 12.2116 7.26924 12.2777 7.30549 12.3447C7.36343 12.4519 7.41994 12.5605 7.47639 12.6699C7.49957 12.7149 7.52378 12.7594 7.5467 12.8047C7.61675 12.9432 7.68521 13.0836 7.75276 13.2256C7.78564 13.2947 7.81717 13.3647 7.84944 13.4346C7.89594 13.5353 7.94194 13.6368 7.98713 13.7393C8.01074 13.7928 8.0342 13.8465 8.05744 13.9004C8.1039 14.0082 8.14921 14.117 8.19416 14.2266C8.22248 14.2956 8.25044 14.3649 8.27815 14.4346C8.30895 14.512 8.33991 14.5897 8.36994 14.668C8.4035 14.7554 8.43699 14.8432 8.46955 14.9316C8.5268 15.0872 8.58342 15.2439 8.63752 15.4023C8.64131 15.4134 8.64547 15.4244 8.64924 15.4355C8.89877 16.1707 9.10064 16.9027 9.25861 17.6221C9.26263 17.6404 9.26735 17.6585 9.27131 17.6768C9.31809 17.8927 9.35957 18.1078 9.39826 18.3213C9.40435 18.3549 9.41093 18.3883 9.41682 18.4219C9.45383 18.6326 9.48625 18.842 9.51545 19.0498C9.51948 19.0785 9.52329 19.1071 9.52717 19.1357C9.55544 19.3442 9.57995 19.5509 9.60041 19.7559C9.60347 19.7865 9.60632 19.8171 9.6092 19.8477C9.62823 20.0491 9.64357 20.2487 9.6551 20.4463C9.65651 20.4704 9.65868 20.4945 9.65998 20.5186C9.67109 20.7247 9.67748 20.9285 9.68049 21.1299C9.68088 21.156 9.68121 21.182 9.68147 21.208C9.69561 22.6555 9.50118 23.971 9.11311 25.0625C9.05797 25.2176 8.99825 25.3679 8.93537 25.5137C8.92053 25.5481 8.90573 25.5823 8.89045 25.6162C8.87469 25.6512 8.85979 25.6863 8.84358 25.7207L8.84162 25.7197C8.79469 25.8192 8.74781 25.9172 8.69709 26.0117C6.95007 25.3047 5.42219 24.1711 4.24006 22.7412C4.22293 22.7209 4.20636 22.7001 4.18928 22.6797C4.1624 22.6467 4.13474 22.6144 4.10822 22.5811C2.88104 21.0838 1.7964 19.1318 1.03498 16.8887C-0.317495 12.9041 -0.304072 9.0271 0.83967 6.60254Z" fill="#FAFAFA"/>
<path d="M28.0996 1.81152C31.2479 1.81157 34.0933 3.10682 36.1348 5.19141C35.7149 5.13891 35.2868 5.10938 34.8535 5.10938C29.1367 5.10987 24.4643 9.81039 24.1553 15.7305C24.139 17.0003 23.9136 18.2194 23.5098 19.3545C23.4585 19.4985 23.4026 19.641 23.3457 19.7822C23.3288 19.8241 23.3103 19.8656 23.293 19.9072C23.2496 20.0112 23.2065 20.1154 23.1602 20.2178C23.1432 20.2551 23.1248 20.292 23.1074 20.3291C23.0539 20.4438 22.9976 20.5573 22.9404 20.6699C22.93 20.6903 22.9197 20.7111 22.9092 20.7314C21.0412 24.3524 17.2685 26.8309 12.9131 26.8311C11.7102 26.8311 10.5515 26.6397 9.46484 26.29C10.4231 23.597 12.3786 21.3771 14.8867 20.0742C14.7958 20.1214 14.7046 20.1682 14.6152 20.2178C15.2934 19.6704 15.8565 19.0031 16.2676 18.2197C16.8383 17.1315 17.0573 15.9302 16.9717 14.7002C16.9776 14.7404 16.9859 14.7802 16.9922 14.8203C16.9016 14.246 16.8526 13.6574 16.8525 13.0576C16.8526 10.4912 17.7139 8.126 19.1611 6.2334C21.2162 3.54616 24.4552 1.81173 28.0996 1.81152ZM20.0615 18.8145C19.7601 18.8145 19.4614 18.8269 19.166 18.8506C19.4615 18.827 19.7601 18.8145 20.0615 18.8145ZM17.9326 17.8672C17.9559 17.9163 17.9799 17.965 18.0039 18.0137C17.9799 17.965 17.9559 17.9163 17.9326 17.8672ZM17.5176 16.875C17.5331 16.918 17.5504 16.9602 17.5664 17.0029C17.5504 16.9602 17.5331 16.918 17.5176 16.875ZM17.1963 15.8271C17.2068 15.8687 17.2195 15.9098 17.2305 15.9512C17.2157 15.8956 17.2005 15.8401 17.1865 15.7842L17.1963 15.8271Z" fill="#FAFAFA"/>
<path d="M41.3797 25V8.2H48.6517C50.1557 8.2 51.4517 8.448 52.5397 8.944C53.6277 9.424 54.4677 10.12 55.0597 11.032C55.6517 11.944 55.9477 13.032 55.9477 14.296C55.9477 15.544 55.6517 16.624 55.0597 17.536C54.4677 18.432 53.6277 19.12 52.5397 19.6C51.4517 20.08 50.1557 20.32 48.6517 20.32H43.5397L45.2677 18.616V25H41.3797ZM52.0597 25L47.8597 18.904H52.0117L56.2597 25H52.0597ZM45.2677 19.048L43.5397 17.224H48.4357C49.6357 17.224 50.5317 16.968 51.1237 16.456C51.7157 15.928 52.0117 15.208 52.0117 14.296C52.0117 13.368 51.7157 12.648 51.1237 12.136C50.5317 11.624 49.6357 11.368 48.4357 11.368H43.5397L45.2677 9.52V19.048ZM65.1721 25.192C63.7001 25.192 62.4041 24.904 61.2841 24.328C60.1801 23.752 59.3241 22.968 58.7161 21.976C58.1081 20.968 57.8041 19.824 57.8041 18.544C57.8041 17.248 58.1001 16.104 58.6921 15.112C59.3001 14.104 60.1241 13.32 61.1641 12.76C62.2041 12.184 63.3801 11.896 64.6921 11.896C65.9561 11.896 67.0921 12.168 68.1001 12.712C69.1241 13.24 69.9321 14.008 70.5241 15.016C71.1161 16.008 71.4121 17.2 71.4121 18.592C71.4121 18.736 71.4041 18.904 71.3881 19.096C71.3721 19.272 71.3561 19.44 71.3401 19.6H60.8521V17.416H69.3721L67.9321 18.064C67.9321 17.392 67.7961 16.808 67.5241 16.312C67.2521 15.816 66.8761 15.432 66.3961 15.16C65.9161 14.872 65.3561 14.728 64.7161 14.728C64.0761 14.728 63.5081 14.872 63.0121 15.16C62.5321 15.432 62.1561 15.824 61.8841 16.336C61.6121 16.832 61.4761 17.424 61.4761 18.112V18.688C61.4761 19.392 61.6281 20.016 61.9321 20.56C62.2521 21.088 62.6921 21.496 63.2521 21.784C63.8281 22.056 64.5001 22.192 65.2681 22.192C65.9561 22.192 66.5561 22.088 67.0681 21.88C67.5961 21.672 68.0761 21.36 68.5081 20.944L70.5001 23.104C69.9081 23.776 69.1641 24.296 68.2681 24.664C67.3721 25.016 66.3401 25.192 65.1721 25.192ZM77.0008 22.36L77.0968 17.8L83.1208 12.088H87.5848L81.8008 17.968L79.8568 19.552L77.0008 22.36ZM73.9048 25V7.192H77.6488V25H73.9048ZM83.5288 25L79.1608 19.576L81.5128 16.672L88.0648 25H83.5288ZM97.4341 25V22.48L97.1941 21.928V17.416C97.1941 16.616 96.9461 15.992 96.4501 15.544C95.9701 15.096 95.2261 14.872 94.2181 14.872C93.5301 14.872 92.8501 14.984 92.1781 15.208C91.5221 15.416 90.9621 15.704 90.4981 16.072L89.1541 13.456C89.8581 12.96 90.7061 12.576 91.6981 12.304C92.6901 12.032 93.6981 11.896 94.7221 11.896C96.6901 11.896 98.2181 12.36 99.3061 13.288C100.394 14.216 100.938 15.664 100.938 17.632V25H97.4341ZM93.4981 25.192C92.4901 25.192 91.6261 25.024 90.9061 24.688C90.1861 24.336 89.6341 23.864 89.2501 23.272C88.8661 22.68 88.6741 22.016 88.6741 21.28C88.6741 20.512 88.8581 19.84 89.2261 19.264C89.6101 18.688 90.2101 18.24 91.0261 17.92C91.8421 17.584 92.9061 17.416 94.2181 17.416H97.6501V19.6H94.6261C93.7461 19.6 93.1381 19.744 92.8021 20.032C92.4821 20.32 92.3221 20.68 92.3221 21.112C92.3221 21.592 92.5061 21.976 92.8741 22.264C93.2581 22.536 93.7781 22.672 94.4341 22.672C95.0581 22.672 95.6181 22.528 96.1141 22.24C96.6101 21.936 96.9701 21.496 97.1941 20.92L97.7701 22.648C97.4981 23.48 97.0021 24.112 96.2821 24.544C95.5621 24.976 94.6341 25.192 93.4981 25.192ZM111.959 25.192C110.871 25.192 109.919 24.952 109.103 24.472C108.287 23.992 107.647 23.264 107.183 22.288C106.735 21.296 106.511 20.048 106.511 18.544C106.511 17.024 106.727 15.776 107.159 14.8C107.591 13.824 108.215 13.096 109.031 12.616C109.847 12.136 110.823 11.896 111.959 11.896C113.175 11.896 114.263 12.176 115.223 12.736C116.199 13.28 116.967 14.048 117.527 15.04C118.103 16.032 118.391 17.2 118.391 18.544C118.391 19.904 118.103 21.08 117.527 22.072C116.967 23.064 116.199 23.832 115.223 24.376C114.263 24.92 113.175 25.192 111.959 25.192ZM104.327 29.656V12.088H107.903V14.728L107.831 18.568L108.071 22.384V29.656H104.327ZM111.311 22.12C111.935 22.12 112.487 21.976 112.967 21.688C113.463 21.4 113.855 20.992 114.143 20.464C114.447 19.92 114.599 19.28 114.599 18.544C114.599 17.792 114.447 17.152 114.143 16.624C113.855 16.096 113.463 15.688 112.967 15.4C112.487 15.112 111.935 14.968 111.311 14.968C110.687 14.968 110.127 15.112 109.631 15.4C109.135 15.688 108.743 16.096 108.455 16.624C108.167 17.152 108.023 17.792 108.023 18.544C108.023 19.28 108.167 19.92 108.455 20.464C108.743 20.992 109.135 21.4 109.631 21.688C110.127 21.976 110.687 22.12 111.311 22.12ZM125.241 25.192C124.137 25.192 123.073 25.064 122.049 24.808C121.041 24.536 120.241 24.2 119.649 23.8L120.897 21.112C121.489 21.48 122.185 21.784 122.985 22.024C123.801 22.248 124.601 22.36 125.385 22.36C126.249 22.36 126.857 22.256 127.209 22.048C127.577 21.84 127.761 21.552 127.761 21.184C127.761 20.88 127.617 20.656 127.329 20.512C127.057 20.352 126.689 20.232 126.225 20.152C125.761 20.072 125.249 19.992 124.689 19.912C124.145 19.832 123.593 19.728 123.033 19.6C122.473 19.456 121.961 19.248 121.497 18.976C121.033 18.704 120.657 18.336 120.369 17.872C120.097 17.408 119.961 16.808 119.961 16.072C119.961 15.256 120.193 14.536 120.657 13.912C121.137 13.288 121.825 12.8 122.721 12.448C123.617 12.08 124.689 11.896 125.937 11.896C126.817 11.896 127.713 11.992 128.625 12.184C129.537 12.376 130.297 12.656 130.905 13.024L129.657 15.688C129.033 15.32 128.401 15.072 127.761 14.944C127.137 14.8 126.529 14.728 125.937 14.728C125.105 14.728 124.497 14.84 124.113 15.064C123.729 15.288 123.537 15.576 123.537 15.928C123.537 16.248 123.673 16.488 123.945 16.648C124.233 16.808 124.609 16.936 125.073 17.032C125.537 17.128 126.041 17.216 126.585 17.296C127.145 17.36 127.705 17.464 128.265 17.608C128.825 17.752 129.329 17.96 129.777 18.232C130.241 18.488 130.617 18.848 130.905 19.312C131.193 19.76 131.337 20.352 131.337 21.088C131.337 21.888 131.097 22.6 130.617 23.224C130.137 23.832 129.441 24.312 128.529 24.664C127.633 25.016 126.537 25.192 125.241 25.192ZM146.228 25.288C144.884 25.288 143.596 25.112 142.364 24.76C141.132 24.392 140.14 23.92 139.388 23.344L140.708 20.416C141.428 20.928 142.276 21.352 143.252 21.688C144.244 22.008 145.244 22.168 146.252 22.168C147.02 22.168 147.636 22.096 148.1 21.952C148.58 21.792 148.932 21.576 149.156 21.304C149.38 21.032 149.492 20.72 149.492 20.368C149.492 19.92 149.316 19.568 148.964 19.312C148.612 19.04 148.148 18.824 147.572 18.664C146.996 18.488 146.356 18.328 145.652 18.184C144.964 18.024 144.268 17.832 143.564 17.608C142.876 17.384 142.244 17.096 141.668 16.744C141.092 16.392 140.62 15.928 140.252 15.352C139.9 14.776 139.724 14.04 139.724 13.144C139.724 12.184 139.98 11.312 140.492 10.528C141.02 9.728 141.804 9.096 142.844 8.632C143.9 8.152 145.22 7.912 146.804 7.912C147.86 7.912 148.9 8.04 149.924 8.296C150.948 8.536 151.852 8.904 152.636 9.4L151.436 12.352C150.652 11.904 149.868 11.576 149.084 11.368C148.3 11.144 147.532 11.032 146.78 11.032C146.028 11.032 145.412 11.12 144.932 11.296C144.452 11.472 144.108 11.704 143.9 11.992C143.692 12.264 143.588 12.584 143.588 12.952C143.588 13.384 143.764 13.736 144.116 14.008C144.468 14.264 144.932 14.472 145.508 14.632C146.084 14.792 146.716 14.952 147.404 15.112C148.108 15.272 148.804 15.456 149.492 15.664C150.196 15.872 150.836 16.152 151.412 16.504C151.988 16.856 152.452 17.32 152.804 17.896C153.172 18.472 153.356 19.2 153.356 20.08C153.356 21.024 153.092 21.888 152.564 22.672C152.036 23.456 151.244 24.088 150.188 24.568C149.148 25.048 147.828 25.288 146.228 25.288ZM161.029 25.192C159.509 25.192 158.325 24.808 157.477 24.04C156.629 23.256 156.205 22.096 156.205 20.56V9.232H159.949V20.512C159.949 21.056 160.093 21.48 160.381 21.784C160.669 22.072 161.061 22.216 161.557 22.216C162.149 22.216 162.653 22.056 163.069 21.736L164.077 24.376C163.693 24.648 163.229 24.856 162.685 25C162.157 25.128 161.605 25.192 161.029 25.192ZM154.213 15.256V12.376H163.165V15.256H154.213ZM171.924 25.192C170.548 25.192 169.324 24.904 168.252 24.328C167.196 23.752 166.356 22.968 165.732 21.976C165.124 20.968 164.82 19.824 164.82 18.544C164.82 17.248 165.124 16.104 165.732 15.112C166.356 14.104 167.196 13.32 168.252 12.76C169.324 12.184 170.548 11.896 171.924 11.896C173.284 11.896 174.5 12.184 175.572 12.76C176.644 13.32 177.484 14.096 178.092 15.088C178.7 16.08 179.004 17.232 179.004 18.544C179.004 19.824 178.7 20.968 178.092 21.976C177.484 22.968 176.644 23.752 175.572 24.328C174.5 24.904 173.284 25.192 171.924 25.192ZM171.924 22.12C172.548 22.12 173.108 21.976 173.604 21.688C174.1 21.4 174.492 20.992 174.78 20.464C175.068 19.92 175.212 19.28 175.212 18.544C175.212 17.792 175.068 17.152 174.78 16.624C174.492 16.096 174.1 15.688 173.604 15.4C173.108 15.112 172.548 14.968 171.924 14.968C171.3 14.968 170.74 15.112 170.244 15.4C169.748 15.688 169.348 16.096 169.044 16.624C168.756 17.152 168.612 17.792 168.612 18.544C168.612 19.28 168.756 19.92 169.044 20.464C169.348 20.992 169.748 21.4 170.244 21.688C170.74 21.976 171.3 22.12 171.924 22.12ZM181.506 25V12.088H185.082V15.736L184.578 14.68C184.962 13.768 185.578 13.08 186.426 12.616C187.274 12.136 188.306 11.896 189.522 11.896V15.352C189.362 15.336 189.218 15.328 189.09 15.328C188.962 15.312 188.826 15.304 188.682 15.304C187.658 15.304 186.826 15.6 186.186 16.192C185.562 16.768 185.25 17.672 185.25 18.904V25H181.506ZM198.063 25.192C196.591 25.192 195.295 24.904 194.175 24.328C193.071 23.752 192.215 22.968 191.607 21.976C190.999 20.968 190.695 19.824 190.695 18.544C190.695 17.248 190.991 16.104 191.583 15.112C192.191 14.104 193.015 13.32 194.055 12.76C195.095 12.184 196.271 11.896 197.583 11.896C198.847 11.896 199.983 12.168 200.991 12.712C202.015 13.24 202.823 14.008 203.415 15.016C204.007 16.008 204.303 17.2 204.303 18.592C204.303 18.736 204.295 18.904 204.279 19.096C204.263 19.272 204.247 19.44 204.231 19.6H193.743V17.416H202.263L200.823 18.064C200.823 17.392 200.687 16.808 200.415 16.312C200.143 15.816 199.767 15.432 199.287 15.16C198.807 14.872 198.247 14.728 197.607 14.728C196.967 14.728 196.399 14.872 195.903 15.16C195.423 15.432 195.047 15.824 194.775 16.336C194.503 16.832 194.367 17.424 194.367 18.112V18.688C194.367 19.392 194.519 20.016 194.823 20.56C195.143 21.088 195.583 21.496 196.143 21.784C196.719 22.056 197.391 22.192 198.159 22.192C198.847 22.192 199.447 22.088 199.959 21.88C200.487 21.672 200.967 21.36 201.399 20.944L203.391 23.104C202.799 23.776 202.055 24.296 201.159 24.664C200.263 25.016 199.231 25.192 198.063 25.192Z" fill="#FAFAFA"/>
</svg>
